<svg width="1622" height="17" viewBox="0 0 1622 17" fill="none" xmlns="http://www.w3.org/2000/svg">
<path fill-rule="evenodd" clip-rule="evenodd" d="M64.6644 16.4187H0L35.0266 0L67.3588 15.1557L99.691 0L132.023 15.1557L164.355 0L196.688 15.1557L229.02 0L261.352 15.1558L293.685 0L326.017 15.1557L358.349 0L390.681 15.1557L423.013 0L455.345 15.1558L487.678 0L520.01 15.1557L552.342 0L584.674 15.1557L617.007 0L649.339 15.1558L681.671 0L714.003 15.1558L746.336 0L778.668 15.1557L811 0L843.332 15.1558L875.664 0L907.997 15.1558L940.329 0L972.661 15.1558L1004.99 0L1037.33 15.1557L1069.66 0L1101.99 15.1558L1134.32 0L1166.65 15.1558L1198.99 0L1231.32 15.1557L1263.65 0L1295.98 15.1558L1328.32 0L1360.65 15.1558L1392.98 0L1425.31 15.1558L1457.64 0L1489.98 15.1557L1522.31 0L1554.64 15.1558L1586.97 0L1622 16.4187H1557.34H1551.95H1492.67H1487.28H1428.01H1422.62H1363.34H1357.95H1298.68H1293.29H1234.01H1228.62H1169.35H1163.96H1104.68H1099.3H1040.02H1034.63H975.356H969.967H910.691H905.302H846.026H840.638H781.362H775.973H716.698H711.309H652.033H646.645H587.369H581.98H522.704H517.316H458.04H452.651H393.375H387.987H328.711H323.322H264.046H258.658H199.382H193.993H134.718H129.329H70.0532H64.6644Z" fill="#FFF8ED"/>
</svg>
