<svg width="1473" height="11" viewBox="0 0 1473 11" fill="none" xmlns="http://www.w3.org/2000/svg">
<path fill-rule="evenodd" clip-rule="evenodd" d="M0 10.6361H40.8174H44.219H81.6348H85.0364H122.453H125.854H163.27H166.672H204.087H207.489H244.905H248.306H285.723H289.124H326.541H329.942H367.357H370.76H408.175H411.576H448.993H452.394H489.81H493.212H530.628H534.029H571.445H574.847H612.263H615.664H653.08H656.482H693.898H697.299H734.715H738.117H775.533H778.934H816.351H819.752H857.168H860.57H897.986H901.387H938.803H942.205H979.621H983.022H1020.44H1023.84H1061.26H1064.66H1102.07H1105.47H1142.89H1146.29H1183.71H1187.11H1224.53H1227.93H1265.34H1268.74H1306.16H1309.56H1346.98H1350.38H1387.8H1391.2H1428.61H1432.01H1472.83L1450.72 0L1430.31 9.81791L1409.91 0L1389.5 9.81803L1369.09 0L1348.68 9.81791L1328.27 0L1307.86 9.81791L1287.45 0L1267.04 9.81797L1246.64 0L1226.23 9.81797L1205.82 0L1185.41 9.81791L1165 0L1144.59 9.81791L1124.18 0L1103.77 9.81803L1083.36 0L1062.96 9.81791L1042.55 0L1022.14 9.81791L1001.73 0L981.321 9.81803L960.912 0L940.504 9.81779L920.095 0L899.686 9.81803L879.277 0L858.869 9.81791L838.46 0L818.051 9.81803L797.642 0L777.234 9.81791L756.825 0L736.416 9.81791L716.007 0L695.599 9.81803L675.19 0L654.781 9.81779L634.373 0L613.964 9.81803L593.555 0L573.146 9.81791L552.737 0L532.328 9.81803L511.92 0L491.511 9.81791L471.102 0L450.693 9.81791L430.285 0L409.876 9.81803L389.467 0L369.058 9.81779L348.65 0L328.241 9.81803L307.832 0L287.423 9.81791L267.015 0L246.606 9.81803L226.197 0L205.788 9.81791L185.38 0L164.971 9.81791L144.562 0L124.153 9.81803L103.744 0L83.3356 9.81791L62.9269 0L42.5182 9.81791L22.1095 0L0 10.6361Z" fill="#96152A"/>
</svg>
