<svg width="181" height="102" viewBox="0 0 181 102" fill="none" xmlns="http://www.w3.org/2000/svg">
<path d="M7.50453 60.06C7.62453 60.3 7.68453 60.75 7.68453 61.41C7.68453 62.01 7.38453 62.4 6.78453 62.58C6.84453 62.82 6.84453 63.06 6.78453 63.3C6.72453 63.48 6.63453 63.66 6.51453 63.84C6.45453 63.96 6.39453 64.08 6.33453 64.2C6.33453 64.32 6.42453 64.44 6.60453 64.56C6.78453 64.44 6.81453 64.26 6.69453 64.02C6.57453 63.72 6.72453 63.6 7.14453 63.66C6.96453 64.02 6.84453 64.47 6.78453 65.01C6.78453 65.55 6.60453 65.91 6.24453 66.09C6.42453 66.57 6.45453 67.11 6.33453 67.71C6.21453 68.25 6.00453 68.73 5.70453 69.15C5.82453 69.33 5.88453 69.33 5.88453 69.15C5.94453 68.97 6.03453 68.97 6.15453 69.15C5.79453 69.75 5.64453 70.38 5.70453 71.04C5.76453 71.7 5.55453 72.18 5.07453 72.48C5.13453 72.6 5.19453 72.6 5.25453 72.48C5.31453 72.3 5.40453 72.3 5.52453 72.48C5.46453 73.14 5.37453 73.68 5.25453 74.1C5.13453 74.46 5.16453 74.94 5.34453 75.54H5.07453C4.95453 76.68 4.89453 77.94 4.89453 79.32C4.89453 80.7 4.80453 82.08 4.62453 83.46C4.74453 83.7 4.83453 83.94 4.89453 84.18C4.95453 84.48 4.92453 84.78 4.80453 85.08C4.80453 85.26 4.86453 85.35 4.98453 85.35C5.10453 85.41 5.16453 85.5 5.16453 85.62C5.10453 85.68 5.04453 85.68 4.98453 85.62C4.98453 85.62 4.98453 85.68 4.98453 85.8C4.98453 86.34 5.04453 86.94 5.16453 87.6C5.28453 88.26 5.49453 88.65 5.79453 88.77C5.91453 89.61 6.24453 90.48 6.78453 91.38C7.32453 92.28 8.04453 92.79 8.94453 92.91C9.78453 92.79 10.5045 92.49 11.1045 92.01C11.7645 91.59 12.3645 91.14 12.9045 90.66C14.5845 89.34 16.0845 87.81 17.4045 86.07C18.7845 84.33 20.0445 82.47 21.1845 80.49C22.3845 78.57 23.4645 76.56 24.4245 74.46C25.4445 72.3 26.4045 70.17 27.3045 68.07C27.3645 67.53 27.4545 66.96 27.5745 66.36C27.7545 65.7 27.9045 65.07 28.0245 64.47C28.2645 64.59 28.4745 64.74 28.6545 64.92C28.8945 65.04 29.1045 65.19 29.2845 65.37C29.0445 65.85 29.0445 66.3 29.2845 66.72C29.5845 67.14 29.6745 67.56 29.5545 67.98C29.5545 68.04 29.6745 68.07 29.9145 68.07C29.8545 68.61 29.7345 69.06 29.5545 69.42C29.7945 69.48 29.8845 69.39 29.8245 69.15C29.7645 68.91 29.8545 68.82 30.0945 68.88C30.0945 69 30.1245 69.12 30.1845 69.24C30.2445 69.3 30.2445 69.42 30.1845 69.6C30.4245 69.6 30.5445 69.42 30.5445 69.06C30.6645 69.06 30.7245 69.27 30.7245 69.69C30.6645 69.75 30.4845 69.78 30.1845 69.78C28.9845 72.24 27.7845 74.64 26.5845 76.98C25.4445 79.32 24.0945 81.54 22.5345 83.64C22.6545 83.76 22.6545 83.88 22.5345 84C22.4745 84.12 22.4745 84.3 22.5345 84.54C22.8345 84.48 23.0445 84.36 23.1645 84.18C23.3445 84.06 23.4945 83.91 23.6145 83.73C23.6145 83.61 23.5845 83.58 23.5245 83.64C23.5245 83.7 23.4645 83.73 23.3445 83.73C23.8845 83.01 24.4245 82.23 24.9645 81.39C25.5645 80.61 26.1045 79.74 26.5845 78.78C26.8845 79.08 26.8545 79.38 26.4945 79.68C26.1945 80.04 26.1345 80.37 26.3145 80.67C25.8945 80.85 25.5945 81.15 25.4145 81.57C25.2345 81.99 25.0845 82.44 24.9645 82.92C24.8445 83.4 24.6945 83.85 24.5145 84.27C24.3345 84.69 24.0345 84.93 23.6145 84.99C23.6145 85.29 23.5545 85.5 23.4345 85.62C23.3145 85.8 23.1945 86.04 23.0745 86.34C22.9545 86.4 22.8345 86.43 22.7145 86.43C22.6545 86.43 22.5645 86.49 22.4445 86.61C21.9645 87.75 21.3345 88.68 20.5545 89.4C19.7745 90.12 19.0845 90.96 18.4845 91.92C17.9445 91.86 17.5845 91.98 17.4045 92.28C17.2845 92.64 16.9845 92.85 16.5045 92.91C16.0845 93.57 15.4245 94.11 14.5245 94.53C13.6845 94.95 12.7545 95.19 11.7345 95.25C10.7745 95.37 9.81453 95.31 8.85453 95.07C7.95453 94.83 7.23453 94.38 6.69453 93.72C6.45453 93.84 6.48453 93.96 6.78453 94.08C7.08453 94.26 7.14453 94.41 6.96453 94.53C6.48453 94.11 5.97453 93.69 5.43453 93.27C4.95453 92.91 4.38453 92.58 3.72453 92.28C3.24453 91.62 2.82453 90.9 2.46453 90.12C2.16453 89.34 1.80453 88.56 1.38453 87.78C0.904531 85.32 0.694531 82.86 0.754531 80.4C0.874531 78 1.02453 75.75 1.20453 73.65C1.26453 72.87 1.35453 71.97 1.47453 70.95C1.59453 69.93 1.77453 69.18 2.01453 68.7C2.01453 66.66 2.28453 64.74 2.82453 62.94C3.36453 61.14 3.78453 59.28 4.08453 57.36C4.20453 57.18 4.26453 56.97 4.26453 56.73C4.32453 56.49 4.44453 56.31 4.62453 56.19C4.62453 56.01 4.56453 55.92 4.44453 55.92C4.68453 55.38 4.89453 54.75 5.07453 54.03C5.31453 53.31 5.46453 52.62 5.52453 51.96C5.58453 51.96 5.61453 51.93 5.61453 51.87C5.61453 51.75 5.67453 51.72 5.79453 51.78C5.85453 50.82 6.09453 49.95 6.51453 49.17C6.93453 48.39 7.20453 47.52 7.32453 46.56C7.44453 46.56 7.50453 46.53 7.50453 46.47C7.50453 46.41 7.56453 46.41 7.68453 46.47C7.68453 45.81 7.77453 45.27 7.95453 44.85C8.19453 44.37 8.46453 43.89 8.76453 43.41V42.78C9.42453 41.88 9.90453 40.86 10.2045 39.72C10.5645 38.58 11.0745 37.62 11.7345 36.84C11.7945 36.72 11.7645 36.63 11.6445 36.57C11.5845 36.51 11.5845 36.42 11.6445 36.3C12.1845 35.64 12.6045 34.89 12.9045 34.05C13.2645 33.21 13.7745 32.55 14.4345 32.07C14.4345 31.83 14.4645 31.68 14.5245 31.62C14.5845 31.56 14.5545 31.47 14.4345 31.35C15.3345 30.33 16.1745 29.25 16.9545 28.11C17.7945 26.91 18.6645 25.8 19.5645 24.78C20.5245 23.76 21.6045 22.92 22.8045 22.26C24.0645 21.54 25.5645 21.12 27.3045 21C27.4245 21 27.4845 20.97 27.4845 20.91C27.5445 20.79 27.6345 20.73 27.7545 20.73C28.8945 20.67 29.7945 20.85 30.4545 21.27C31.1745 21.69 31.8645 22.14 32.5245 22.62V22.98C32.9445 23.52 33.3045 24.21 33.6045 25.05C33.9045 25.89 34.0845 26.79 34.1445 27.75C34.2045 28.65 34.1145 29.52 33.8745 30.36C33.6945 31.2 33.3345 31.86 32.7945 32.34C32.5545 32.28 32.3745 32.31 32.2545 32.43C32.1945 32.49 32.0145 32.49 31.7145 32.43C31.2345 31.89 30.9045 31.23 30.7245 30.45C30.5445 29.67 30.3645 28.86 30.1845 28.02C30.0045 27.18 29.7945 26.4 29.5545 25.68C29.3145 24.96 28.9245 24.36 28.3845 23.88C26.9445 24.6 25.6545 25.53 24.5145 26.67C23.4345 27.81 22.3845 29.04 21.3645 30.36C20.4045 31.62 19.4745 32.97 18.5745 34.41C17.6745 35.79 16.7445 37.11 15.7845 38.37C15.7845 38.55 15.7545 38.7 15.6945 38.82C15.6945 38.88 15.6645 38.97 15.6045 39.09C15.3045 39.03 15.1545 39.09 15.1545 39.27C15.1545 39.45 15.0645 39.57 14.8845 39.63C15.0045 39.99 14.9745 40.32 14.7945 40.62C14.6745 40.92 14.4945 41.22 14.2545 41.52C14.0745 41.82 13.8645 42.12 13.6245 42.42C13.4445 42.72 13.3545 43.02 13.3545 43.32C13.2345 43.44 13.1145 43.47 12.9945 43.41C12.9345 43.35 12.8445 43.38 12.7245 43.5C12.6645 43.68 12.6945 43.77 12.8145 43.77C12.9945 43.71 13.1145 43.74 13.1745 43.86C12.9345 44.16 12.7545 44.52 12.6345 44.94C12.5145 45.36 12.2145 45.69 11.7345 45.93C11.7345 46.11 11.7945 46.26 11.9145 46.38C12.0945 46.5 12.1245 46.68 12.0045 46.92C11.7645 46.86 11.6745 46.8 11.7345 46.74C11.8545 46.62 11.8545 46.56 11.7345 46.56C11.5545 46.56 11.4645 46.65 11.4645 46.83C11.4645 47.01 11.4045 47.16 11.2845 47.28C11.3445 47.52 11.4345 47.55 11.5545 47.37C11.6745 47.13 11.7345 47.1 11.7345 47.28C11.5545 47.52 11.4345 47.73 11.3745 47.91C11.3745 48.09 11.2545 48.3 11.0145 48.54C11.1345 48.54 11.1945 48.51 11.1945 48.45C11.2545 48.39 11.3445 48.36 11.4645 48.36C10.9845 49.44 10.5645 50.61 10.2045 51.87C9.84453 53.07 9.39453 54.21 8.85453 55.29C8.97453 55.47 9.03453 55.44 9.03453 55.2C9.03453 54.96 9.12453 54.9 9.30453 55.02C9.12453 55.32 9.03453 55.62 9.03453 55.92C8.91453 55.98 8.79453 56.01 8.67453 56.01C8.55453 55.95 8.49453 55.98 8.49453 56.1C8.91453 56.4 8.97453 56.82 8.67453 57.36C8.43453 57.84 8.28453 58.35 8.22453 58.89C8.10453 58.89 8.01453 58.86 7.95453 58.8C7.89453 58.74 7.80453 58.74 7.68453 58.8C7.80453 59.04 7.89453 59.19 7.95453 59.25C8.07453 59.31 8.10453 59.52 8.04453 59.88C7.92453 59.94 7.86453 59.91 7.86453 59.79C7.86453 59.61 7.80453 59.52 7.68453 59.52C7.56453 59.52 7.50453 59.58 7.50453 59.7C7.56453 59.82 7.56453 59.94 7.50453 60.06ZM18.0345 29.28C18.0345 29.16 18.0645 29.04 18.1245 28.92C18.2445 28.74 18.2145 28.68 18.0345 28.74C18.0345 28.86 17.9745 28.98 17.8545 29.1C17.7945 29.16 17.8545 29.22 18.0345 29.28ZM16.8645 30.36C16.5645 30.42 16.4745 30.63 16.5945 30.99C16.5345 31.05 16.4445 31.08 16.3245 31.08C16.2645 31.08 16.1745 31.14 16.0545 31.26C13.0545 35.52 10.5945 40.14 8.67453 45.12C6.75453 50.04 5.10453 55.35 3.72453 61.05C3.90453 61.29 3.87453 61.56 3.63453 61.86C3.45453 62.16 3.45453 62.46 3.63453 62.76C3.33453 63.18 3.18453 63.72 3.18453 64.38C3.18453 64.5 3.12453 64.59 3.00453 64.65C2.88453 64.65 2.85453 64.74 2.91453 64.92C2.97453 64.98 3.03453 65.01 3.09453 65.01C3.21453 65.01 3.24453 65.1 3.18453 65.28C3.06453 65.28 3.00453 65.34 3.00453 65.46C3.00453 65.52 2.94453 65.52 2.82453 65.46C2.52453 67.02 2.25453 68.58 2.01453 70.14C1.83453 71.64 1.68453 73.08 1.56453 74.46C1.56453 74.58 1.62453 74.58 1.74453 74.46C1.86453 74.28 1.92453 74.31 1.92453 74.55C1.80453 74.67 1.77453 74.82 1.83453 75C1.95453 75.12 1.92453 75.21 1.74453 75.27C1.62453 75.21 1.59453 75.12 1.65453 75C1.77453 74.94 1.74453 74.85 1.56453 74.73C1.50453 75.39 1.41453 76.14 1.29453 76.98C1.17453 77.82 1.23453 78.51 1.47453 79.05C1.35453 79.17 1.26453 79.35 1.20453 79.59C1.14453 79.83 1.20453 79.98 1.38453 80.04C1.32453 79.74 1.35453 79.62 1.47453 79.68C1.59453 79.74 1.71453 79.71 1.83453 79.59C1.83453 78.63 1.89453 77.85 2.01453 77.25C2.13453 76.71 2.13453 75.84 2.01453 74.64C2.07453 74.46 2.13453 74.31 2.19453 74.19C2.25453 74.07 2.34453 73.92 2.46453 73.74C2.34453 73.74 2.22453 73.68 2.10453 73.56C2.34453 73.38 2.46453 73.14 2.46453 72.84C2.52453 72.54 2.58453 72.24 2.64453 71.94C2.46453 71.82 2.40453 71.88 2.46453 72.12C2.52453 72.3 2.46453 72.36 2.28453 72.3C2.52453 71.94 2.64453 71.64 2.64453 71.4C2.70453 71.1 2.67453 70.74 2.55453 70.32C2.61453 70.32 2.64453 70.35 2.64453 70.41C2.64453 70.47 2.70453 70.5 2.82453 70.5C2.88453 70.02 2.88453 69.66 2.82453 69.42C2.82453 69.12 2.88453 68.73 3.00453 68.25C2.94453 68.25 3.00453 68.34 3.18453 68.52C3.24453 67.5 3.39453 66.51 3.63453 65.55C3.87453 64.59 3.99453 63.63 3.99453 62.67C4.29453 62.37 4.41453 62.04 4.35453 61.68C4.35453 61.26 4.41453 60.9 4.53453 60.6C5.61453 56.04 6.96453 51.54 8.58453 47.1C10.2045 42.66 12.1245 38.55 14.3445 34.77C14.2845 34.77 14.2545 34.62 14.2545 34.32C14.5545 34.32 14.8245 34.08 15.0645 33.6C15.3645 33.06 15.5145 32.64 15.5145 32.34C15.9945 32.22 16.2945 31.98 16.4145 31.62C16.5945 31.26 16.7445 30.84 16.8645 30.36C16.9845 30.36 16.9845 30.3 16.8645 30.18C16.7445 30.06 16.7445 30.12 16.8645 30.36ZM15.0645 35.67C15.1245 35.61 15.1545 35.52 15.1545 35.4C15.2145 35.28 15.1845 35.22 15.0645 35.22C15.0645 35.28 15.0345 35.37 14.9745 35.49C14.9145 35.61 14.9445 35.67 15.0645 35.67ZM13.8045 38.1C13.9245 37.68 14.1345 37.32 14.4345 37.02C14.7345 36.72 14.8245 36.33 14.7045 35.85C14.5845 36.27 14.3445 36.69 13.9845 37.11C13.6245 37.47 13.5645 37.8 13.8045 38.1ZM13.4445 38.55H13.7145V38.37H13.4445V38.55ZM13.3545 39.36C13.2945 39.18 13.2945 39.06 13.3545 39C13.4745 38.94 13.5045 38.82 13.4445 38.64H13.1745C13.1745 39.06 13.2345 39.3 13.3545 39.36ZM12.6345 39.72C12.7545 39.78 12.8745 39.81 12.9945 39.81C13.1745 39.75 13.2345 39.81 13.1745 39.99C13.3545 39.99 13.5045 39.87 13.6245 39.63C13.3845 39.63 13.2345 39.57 13.1745 39.45C13.1145 39.27 12.9645 39.18 12.7245 39.18C12.7845 39.36 12.7545 39.48 12.6345 39.54C12.5745 39.54 12.5745 39.6 12.6345 39.72ZM11.7345 42.87C11.6145 42.93 11.5845 42.99 11.6445 43.05C11.7045 43.05 11.7345 42.99 11.7345 42.87C11.9145 42.81 12.0045 42.69 12.0045 42.51C12.0645 42.27 12.0945 42 12.0945 41.7C12.2145 41.7 12.2745 41.73 12.2745 41.79C12.3345 41.85 12.4245 41.82 12.5445 41.7C12.5445 41.4 12.5745 41.19 12.6345 41.07C12.7545 40.89 12.6645 40.74 12.3645 40.62C12.4845 40.5 12.6645 40.47 12.9045 40.53C13.1445 40.53 13.2645 40.44 13.2645 40.26C13.0845 40.2 12.9345 40.14 12.8145 40.08C12.6945 40.02 12.5145 39.99 12.2745 39.99C12.2145 40.29 12.1545 40.53 12.0945 40.71C12.0345 40.83 12.1245 40.98 12.3645 41.16C12.2445 41.28 12.1545 41.31 12.0945 41.25C12.0345 41.13 11.9145 41.13 11.7345 41.25C11.7345 41.55 11.6445 41.76 11.4645 41.88C11.2845 42 11.2245 42.24 11.2845 42.6C11.6445 42.48 11.7945 42.57 11.7345 42.87ZM13.8945 41.79H14.1645V41.61H13.8945V41.79ZM10.9245 43.68C10.9845 43.5 11.1945 43.41 11.5545 43.41C11.4345 43.29 11.3445 43.2 11.2845 43.14C11.2845 43.02 11.2245 42.93 11.1045 42.87C11.2245 43.17 11.1645 43.35 10.9245 43.41C10.7445 43.47 10.7445 43.56 10.9245 43.68ZM10.2045 45.03C10.0845 45.03 9.90453 45.3 9.66453 45.84C9.48453 46.38 9.57453 46.77 9.93453 47.01C10.0545 46.71 10.0845 46.44 10.0245 46.2C10.0245 45.9 10.1745 45.72 10.4745 45.66C10.4745 45.54 10.4445 45.45 10.3845 45.39C10.3245 45.33 10.3245 45.21 10.3845 45.03C10.5045 45.21 10.6245 45.27 10.7445 45.21C10.8645 45.09 10.9545 44.94 11.0145 44.76C10.8945 44.64 10.8045 44.67 10.7445 44.85C10.6845 44.97 10.6245 44.97 10.5645 44.85C10.3845 44.73 10.4145 44.58 10.6545 44.4C10.8945 44.16 10.8645 43.98 10.5645 43.86C10.5645 44.1 10.4745 44.28 10.2945 44.4C10.1745 44.52 10.1445 44.73 10.2045 45.03ZM9.12453 47.19C9.24453 47.49 9.36453 47.67 9.48453 47.73C9.42453 47.49 9.48453 47.4 9.66453 47.46C9.84453 47.46 9.90453 47.34 9.84453 47.1C9.66453 47.22 9.51453 47.25 9.39453 47.19C9.33453 47.07 9.24453 47.07 9.12453 47.19ZM9.39453 48.72C9.33453 48.6 9.33453 48.45 9.39453 48.27C9.45453 48.03 9.36453 47.94 9.12453 48C9.12453 48.18 9.06453 48.36 8.94453 48.54C8.88453 48.66 9.03453 48.72 9.39453 48.72ZM8.58453 49.08C8.70453 48.9 8.70453 48.78 8.58453 48.72C8.58453 48.78 8.55453 48.84 8.49453 48.9C8.43453 48.96 8.46453 49.02 8.58453 49.08ZM7.86453 51.06C7.74453 51.3 7.59453 51.6 7.41453 51.96C7.29453 52.26 7.29453 52.56 7.41453 52.86C7.53453 52.8 7.56453 52.71 7.50453 52.59C7.50453 52.41 7.59453 52.35 7.77453 52.41C7.77453 52.53 7.74453 52.62 7.68453 52.68C7.62453 52.68 7.62453 52.74 7.68453 52.86C8.04453 52.8 8.16453 52.47 8.04453 51.87C7.92453 51.81 7.83453 51.84 7.77453 51.96C7.77453 52.02 7.77453 51.99 7.77453 51.87C7.83453 51.75 7.86453 51.48 7.86453 51.06C8.10453 51.06 8.16453 51.09 8.04453 51.15C7.92453 51.21 7.89453 51.3 7.95453 51.42C8.31453 51.3 8.49453 51.06 8.49453 50.7C8.55453 50.28 8.70453 50.01 8.94453 49.89C8.94453 49.59 8.82453 49.41 8.58453 49.35C8.58453 49.47 8.55453 49.5 8.49453 49.44C8.49453 49.38 8.46453 49.35 8.40453 49.35C8.16453 49.77 7.98453 50.34 7.86453 51.06ZM9.93453 50.25C9.99453 50.19 10.0245 50.1 10.0245 49.98C10.0845 49.8 10.0245 49.74 9.84453 49.8C9.84453 50.1 9.87453 50.25 9.93453 50.25ZM9.48453 53.13C9.60453 52.89 9.75453 52.59 9.93453 52.23C10.1745 51.87 10.1745 51.6 9.93453 51.42C9.93453 51.72 9.81453 52.02 9.57453 52.32C9.39453 52.56 9.36453 52.83 9.48453 53.13ZM9.48453 51.87C9.54453 52.05 9.57453 52.05 9.57453 51.87C9.57453 51.63 9.54453 51.63 9.48453 51.87ZM6.24453 56.82C6.42453 56.22 6.63453 55.59 6.87453 54.93C7.11453 54.21 7.23453 53.55 7.23453 52.95C7.05453 53.61 6.84453 54.27 6.60453 54.93C6.36453 55.53 6.24453 56.16 6.24453 56.82ZM7.32453 55.2C7.56453 55.14 7.62453 55.05 7.50453 54.93C7.38453 54.81 7.32453 54.69 7.32453 54.57C7.44453 54.27 7.59453 54.06 7.77453 53.94C7.95453 53.76 8.01453 53.46 7.95453 53.04C7.71453 53.04 7.56453 53.01 7.50453 52.95C7.62453 53.25 7.53453 53.64 7.23453 54.12C6.93453 54.54 6.96453 54.9 7.32453 55.2ZM8.94453 53.49V53.67C9.06453 53.79 9.12453 53.76 9.12453 53.58C9.18453 53.4 9.15453 53.34 9.03453 53.4C9.03453 53.46 9.00453 53.49 8.94453 53.49ZM7.86453 55.56C7.92453 55.74 7.95453 55.74 7.95453 55.56C7.95453 55.32 7.92453 55.32 7.86453 55.56ZM6.78453 56.28C6.96453 56.4 7.05453 56.34 7.05453 56.1C7.05453 55.86 6.99453 55.74 6.87453 55.74C6.93453 55.86 6.90453 55.95 6.78453 56.01C6.72453 56.07 6.72453 56.16 6.78453 56.28ZM7.77453 56.73C7.65453 56.55 7.65453 56.4 7.77453 56.28C7.89453 56.16 7.89453 56.04 7.77453 55.92C7.47453 56.16 7.47453 56.43 7.77453 56.73ZM8.58453 56.82C8.58453 56.76 8.55453 56.73 8.49453 56.73C8.43453 56.67 8.40453 56.7 8.40453 56.82C8.46453 56.82 8.49453 56.85 8.49453 56.91C8.55453 56.97 8.58453 56.94 8.58453 56.82ZM7.41453 57.72C7.47453 57.6 7.53453 57.45 7.59453 57.27C7.71453 57.09 7.68453 56.94 7.50453 56.82C7.50453 56.94 7.44453 57.09 7.32453 57.27C7.20453 57.45 7.23453 57.6 7.41453 57.72ZM3.09453 71.85C3.57453 69.57 3.99453 67.35 4.35453 65.19C4.71453 62.97 5.28453 60.9 6.06453 58.98C6.06453 58.68 6.06453 58.5 6.06453 58.44C6.12453 58.32 6.12453 58.11 6.06453 57.81C6.18453 57.69 6.30453 57.63 6.42453 57.63C6.60453 57.57 6.66453 57.42 6.60453 57.18C6.42453 57.18 6.30453 57.15 6.24453 57.09C6.24453 57.03 6.18453 57 6.06453 57C5.40453 59.76 4.74453 62.28 4.08453 64.56C3.48453 66.84 3.15453 69.27 3.09453 71.85ZM8.31453 57.72C8.25453 57.54 8.25453 57.45 8.31453 57.45C8.37453 57.39 8.40453 57.3 8.40453 57.18H8.04453C8.04453 57.48 8.13453 57.66 8.31453 57.72ZM7.95453 57.99H8.22453V57.81H7.95453V57.99ZM6.96453 58.89C6.96453 59.07 6.96453 59.16 6.96453 59.16C7.02453 59.16 7.05453 59.13 7.05453 59.07C7.05453 59.01 7.05453 58.95 7.05453 58.89C7.05453 58.83 7.02453 58.83 6.96453 58.89ZM6.87453 59.43C6.99453 59.61 7.05453 59.61 7.05453 59.43C7.05453 59.19 6.99453 59.19 6.87453 59.43ZM5.88453 60.06C5.88453 59.94 5.94453 59.88 6.06453 59.88C6.24453 59.88 6.30453 59.79 6.24453 59.61C6.06453 59.61 5.94453 59.58 5.88453 59.52C5.94453 59.64 5.91453 59.76 5.79453 59.88C5.73453 59.94 5.76453 60 5.88453 60.06ZM6.24453 61.23C6.18453 61.23 6.12453 61.2 6.06453 61.14C6.00453 61.08 5.94453 61.11 5.88453 61.23C5.94453 61.29 5.94453 61.41 5.88453 61.59C5.88453 61.71 5.85453 61.86 5.79453 62.04C5.73453 62.22 5.70453 62.4 5.70453 62.58C5.76453 62.76 5.88453 62.88 6.06453 62.94C6.12453 62.4 6.24453 61.92 6.42453 61.5C6.66453 61.02 6.72453 60.54 6.60453 60.06C6.48453 60.3 6.39453 60.51 6.33453 60.69C6.33453 60.87 6.30453 61.05 6.24453 61.23ZM6.96453 62.04C7.14453 61.92 7.26453 61.71 7.32453 61.41C7.44453 61.11 7.44453 60.87 7.32453 60.69C7.20453 60.87 7.14453 61.08 7.14453 61.32C7.14453 61.56 7.08453 61.8 6.96453 62.04ZM5.61453 64.02C5.73453 64.08 5.82453 63.96 5.88453 63.66C6.00453 63.3 5.94453 63.12 5.70453 63.12C5.58453 63.24 5.55453 63.39 5.61453 63.57C5.73453 63.75 5.73453 63.9 5.61453 64.02ZM5.07453 63.48C5.13453 63.72 5.16453 63.75 5.16453 63.57C5.16453 63.33 5.13453 63.3 5.07453 63.48ZM4.98453 64.29C5.10453 64.29 5.19453 64.32 5.25453 64.38C5.25453 64.26 5.22453 64.17 5.16453 64.11C5.10453 64.05 5.13453 63.96 5.25453 63.84C4.95453 63.84 4.86453 63.99 4.98453 64.29ZM5.34453 65.37C4.98453 65.37 4.80453 65.58 4.80453 66C4.86453 66.36 4.77453 66.6 4.53453 66.72C4.71453 66.72 4.80453 66.78 4.80453 66.9C4.74453 67.02 4.65453 67.23 4.53453 67.53C4.41453 67.77 4.50453 67.92 4.80453 67.98C4.92453 67.5 4.98453 67.11 4.98453 66.81C5.04453 66.51 5.10453 66.09 5.16453 65.55C5.34453 65.67 5.49453 65.55 5.61453 65.19C5.73453 64.77 5.73453 64.5 5.61453 64.38C5.43453 64.68 5.34453 65.01 5.34453 65.37ZM4.08453 71.49C4.02453 71.73 3.93453 72 3.81453 72.3C3.69453 72.54 3.78453 72.72 4.08453 72.84C4.08453 71.94 4.17453 71.16 4.35453 70.5C4.59453 69.84 4.65453 69.09 4.53453 68.25C4.41453 68.85 4.29453 69.42 4.17453 69.96C4.11453 70.5 4.08453 71.01 4.08453 71.49ZM5.61453 69.42C5.67453 69.66 5.70453 69.69 5.70453 69.51C5.70453 69.27 5.67453 69.24 5.61453 69.42ZM5.16453 71.76H5.34453V71.49H5.16453V71.76ZM5.16453 71.94C5.22453 72.18 5.25453 72.18 5.25453 71.94C5.25453 71.7 5.22453 71.7 5.16453 71.94ZM2.55453 74.01C2.67453 73.83 2.76453 73.53 2.82453 73.11C2.94453 72.69 2.97453 72.36 2.91453 72.12C2.79453 72.42 2.70453 72.72 2.64453 73.02C2.58453 73.32 2.55453 73.65 2.55453 74.01ZM28.2945 72.3C27.9945 72.3 27.8445 72.54 27.8445 73.02C27.9045 73.44 27.7545 73.56 27.3945 73.38C27.3945 73.56 27.3645 73.71 27.3045 73.83C27.2445 73.89 27.2745 74.01 27.3945 74.19C27.6945 74.07 27.9045 73.86 28.0245 73.56C28.1445 73.26 28.1445 72.96 28.0245 72.66C28.1445 72.72 28.2045 72.78 28.2045 72.84C28.2045 72.84 28.2645 72.87 28.3845 72.93C28.4445 72.75 28.4445 72.63 28.3845 72.57C28.3245 72.51 28.2945 72.42 28.2945 72.3C28.4145 72.24 28.4445 72.21 28.3845 72.21C28.3245 72.15 28.2945 72.18 28.2945 72.3ZM5.07453 72.93C5.01453 73.23 4.98453 73.26 4.98453 73.02C5.04453 72.72 5.07453 72.69 5.07453 72.93ZM3.72453 74.01C3.60453 74.19 3.60453 74.22 3.72453 74.1C3.90453 73.92 3.90453 73.89 3.72453 74.01ZM4.80453 74.55H5.07453V74.28H4.80453V74.55ZM27.2145 75.09C27.2745 75.03 27.3345 74.91 27.3945 74.73C27.5145 74.49 27.4545 74.4 27.2145 74.46C27.2745 74.58 27.2445 74.7 27.1245 74.82C27.0645 74.94 27.0945 75.03 27.2145 75.09ZM3.72453 74.55C3.60453 74.55 3.54453 74.58 3.54453 74.64C3.66453 74.64 3.72453 74.61 3.72453 74.55ZM4.71453 75.27C4.65453 75.57 4.65453 75.57 4.71453 75.27C4.77453 75.03 4.77453 75.03 4.71453 75.27ZM3.54453 75.54C3.48453 75.84 3.48453 75.84 3.54453 75.54C3.60453 75.3 3.60453 75.3 3.54453 75.54ZM25.7745 77.34C26.0745 77.28 26.3145 77.04 26.4945 76.62C26.6745 76.26 26.6145 75.96 26.3145 75.72C26.0745 76.2 25.8945 76.74 25.7745 77.34ZM4.62453 75.9C4.68453 76.14 4.71453 76.14 4.71453 75.9C4.71453 75.72 4.68453 75.72 4.62453 75.9ZM2.37453 76.17C2.31453 76.47 2.28453 76.47 2.28453 76.17C2.34453 75.93 2.37453 75.93 2.37453 76.17ZM4.44453 76.44C4.50453 76.68 4.53453 76.68 4.53453 76.44C4.53453 76.26 4.50453 76.26 4.44453 76.44ZM3.18453 76.71C3.30453 76.89 3.36453 76.86 3.36453 76.62C3.36453 76.44 3.30453 76.47 3.18453 76.71ZM2.28453 76.8C2.34453 77.04 2.37453 77.04 2.37453 76.8C2.37453 76.56 2.34453 76.56 2.28453 76.8ZM25.3245 78.33C25.3245 78.15 25.3845 78.12 25.5045 78.24C25.3845 78.06 25.2945 77.97 25.2345 77.97C25.2345 78.21 25.2645 78.33 25.3245 78.33ZM3.18453 78.24C3.12453 78.54 3.18453 78.6 3.36453 78.42C3.54453 78.3 3.48453 78.24 3.18453 78.24ZM2.55453 78.87C2.61453 78.87 2.64453 78.87 2.64453 78.87C2.70453 78.93 2.76453 78.96 2.82453 78.96C2.76453 78.84 2.73453 78.75 2.73453 78.69C2.73453 78.63 2.67453 78.6 2.55453 78.6V78.87ZM24.6045 79.05C24.7245 79.11 24.7845 79.08 24.7845 78.96C24.7845 78.9 24.8445 78.84 24.9645 78.78H24.6045V79.05ZM24.5145 79.95C24.5745 79.83 24.6345 79.71 24.6945 79.59C24.7545 79.47 24.7845 79.32 24.7845 79.14H24.5145C24.5745 79.38 24.5145 79.53 24.3345 79.59C24.1545 79.71 24.2145 79.83 24.5145 79.95ZM1.38453 80.94V80.58C1.20453 80.46 1.11453 80.49 1.11453 80.67C1.11453 80.91 1.20453 81 1.38453 80.94C1.38453 81.06 1.35453 81.12 1.29453 81.12C1.23453 81.18 1.23453 81.3 1.29453 81.48C1.41453 81.42 1.47453 81.42 1.47453 81.48C1.53453 81.54 1.62453 81.57 1.74453 81.57C1.62453 81.27 1.62453 80.97 1.74453 80.67C1.86453 80.43 1.80453 80.16 1.56453 79.86C1.44453 79.98 1.41453 80.13 1.47453 80.31C1.53453 80.55 1.50453 80.76 1.38453 80.94ZM2.46453 80.76C2.64453 80.82 2.73453 80.76 2.73453 80.58C2.79453 80.4 2.73453 80.28 2.55453 80.22C2.61453 80.34 2.58453 80.43 2.46453 80.49C2.40453 80.55 2.40453 80.64 2.46453 80.76ZM23.7045 80.94C23.8845 81 23.9745 80.91 23.9745 80.67C23.9745 80.49 23.8845 80.46 23.7045 80.58V80.94ZM23.0745 81.84C23.2545 81.96 23.3445 81.87 23.3445 81.57C23.3445 81.27 23.2545 81.18 23.0745 81.3V81.84ZM1.74453 82.38C1.74453 82.14 1.65453 81.96 1.47453 81.84C1.53453 81.96 1.53453 82.11 1.47453 82.29C1.47453 82.47 1.56453 82.5 1.74453 82.38ZM2.82453 82.56C2.76453 82.26 2.61453 82.11 2.37453 82.11C2.37453 82.41 2.52453 82.56 2.82453 82.56ZM1.38453 83.28C1.26453 83.16 1.23453 82.92 1.29453 82.56C1.35453 82.26 1.32453 82.17 1.20453 82.29C1.26453 82.41 1.23453 82.59 1.11453 82.83C1.05453 83.13 1.14453 83.28 1.38453 83.28ZM24.6945 82.92C24.8145 82.68 24.7545 82.56 24.5145 82.56C24.5145 82.68 24.5145 82.8 24.5145 82.92C24.5145 83.04 24.5745 83.04 24.6945 82.92ZM1.74453 83.91C1.62453 83.73 1.59453 83.58 1.65453 83.46C1.71453 83.34 1.65453 83.22 1.47453 83.1C1.53453 83.34 1.50453 83.52 1.38453 83.64C1.32453 83.76 1.44453 83.85 1.74453 83.91ZM3.90453 83.19C3.78453 83.49 3.81453 83.55 3.99453 83.37C4.17453 83.25 4.14453 83.19 3.90453 83.19ZM23.9745 84.45C23.9145 84.27 23.9745 84.09 24.1545 83.91C24.3345 83.73 24.2745 83.64 23.9745 83.64C23.9745 83.76 23.9445 83.88 23.8845 84C23.8245 84.18 23.8545 84.33 23.9745 84.45ZM22.2645 84.45C22.2645 84.39 22.3245 84.24 22.4445 84C22.3245 83.94 22.2345 84 22.1745 84.18C22.1145 84.36 22.1445 84.45 22.2645 84.45ZM1.38453 84.99C1.38453 85.17 1.38453 85.26 1.38453 85.26C1.44453 85.26 1.47453 85.23 1.47453 85.17C1.47453 85.11 1.47453 85.05 1.47453 84.99C1.47453 84.93 1.44453 84.93 1.38453 84.99ZM22.4445 84.9C22.3845 85.2 22.4145 85.26 22.5345 85.08C22.7145 84.96 22.6845 84.9 22.4445 84.9ZM2.82453 86.43C2.82453 86.31 2.76453 86.25 2.64453 86.25C2.58453 86.25 2.55453 86.31 2.55453 86.43C2.73453 86.43 2.82453 86.43 2.82453 86.43ZM20.8245 87.24C20.8245 87.06 20.9145 86.94 21.0945 86.88C21.2745 86.88 21.3345 86.76 21.2745 86.52C21.0945 86.52 20.9145 86.61 20.7345 86.79C20.5545 86.97 20.5845 87.12 20.8245 87.24ZM20.1945 88.05C20.3145 87.99 20.4345 87.84 20.5545 87.6C20.6745 87.42 20.6445 87.3 20.4645 87.24C20.5245 87.48 20.4645 87.6 20.2845 87.6C20.1645 87.6 20.1345 87.75 20.1945 88.05ZM11.6445 42.06C11.9445 42.18 12.0045 42.3 11.8245 42.42C11.7045 42.42 11.6445 42.3 11.6445 42.06ZM8.40453 49.71C8.52453 49.47 8.58453 49.47 8.58453 49.71C8.58453 49.89 8.52453 49.89 8.40453 49.71ZM5.34453 56.1C5.46453 55.86 5.52453 55.86 5.52453 56.1C5.52453 56.28 5.46453 56.28 5.34453 56.1ZM7.50453 60.06C7.68453 60.06 7.80453 60.09 7.86453 60.15C7.86453 60.27 7.80453 60.33 7.68453 60.33C7.62453 60.27 7.56453 60.21 7.50453 60.15V60.06ZM7.14453 62.67C7.26453 62.67 7.29453 62.73 7.23453 62.85C7.17453 62.97 7.14453 63.06 7.14453 63.12C7.02453 63.06 6.96453 62.97 6.96453 62.85C7.02453 62.73 7.08453 62.67 7.14453 62.67ZM2.91453 65.91C2.97453 65.67 3.00453 65.67 3.00453 65.91C3.00453 66.09 2.97453 66.09 2.91453 65.91ZM30.1845 68.7C30.3045 68.46 30.3645 68.46 30.3645 68.7C30.3645 68.88 30.3045 68.88 30.1845 68.7ZM2.37453 69.33C2.37453 69.09 2.34453 69.12 2.28453 69.42C2.28453 69.66 2.31453 69.63 2.37453 69.33ZM2.28453 70.14C2.28453 70.02 2.28453 69.96 2.28453 69.96C2.40453 69.96 2.43453 69.99 2.37453 70.05C2.37453 70.11 2.34453 70.17 2.28453 70.23C2.22453 70.29 2.16453 70.32 2.10453 70.32C2.10453 70.32 2.16453 70.26 2.28453 70.14ZM30.3645 70.23C30.4245 69.99 30.4545 69.99 30.4545 70.23C30.4545 70.41 30.4245 70.41 30.3645 70.23ZM30.1845 70.41C30.4845 70.65 30.5445 70.95 30.3645 71.31C30.2445 71.67 30.0645 71.94 29.8245 72.12C29.7645 71.7 29.8245 71.4 30.0045 71.22C30.2445 71.04 30.3045 70.77 30.1845 70.41ZM2.01453 71.94C2.19453 72.06 2.22453 72.18 2.10453 72.3C1.98453 72.42 1.95453 72.54 2.01453 72.66C1.89453 72.66 1.83453 72.57 1.83453 72.39C1.89453 72.15 1.95453 72 2.01453 71.94ZM29.5545 72.39C29.6145 72.75 29.5845 73.17 29.4645 73.65C29.3445 74.07 29.2845 74.4 29.2845 74.64C29.1645 74.64 29.1045 74.64 29.1045 74.64C29.1045 74.58 29.0445 74.55 28.9245 74.55C28.9245 75.03 28.8045 75.36 28.5645 75.54C28.3245 75.78 28.1445 76.08 28.0245 76.44C27.8445 76.26 27.7545 76.08 27.7545 75.9C27.9945 75.96 28.0845 75.87 28.0245 75.63C28.0245 75.39 28.1745 75.3 28.4745 75.36C28.4745 74.7 28.6545 74.31 29.0145 74.19C28.8945 73.89 28.9245 73.59 29.1045 73.29C29.2845 72.99 29.4345 72.69 29.5545 72.39ZM2.28453 72.84C2.22453 72.72 2.22453 72.69 2.28453 72.75C2.34453 72.75 2.34453 72.78 2.28453 72.84ZM2.28453 72.84C2.28453 72.9 2.25453 72.93 2.19453 72.93C2.13453 72.87 2.16453 72.84 2.28453 72.84ZM1.83453 73.56C1.89453 73.32 1.92453 73.32 1.92453 73.56C1.92453 73.8 1.89453 73.8 1.83453 73.56ZM1.74453 75.36C1.86453 75.36 1.89453 75.45 1.83453 75.63C1.83453 75.87 1.74453 75.93 1.56453 75.81C1.56453 75.75 1.62453 75.6 1.74453 75.36ZM1.56453 76.17H1.92453C1.86453 76.29 1.83453 76.35 1.83453 76.35C1.83453 76.41 1.86453 76.53 1.92453 76.71C1.56453 76.65 1.44453 76.47 1.56453 76.17ZM27.8445 76.89C27.7845 77.31 27.6345 77.64 27.3945 77.88C27.2145 78.12 27.0645 78.42 26.9445 78.78C26.6445 78.48 26.6445 78.12 26.9445 77.7C27.2445 77.34 27.4245 77.01 27.4845 76.71C27.6045 76.71 27.6645 76.74 27.6645 76.8C27.6645 76.86 27.7245 76.89 27.8445 76.89ZM27.8445 76.89C27.8445 76.71 27.9045 76.65 28.0245 76.71V76.89H27.8445ZM1.47453 76.89C1.59453 76.65 1.65453 76.65 1.65453 76.89C1.65453 77.13 1.59453 77.13 1.47453 76.89ZM26.5845 77.52C26.5845 77.28 26.5545 77.28 26.4945 77.52C26.4945 77.82 26.5245 77.82 26.5845 77.52ZM1.56453 77.79C1.68453 77.79 1.71453 77.82 1.65453 77.88C1.65453 78 1.68453 78.12 1.74453 78.24C1.44453 78.12 1.38453 77.97 1.56453 77.79ZM25.3245 79.68C25.5045 79.8 25.5345 79.92 25.4145 80.04C25.2945 80.22 25.1745 80.25 25.0545 80.13C25.0545 80.01 25.0845 79.92 25.1445 79.86C25.2645 79.86 25.3245 79.8 25.3245 79.68ZM47.667 63.48C50.007 63 52.317 62.37 54.597 61.59C56.937 60.81 59.097 59.94 61.077 58.98C61.257 59.04 61.437 59.07 61.617 59.07C61.857 59.01 62.037 59.04 62.157 59.16C62.037 59.46 62.007 59.7 62.067 59.88C62.187 60.06 62.307 60.24 62.427 60.42C61.767 60.78 61.137 61.17 60.537 61.59C59.937 61.95 59.307 62.28 58.647 62.58C58.587 62.46 58.557 62.37 58.557 62.31C58.617 62.25 58.617 62.13 58.557 61.95C58.317 62.37 58.107 62.37 57.927 61.95C57.807 62.01 57.717 62.1 57.657 62.22C57.657 62.34 57.597 62.46 57.477 62.58C57.477 62.64 57.507 62.67 57.567 62.67C57.627 62.67 57.657 62.7 57.657 62.76C57.837 62.88 57.927 62.88 57.927 62.76C57.927 62.64 57.927 62.52 57.927 62.4C58.347 62.64 58.377 62.82 58.017 62.94C57.657 63.06 57.447 63.24 57.387 63.48C57.207 63.48 57.117 63.42 57.117 63.3C57.117 63.18 57.027 63.15 56.847 63.21C56.547 63.27 56.457 63.42 56.577 63.66C56.697 63.9 56.697 64.05 56.577 64.11C56.397 64.17 56.307 64.08 56.307 63.84C56.367 63.6 56.427 63.48 56.487 63.48C56.187 63.6 55.977 63.75 55.857 63.93C55.737 64.11 55.557 64.26 55.317 64.38C55.137 64.44 55.047 64.41 55.047 64.29C55.047 64.17 54.987 64.11 54.867 64.11C54.747 64.11 54.687 64.29 54.687 64.65C54.507 64.71 54.417 64.68 54.417 64.56C54.477 64.38 54.447 64.26 54.327 64.2C54.207 64.2 54.087 64.26 53.967 64.38C53.847 64.5 53.727 64.47 53.607 64.29C53.427 64.41 53.427 64.5 53.607 64.56C53.787 64.62 53.847 64.71 53.787 64.83C53.547 64.71 53.367 64.71 53.247 64.83C53.127 64.89 52.917 64.83 52.617 64.65C52.557 64.89 52.647 64.98 52.887 64.92C53.127 64.86 53.217 64.95 53.157 65.19C52.977 65.19 52.827 65.22 52.707 65.28C52.647 65.28 52.557 65.25 52.437 65.19V64.74C52.137 64.8 51.957 64.83 51.897 64.83C51.837 64.83 51.687 64.83 51.447 64.83C51.387 65.01 51.327 65.13 51.267 65.19C51.267 65.19 51.177 65.1 50.997 64.92C50.877 65.04 50.877 65.13 50.997 65.19C51.177 65.25 51.207 65.4 51.087 65.64C50.727 65.76 50.217 65.85 49.557 65.91C48.957 65.97 48.357 66.09 47.757 66.27C47.217 66.39 46.707 66.6 46.227 66.9C45.807 67.14 45.597 67.53 45.597 68.07C45.057 68.79 44.547 69.54 44.067 70.32C43.647 71.1 43.167 71.85 42.627 72.57C42.087 73.23 41.427 73.8 40.647 74.28C39.927 74.7 39.027 74.91 37.947 74.91C36.447 74.61 35.367 73.86 34.707 72.66C33.987 71.46 33.627 70.14 33.627 68.7C33.567 67.26 33.807 65.85 34.347 64.47C34.887 63.03 35.607 61.92 36.507 61.14C36.507 60.9 36.537 60.69 36.597 60.51C36.597 60.33 36.537 60.15 36.417 59.97C36.597 58.35 37.137 57.18 38.037 56.46C38.997 55.68 40.077 55.26 41.277 55.2C42.537 55.14 43.767 55.41 44.967 56.01C46.167 56.55 47.127 57.3 47.847 58.26C48.687 60 48.627 61.74 47.667 63.48ZM43.977 57.18C43.557 57.48 43.077 57.75 42.537 57.99C42.057 58.23 41.607 58.53 41.187 58.89C40.827 59.19 40.527 59.58 40.287 60.06C40.107 60.48 40.107 61.02 40.287 61.68C39.987 61.92 39.717 62.19 39.477 62.49C39.237 62.79 39.117 63.12 39.117 63.48C39.717 63.78 40.467 63.99 41.367 64.11C42.267 64.23 43.077 64.23 43.797 64.11C43.977 63.57 44.187 63 44.427 62.4C44.727 61.74 44.907 61.11 44.967 60.51C45.087 59.85 45.087 59.25 44.967 58.71C44.847 58.11 44.517 57.6 43.977 57.18ZM59.997 61.32C60.057 61.5 60.087 61.5 60.087 61.32C60.087 61.08 60.057 61.08 59.997 61.32ZM58.737 61.95C58.977 62.01 59.037 61.98 58.917 61.86C58.857 61.74 58.797 61.77 58.737 61.95ZM57.117 62.67C57.057 62.55 57.057 62.46 57.117 62.4C57.237 62.34 57.297 62.25 57.297 62.13C56.997 62.07 56.847 62.16 56.847 62.4C56.847 62.58 56.937 62.67 57.117 62.67ZM56.487 63.03C56.787 63.03 56.937 62.94 56.937 62.76C56.817 62.76 56.757 62.73 56.757 62.67C56.757 62.61 56.697 62.58 56.577 62.58C56.577 62.7 56.547 62.79 56.487 62.85C56.487 62.85 56.487 62.91 56.487 63.03ZM55.857 62.94H56.217C56.217 62.76 56.097 62.67 55.857 62.67V62.94ZM53.247 63.57C53.727 63.45 54.177 63.42 54.597 63.48C55.017 63.54 55.467 63.45 55.947 63.21C55.647 63.15 55.347 63.12 55.047 63.12C54.747 63.12 54.447 63.06 54.147 62.94C54.207 63.24 54.087 63.36 53.787 63.3C53.487 63.24 53.307 63.33 53.247 63.57ZM50.997 63.84C50.997 64.26 51.237 64.44 51.717 64.38C52.197 64.26 52.497 64.14 52.617 64.02C52.317 63.78 52.047 63.72 51.807 63.84C51.567 63.96 51.297 63.96 50.997 63.84ZM50.457 64.29C50.157 64.23 50.097 64.29 50.277 64.47C50.457 64.65 50.547 64.62 50.547 64.38H50.907C50.907 64.08 50.757 63.99 50.457 64.11V64.29ZM49.467 64.56C49.347 64.5 49.257 64.44 49.197 64.38C49.197 64.26 49.107 64.23 48.927 64.29C48.807 64.53 48.867 64.68 49.107 64.74C49.347 64.8 49.467 64.74 49.467 64.56ZM37.677 64.65C37.497 65.13 37.257 65.67 36.957 66.27C36.717 66.87 36.507 67.5 36.327 68.16C36.147 68.76 36.057 69.42 36.057 70.14C35.997 70.8 36.117 71.49 36.417 72.21C38.037 71.91 39.237 71.25 40.017 70.23C40.797 69.15 41.547 68.01 42.267 66.81C41.247 66.69 40.377 66.42 39.657 66C38.997 65.58 38.337 65.13 37.677 64.65ZM50.367 65.28C50.547 65.46 50.607 65.46 50.547 65.28C50.547 65.1 50.487 65.1 50.367 65.28ZM49.377 65.46C49.317 65.46 49.197 65.43 49.017 65.37C48.897 65.31 48.837 65.34 48.837 65.46C49.137 65.76 49.317 65.76 49.377 65.46ZM49.467 65.46C49.707 65.58 49.767 65.58 49.647 65.46C49.587 65.34 49.527 65.34 49.467 65.46ZM50.007 65.46C50.067 65.58 50.097 65.61 50.097 65.55C50.157 65.49 50.127 65.46 50.007 65.46ZM48.657 65.64C48.777 65.82 48.807 65.82 48.747 65.64C48.747 65.46 48.717 65.46 48.657 65.64ZM47.937 65.82C47.877 65.82 47.847 65.79 47.847 65.73C47.847 65.67 47.787 65.67 47.667 65.73C47.547 65.85 47.577 65.94 47.757 66C47.937 66 47.997 65.94 47.937 65.82ZM50.457 64.29C50.517 64.29 50.547 64.32 50.547 64.38C50.487 64.38 50.457 64.35 50.457 64.29ZM72.0338 54.66C72.0938 54.78 72.1538 54.87 72.2138 54.93C72.2738 54.99 72.3038 55.08 72.3038 55.2C72.7838 55.14 73.1438 55.2 73.3838 55.38C73.6238 55.5 73.8938 55.62 74.1938 55.74C74.1938 55.8 74.1038 55.83 73.9238 55.83C74.3438 56.25 74.7338 56.73 75.0938 57.27C75.5138 57.81 75.5738 58.41 75.2738 59.07C75.3338 59.19 75.4238 59.19 75.5438 59.07C75.7238 58.89 75.8738 58.89 75.9938 59.07C75.9938 59.25 75.9338 59.4 75.8138 59.52C75.7538 59.58 75.7538 59.73 75.8138 59.97C75.6938 60.03 75.6038 60.03 75.5438 59.97C75.4838 59.91 75.3638 59.94 75.1838 60.06C75.3638 60.18 75.4538 60.36 75.4538 60.6C75.4538 60.84 75.5138 60.87 75.6338 60.69C75.8138 60.87 75.7838 61.05 75.5438 61.23C75.3638 61.41 75.2438 61.56 75.1838 61.68C75.3038 61.68 75.3938 61.65 75.4538 61.59C75.5138 61.53 75.6038 61.53 75.7238 61.59C75.3638 61.95 75.1538 62.37 75.0938 62.85C75.0938 63.33 74.9138 63.81 74.5538 64.29C74.5538 64.35 74.7038 64.38 75.0038 64.38C74.5238 65.58 74.3438 66.75 74.4638 67.89C74.6438 69.03 74.9738 70.02 75.4538 70.86C75.2738 71.16 75.0638 71.25 74.8238 71.13C74.6438 71.01 74.4338 70.98 74.1938 71.04C73.1738 70.26 72.5438 69.33 72.3038 68.25C72.0638 67.17 71.9738 66.03 72.0338 64.83C72.1538 63.57 72.3038 62.28 72.4838 60.96C72.6638 59.64 72.6638 58.35 72.4838 57.09C71.7638 57.57 71.1938 58.17 70.7738 58.89C70.3538 59.55 69.8138 60.12 69.1538 60.6C68.6738 61.62 68.1338 62.61 67.5338 63.57C66.9338 64.47 66.2738 65.34 65.5538 66.18C65.1338 66.9 64.7138 67.65 64.2938 68.43C63.9338 69.21 63.5138 69.93 63.0338 70.59C62.5538 71.25 61.9838 71.85 61.3238 72.39C60.7238 72.87 59.9438 73.14 58.9838 73.2C58.3238 72.9 57.8438 72.45 57.5438 71.85C57.2438 71.25 57.0938 70.59 57.0938 69.87C57.0938 69.09 57.2138 68.34 57.4538 67.62C57.6338 66.84 57.8738 66.15 58.1738 65.55C58.4738 64.17 58.8638 62.88 59.3438 61.68C59.7638 60.42 60.2138 59.19 60.6938 57.99C61.2938 58.05 61.9238 58.14 62.5838 58.26C63.3038 58.32 63.8738 58.65 64.2938 59.25C64.0538 59.91 63.7838 60.54 63.4838 61.14C63.1838 61.68 62.9438 62.28 62.7638 62.94C63.3038 62.58 63.7238 62.1 64.0238 61.5C64.3238 60.84 64.7438 60.33 65.2838 59.97C65.7038 59.37 66.1238 58.74 66.5438 58.08C66.9638 57.36 67.4138 56.73 67.8938 56.19C68.3738 55.59 68.9438 55.14 69.6038 54.84C70.2638 54.54 71.0738 54.48 72.0338 54.66ZM70.0538 55.65H70.3238C70.3238 55.47 70.2338 55.38 70.0538 55.38V55.65ZM70.6838 56.01C70.3838 56.25 70.1438 56.55 69.9638 56.91C69.8438 57.27 69.5738 57.51 69.1538 57.63C69.1538 57.57 69.1238 57.54 69.0638 57.54C69.0638 57.54 69.0638 57.51 69.0638 57.45C69.0638 57.33 69.2738 57.21 69.6938 57.09C69.6938 56.97 69.7238 56.82 69.7838 56.64C69.9038 56.46 69.9038 56.31 69.7838 56.19C69.7238 56.31 69.6638 56.31 69.6038 56.19C69.5438 56.07 69.4538 56.07 69.3338 56.19C69.1538 56.61 68.8838 56.88 68.5238 57C68.1638 57.12 67.7738 57.24 67.3538 57.36C67.2938 57.54 67.3238 57.63 67.4438 57.63C67.5638 57.63 67.6238 57.69 67.6238 57.81C67.4438 57.81 67.2938 57.93 67.1738 58.17C66.8738 58.11 66.6938 58.2 66.6338 58.44C66.5738 58.62 66.4838 58.77 66.3638 58.89C66.6038 58.77 66.8138 58.74 66.9938 58.8C67.2338 58.8 67.2938 58.92 67.1738 59.16C67.0538 59.04 66.9038 59.01 66.7238 59.07C66.6038 59.07 66.3938 59.07 66.0938 59.07C66.0938 59.19 66.0938 59.34 66.0938 59.52C66.0938 59.7 66.0038 59.73 65.8238 59.61C65.7638 59.91 65.8238 60.06 66.0038 60.06C66.1838 60.06 66.3038 60.15 66.3638 60.33C66.2438 60.39 66.1538 60.39 66.0938 60.33C66.0338 60.21 65.9438 60.18 65.8238 60.24C65.7638 60.36 65.7038 60.48 65.6438 60.6C65.5838 60.66 65.5238 60.75 65.4638 60.87C65.7638 60.99 65.8838 60.96 65.8238 60.78C65.8238 60.6 65.9738 60.54 66.2738 60.6C66.1538 60.72 66.0638 60.87 66.0038 61.05C66.0038 61.17 65.9438 61.26 65.8238 61.32C65.8238 61.2 65.7638 61.17 65.6438 61.23C65.5238 61.23 65.4338 61.2 65.3738 61.14C65.3138 61.26 65.3138 61.41 65.3738 61.59C65.4938 61.77 65.4938 61.86 65.3738 61.86C65.2538 61.8 65.1338 61.74 65.0138 61.68C64.9538 61.62 64.8938 61.68 64.8338 61.86C65.1338 61.98 65.2538 62.1 65.1938 62.22C65.1338 62.34 65.0438 62.52 64.9238 62.76C65.2238 62.76 65.4338 62.67 65.5538 62.49C65.6738 62.31 65.7638 62.13 65.8238 61.95C65.9438 61.71 66.0638 61.53 66.1838 61.41C66.3638 61.23 66.6338 61.17 66.9938 61.23C67.1138 60.87 67.3238 60.69 67.6238 60.69C67.5038 60.39 67.5938 60.15 67.8938 59.97C68.1938 59.79 68.4638 59.64 68.7038 59.52C68.8238 58.68 69.2138 58.02 69.8738 57.54C70.5338 57.06 70.9538 56.49 71.1338 55.83C70.9538 55.77 70.8638 55.8 70.8638 55.92C70.8638 55.98 70.8038 56.01 70.6838 56.01V55.74C70.5038 55.86 70.3838 55.89 70.3238 55.83C70.2638 55.71 70.2038 55.74 70.1438 55.92C70.2638 56.04 70.4438 56.07 70.6838 56.01ZM65.2838 60.51C65.5238 60.57 65.5838 60.54 65.4638 60.42C65.3438 60.3 65.2838 60.33 65.2838 60.51ZM64.7438 63.21C65.0438 63.15 65.1338 63.06 65.0138 62.94C64.8938 62.82 64.7738 62.73 64.6538 62.67C64.5938 62.79 64.5938 62.88 64.6538 62.94C64.7738 62.94 64.8038 63.03 64.7438 63.21ZM64.2038 63.48C64.3238 63.66 64.3838 63.66 64.3838 63.48C64.3838 63.3 64.3238 63.3 64.2038 63.48ZM73.2938 64.29C73.4138 64.41 73.4738 64.35 73.4738 64.11C73.5338 63.87 73.5038 63.78 73.3838 63.84C73.3838 63.96 73.3538 64.05 73.2938 64.11C73.2338 64.11 73.2338 64.17 73.2938 64.29ZM73.2938 64.92V65.1C73.4138 65.22 73.4738 65.19 73.4738 65.01C73.5338 64.83 73.5038 64.77 73.3838 64.83C73.3838 64.89 73.3538 64.92 73.2938 64.92ZM72.9338 65.91C73.1738 65.91 73.3538 65.73 73.4738 65.37C73.0538 65.37 72.8738 65.55 72.9338 65.91ZM72.9338 66.54C73.0538 66.54 73.1438 66.48 73.2038 66.36C73.2638 66.18 73.2038 66.09 73.0238 66.09C73.0238 66.21 72.9938 66.3 72.9338 66.36C72.9338 66.36 72.9338 66.42 72.9338 66.54ZM67.1738 58.17C67.3538 58.11 67.4438 58.14 67.4438 58.26C67.5038 58.32 67.5938 58.35 67.7138 58.35C67.7138 57.99 67.8638 57.81 68.1638 57.81C68.2238 57.99 68.1938 58.17 68.0738 58.35C67.9538 58.47 67.8038 58.56 67.6238 58.62C67.5038 58.62 67.3838 58.59 67.2638 58.53C67.1438 58.47 67.1138 58.35 67.1738 58.17ZM69.1538 57.81C68.9738 57.93 68.8238 58.05 68.7038 58.17C68.6438 58.29 68.5538 58.41 68.4338 58.53C68.5538 58.05 68.7938 57.81 69.1538 57.81ZM68.2538 58.71C68.3138 58.95 68.2538 59.13 68.0738 59.25C67.8938 59.37 67.7438 59.37 67.6238 59.25C67.7438 59.19 67.8338 59.1 67.8938 58.98C67.9538 58.8 68.0738 58.71 68.2538 58.71ZM66.9938 59.61C66.8738 59.85 66.6938 59.97 66.4538 59.97C66.4538 59.55 66.6338 59.43 66.9938 59.61ZM67.1738 60.06H67.4438V60.24H67.1738V60.06ZM66.9038 60.24C67.1438 60.24 67.1738 60.39 66.9938 60.69C66.8738 60.93 66.7238 61.05 66.5438 61.05C66.4838 60.81 66.5438 60.69 66.7238 60.69C66.9038 60.63 66.9638 60.48 66.9038 60.24ZM75.6338 60.33C75.6938 60.15 75.7238 60.18 75.7238 60.42C75.7238 60.6 75.6938 60.57 75.6338 60.33ZM87.4491 72.57C87.3891 72.45 87.3291 72.42 87.2691 72.48C87.2091 72.48 87.1791 72.51 87.1791 72.57C87.0591 72.51 86.9991 72.51 86.9991 72.57C86.9991 72.63 86.9691 72.66 86.9091 72.66C86.9091 72.78 86.9691 72.81 87.0891 72.75C87.2091 72.69 87.2391 72.63 87.1791 72.57H87.4491C87.2091 72.87 86.8791 73.08 86.4591 73.2C86.0991 73.32 85.7991 73.53 85.5591 73.83C85.9191 73.77 86.3091 73.59 86.7291 73.29C87.1491 72.99 87.5691 72.78 87.9891 72.66C87.3291 73.44 86.3691 74.07 85.1091 74.55C83.8491 75.03 82.7091 75.12 81.6891 74.82C81.2691 74.4 80.8491 74.01 80.4291 73.65C79.9491 73.23 79.4691 72.84 78.9891 72.48C78.6891 71.88 78.4491 71.28 78.2691 70.68C78.0891 70.02 78.0291 69.36 78.0891 68.7C78.2091 67.02 78.6591 65.25 79.4391 63.39C80.2191 61.47 81.2091 59.76 82.4091 58.26C83.6691 56.7 85.1091 55.47 86.7291 54.57C88.3491 53.67 90.0591 53.37 91.8591 53.67C92.2191 53.85 92.5791 54.06 92.9391 54.3C93.2991 54.54 93.5691 54.84 93.7491 55.2C93.8691 56.04 93.7791 56.7 93.4791 57.18C93.1791 57.6 93.1791 58.11 93.4791 58.71C93.2991 58.77 93.1791 58.89 93.1191 59.07C92.6991 59.07 92.3991 58.95 92.2191 58.71C92.0391 58.47 91.8591 58.2 91.6791 57.9C91.5591 57.6 91.4391 57.3 91.3191 57C91.1991 56.7 91.0191 56.46 90.7791 56.28C89.6391 57.12 88.4991 58.02 87.3591 58.98C86.2191 59.94 85.1991 61.02 84.2991 62.22C83.3991 63.42 82.6791 64.74 82.1391 66.18C81.5991 67.62 81.3291 69.21 81.3291 70.95C81.4491 71.25 81.7191 71.52 82.1391 71.76C83.5191 71.52 84.7191 71.1 85.7391 70.5C86.8191 69.9 87.8091 69.24 88.7091 68.52C89.6691 67.8 90.5691 67.08 91.4091 66.36C92.2491 65.58 93.1791 64.86 94.1991 64.2C94.3791 64.62 94.3791 65.07 94.1991 65.55C94.0191 65.97 93.7491 66.42 93.3891 66.9C93.0891 67.32 92.7591 67.74 92.3991 68.16C92.0391 68.52 91.7691 68.88 91.5891 69.24C91.4691 69.18 91.1391 69.36 90.5991 69.78C90.0591 70.14 89.8191 70.53 89.8791 70.95C89.6391 70.83 89.4291 70.86 89.2491 71.04C89.1291 71.16 88.9791 71.34 88.7991 71.58C88.6191 71.82 88.4091 72.06 88.1691 72.3C87.9891 72.48 87.7491 72.57 87.4491 72.57ZM92.6691 67.62C92.7291 67.5 92.7591 67.44 92.7591 67.44C92.8191 67.44 92.8791 67.38 92.9391 67.26C92.8191 67.2 92.6991 67.23 92.5791 67.35C92.5191 67.47 92.5491 67.56 92.6691 67.62ZM92.1291 67.8V67.98C92.2491 68.1 92.3391 68.07 92.3991 67.89C92.4591 67.71 92.4291 67.65 92.3091 67.71C92.2491 67.77 92.1891 67.8 92.1291 67.8ZM91.3191 68.88C91.3191 68.76 91.3791 68.7 91.4991 68.7C91.6191 68.7 91.6491 68.64 91.5891 68.52C91.4691 68.46 91.3491 68.49 91.2291 68.61C91.1691 68.73 91.1991 68.82 91.3191 68.88ZM90.3291 69.42C90.4491 69.36 90.5691 69.33 90.6891 69.33C90.8091 69.27 90.8691 69.15 90.8691 68.97C90.5691 69.15 90.3891 69.3 90.3291 69.42ZM88.2591 71.76C88.0791 71.76 87.9291 71.88 87.8091 72.12C87.9891 72.12 88.1391 72 88.2591 71.76C88.5591 71.82 88.6491 71.79 88.5291 71.67C88.4091 71.55 88.3191 71.58 88.2591 71.76ZM82.9491 74.46H83.2191V74.28H82.9491V74.46ZM84.2091 74.37C84.3891 74.55 84.4491 74.55 84.3891 74.37C84.3891 74.19 84.3291 74.19 84.2091 74.37ZM84.7491 74.46C84.8091 74.7 84.8391 74.73 84.8391 74.55C84.8391 74.31 84.8091 74.28 84.7491 74.46ZM91.2291 69.6C91.2891 69.42 91.3191 69.45 91.3191 69.69C91.3191 69.87 91.2891 69.84 91.2291 69.6ZM89.6091 71.49C89.7291 71.25 89.7591 71.25 89.6991 71.49C89.6991 71.67 89.6691 71.67 89.6091 71.49ZM89.2491 71.76C89.1291 71.94 88.9791 72.12 88.7991 72.3C88.6791 72.42 88.4691 72.51 88.1691 72.57C88.4091 72.21 88.7691 71.94 89.2491 71.76ZM112.152 55.47C112.032 56.25 111.942 56.91 111.882 57.45C111.822 57.93 111.432 58.38 110.712 58.8C110.172 60.18 109.332 61.26 108.192 62.04C107.112 62.82 106.062 63.66 105.042 64.56C104.202 64.74 103.302 65.01 102.342 65.37C101.382 65.67 100.482 65.52 99.642 64.92C99.162 65.58 98.862 66.33 98.742 67.17C98.562 67.95 98.352 68.85 98.112 69.87C99.012 70.53 100.002 70.86 101.082 70.86C102.222 70.8 103.362 70.62 104.502 70.32C105.642 69.96 106.752 69.54 107.832 69.06C108.972 68.58 110.022 68.19 110.982 67.89C112.002 67.29 113.052 66.72 114.132 66.18C115.272 65.58 116.442 65.04 117.642 64.56C117.762 64.38 117.942 64.26 118.182 64.2C118.422 64.08 118.602 63.96 118.722 63.84C118.782 64.02 118.722 64.2 118.542 64.38C118.422 64.56 118.212 64.74 117.912 64.92C117.672 65.04 117.402 65.16 117.102 65.28C116.862 65.4 116.652 65.55 116.472 65.73C116.472 65.79 116.592 65.82 116.832 65.82C115.572 66.96 114.222 67.89 112.782 68.61C111.402 69.33 109.872 69.99 108.192 70.59C108.492 70.59 108.912 70.59 109.452 70.59C110.052 70.53 110.562 70.38 110.982 70.14C110.922 70.38 110.802 70.53 110.622 70.59C110.502 70.65 110.352 70.74 110.172 70.86C110.172 70.98 110.262 71.01 110.442 70.95C110.622 70.89 110.652 70.95 110.532 71.13C109.992 71.31 109.482 71.58 109.002 71.94C108.582 72.3 108.222 72.39 107.922 72.21C107.682 72.33 107.592 72.45 107.652 72.57C107.772 72.63 107.772 72.72 107.652 72.84C106.452 73.38 105.342 73.83 104.322 74.19C103.302 74.49 102.012 74.64 100.452 74.64C99.372 74.4 98.532 73.98 97.932 73.38C97.272 72.78 96.792 72.09 96.492 71.31C96.192 70.47 96.042 69.57 96.042 68.61C95.982 67.59 96.012 66.6 96.132 65.64C96.552 64.38 97.092 63.12 97.752 61.86C98.352 60.6 99.072 59.4 99.912 58.26C100.752 57.12 101.682 56.07 102.702 55.11C103.782 54.15 104.952 53.37 106.212 52.77C106.692 52.53 107.172 52.44 107.652 52.5C108.132 52.5 108.612 52.5 109.092 52.5C109.452 52.56 109.722 52.68 109.902 52.86C110.082 53.04 110.322 53.16 110.622 53.22C110.742 53.76 110.952 54.21 111.252 54.57C111.552 54.87 111.852 55.17 112.152 55.47ZM105.132 57.09C105.312 57.15 105.462 57.09 105.582 56.91C105.762 56.67 105.912 56.64 106.032 56.82C105.252 57.42 104.532 58.05 103.872 58.71C103.212 59.31 102.582 60 101.982 60.78C103.482 60 104.862 59.16 106.122 58.26C107.442 57.3 108.522 56.13 109.362 54.75C108.582 55.05 107.802 55.35 107.022 55.65C106.242 55.95 105.612 56.43 105.132 57.09ZM103.872 71.4C103.992 71.46 104.112 71.49 104.232 71.49C104.412 71.43 104.472 71.58 104.412 71.94C104.652 71.82 104.832 71.73 104.952 71.67C105.132 71.61 105.342 71.7 105.582 71.94C105.702 71.82 105.702 71.7 105.582 71.58C105.522 71.46 105.582 71.4 105.762 71.4C106.062 71.4 106.422 71.31 106.842 71.13C107.322 70.95 107.712 70.77 108.012 70.59C107.352 70.95 106.632 71.1 105.852 71.04C105.072 70.98 104.412 71.1 103.872 71.4ZM119.082 63.66C119.082 63.6 119.112 63.6 119.172 63.66C119.232 63.66 119.202 63.66 119.082 63.66ZM119.082 63.66C119.082 63.78 119.052 63.84 118.992 63.84C118.932 63.78 118.962 63.72 119.082 63.66ZM110.712 70.68C110.832 70.5 110.892 70.53 110.892 70.77C110.892 70.95 110.832 70.92 110.712 70.68ZM141.582 56.1C141.162 55.8 140.742 55.56 140.322 55.38C138.882 55.98 137.592 56.79 136.452 57.81C135.372 58.83 134.202 59.58 132.942 60.06C132.762 60.96 132.342 61.5 131.682 61.68C130.302 63.6 128.952 65.52 127.632 67.44C126.372 69.3 125.202 71.28 124.122 73.38C123.882 75.36 122.892 76.68 121.152 77.34C120.012 76.8 119.292 76.02 118.992 75C118.632 73.92 118.512 72.75 118.632 71.49C118.692 70.23 118.872 68.94 119.172 67.62C119.412 66.3 119.592 65.13 119.712 64.11C120.132 63.09 120.462 61.92 120.702 60.6C120.882 59.22 121.212 58.11 121.692 57.27C122.652 57.51 123.312 57.93 123.672 58.53C124.092 59.13 124.302 59.82 124.302 60.6C124.302 61.32 124.212 62.1 124.032 62.94C123.852 63.78 123.702 64.56 123.582 65.28C124.602 63.72 125.742 62.28 127.002 60.96C128.262 59.58 129.552 58.2 130.872 56.82C131.472 56.28 132.252 55.77 133.212 55.29C134.232 54.75 135.252 54.36 136.272 54.12C137.352 53.88 138.372 53.88 139.332 54.12C140.292 54.36 141.042 55.02 141.582 56.1ZM134.922 55.47C135.222 55.53 135.402 55.47 135.462 55.29C135.582 55.11 135.762 55.08 136.002 55.2C135.882 54.9 135.972 54.78 136.272 54.84C136.572 54.9 136.752 54.78 136.812 54.48C136.092 54.66 135.612 54.72 135.372 54.66C132.852 56.1 130.632 57.93 128.712 60.15C126.792 62.37 125.142 64.74 123.762 67.26C125.322 64.98 127.002 62.85 128.802 60.87C130.602 58.83 132.642 57.03 134.922 55.47ZM137.532 55.38C137.532 55.5 137.472 55.62 137.352 55.74C137.532 55.68 137.712 55.65 137.892 55.65C138.072 55.59 138.192 55.44 138.252 55.2C137.892 55.32 137.652 55.38 137.532 55.38ZM136.632 56.19C136.812 56.19 136.932 56.16 136.992 56.1C137.052 55.98 137.142 55.86 137.262 55.74C137.082 55.62 136.902 55.62 136.722 55.74C136.542 55.8 136.512 55.95 136.632 56.19ZM134.112 57.54C134.532 57.48 134.892 57.3 135.192 57C135.492 56.64 135.822 56.46 136.182 56.46C136.122 56.34 136.152 56.22 136.272 56.1C136.392 55.92 136.332 55.86 136.092 55.92C135.792 56.22 135.462 56.49 135.102 56.73C134.742 56.97 134.412 57.24 134.112 57.54ZM135.372 57.18C135.252 57.36 135.252 57.39 135.372 57.27C135.552 57.09 135.552 57.06 135.372 57.18ZM133.392 58.26C133.512 58.14 133.632 58.05 133.752 57.99C133.932 57.93 134.052 57.81 134.112 57.63C133.992 57.75 133.812 57.84 133.572 57.9C133.332 57.96 133.272 58.08 133.392 58.26ZM132.222 59.79C132.342 59.61 132.492 59.49 132.672 59.43C132.852 59.31 132.942 59.1 132.942 58.8H132.672C132.732 59.1 132.612 59.31 132.312 59.43C132.072 59.49 132.042 59.61 132.222 59.79ZM131.322 60.51C131.322 60.45 131.352 60.42 131.412 60.42C131.412 60.24 131.352 60.18 131.232 60.24C131.232 60.42 131.262 60.51 131.322 60.51ZM134.922 55.47C134.862 55.47 134.802 55.47 134.742 55.47C134.742 55.41 134.802 55.38 134.922 55.38V55.47ZM119.172 59.79C119.172 59.61 119.232 59.58 119.352 59.7C119.472 59.82 119.412 59.85 119.172 59.79ZM161.09 12.27C160.85 13.05 160.67 13.86 160.55 14.7C160.49 15.54 160.19 16.2 159.65 16.68C159.47 19.14 158.93 21.54 158.03 23.88C157.19 26.16 156.53 28.38 156.05 30.54C157.07 30.66 158.21 30.72 159.47 30.72C160.79 30.72 162.02 30.69 163.16 30.63C164.48 30.81 165.89 30.93 167.39 30.99C168.89 30.99 170.36 31.05 171.8 31.17C173.3 31.23 174.77 31.41 176.21 31.71C177.71 32.01 179.12 32.52 180.44 33.24C180.2 33.36 179.99 33.39 179.81 33.33C179.63 33.27 179.45 33.3 179.27 33.42C177.59 32.82 175.76 32.43 173.78 32.25C171.8 32.01 169.79 31.86 167.75 31.8C165.77 31.68 163.79 31.62 161.81 31.62C159.89 31.56 158.09 31.41 156.41 31.17C155.93 31.29 155.63 31.62 155.51 32.16C155.51 32.4 155.66 32.49 155.96 32.43C156.26 32.37 156.47 32.46 156.59 32.7C156.65 32.52 156.68 32.34 156.68 32.16C156.74 31.98 156.83 31.92 156.95 31.98C156.95 32.22 157.13 32.4 157.49 32.52C157.91 32.58 158.21 32.46 158.39 32.16C158.87 32.4 159.29 32.49 159.65 32.43C160.07 32.31 160.49 32.25 160.91 32.25C161.03 32.31 161.09 32.4 161.09 32.52C161.09 32.64 161.15 32.76 161.27 32.88C161.51 32.88 161.63 32.82 161.63 32.7C161.75 32.7 161.78 32.73 161.72 32.79C161.72 32.85 161.75 32.88 161.81 32.88C161.93 32.88 161.96 32.82 161.9 32.7C161.9 32.58 161.84 32.52 161.72 32.52C161.72 32.4 161.78 32.37 161.9 32.43C162.02 32.49 162.08 32.58 162.08 32.7C162.2 32.64 162.2 32.58 162.08 32.52C162.02 32.4 162.02 32.28 162.08 32.16C162.32 32.52 162.62 32.73 162.98 32.79C163.34 32.85 163.7 32.88 164.06 32.88C164.48 32.88 164.87 32.88 165.23 32.88C165.65 32.82 166.01 32.88 166.31 33.06C166.37 33.06 166.4 32.97 166.4 32.79C166.7 32.97 166.91 33 167.03 32.88C167.15 32.76 167.36 32.79 167.66 32.97C167.78 32.85 167.72 32.76 167.48 32.7C167.24 32.64 167.12 32.52 167.12 32.34C167.3 32.46 167.48 32.52 167.66 32.52C167.9 32.46 168.05 32.43 168.11 32.43C168.23 32.67 168.23 32.76 168.11 32.7C167.99 32.58 167.93 32.58 167.93 32.7C168.53 33.12 169.19 33.24 169.91 33.06C170.63 32.88 171.32 32.94 171.98 33.24C172.22 33.18 172.4 33 172.52 32.7C172.64 32.76 172.67 32.91 172.61 33.15C172.61 33.33 172.73 33.39 172.97 33.33C173.09 33.27 173.09 33.21 172.97 33.15C172.85 33.03 172.82 32.91 172.88 32.79C173 32.97 173.15 33.15 173.33 33.33C173.57 33.45 173.63 33.63 173.51 33.87C173.81 33.87 173.93 33.84 173.87 33.78C173.87 33.66 173.87 33.51 173.87 33.33C174.05 33.51 174.23 33.54 174.41 33.42C174.59 33.24 174.71 33.24 174.77 33.42C174.89 33.42 174.92 33.36 174.86 33.24C174.86 33.12 174.89 33 174.95 32.88C175.31 33.18 175.82 33.27 176.48 33.15C177.2 32.97 177.89 33.06 178.55 33.42C177.53 33.72 176.54 33.72 175.58 33.42C175.4 33.54 175.28 33.72 175.22 33.96C175.22 34.14 175.07 34.2 174.77 34.14C174.59 34.2 174.5 34.17 174.5 34.05C174.5 33.87 174.47 33.72 174.41 33.6C174.29 33.9 173.99 34.02 173.51 33.96C173.09 33.9 172.91 34.05 172.97 34.41C172.73 34.47 172.61 34.41 172.61 34.23C172.67 33.99 172.61 33.87 172.43 33.87C172.43 34.17 172.34 34.29 172.16 34.23C172.04 34.17 171.83 34.2 171.53 34.32C171.53 34.14 171.65 34.05 171.89 34.05C171.89 33.93 171.77 33.87 171.53 33.87C171.35 33.81 171.32 33.9 171.44 34.14C171.32 34.08 171.23 33.99 171.17 33.87C171.17 33.75 171.05 33.72 170.81 33.78C170.63 33.78 170.51 33.84 170.45 33.96C170.45 34.08 170.39 34.2 170.27 34.32C169.01 34.14 167.69 34.02 166.31 33.96C164.93 33.9 163.55 33.87 162.17 33.87C160.85 33.87 159.56 33.9 158.3 33.96C157.1 33.96 156.05 33.99 155.15 34.05C154.91 34.17 154.79 34.38 154.79 34.68C154.85 34.98 154.73 35.13 154.43 35.13C154.43 36.45 154.13 37.71 153.53 38.91C152.99 40.11 152.63 41.34 152.45 42.6C151.79 44.4 151.04 46.38 150.2 48.54C149.42 50.7 148.7 52.74 148.04 54.66C147.56 55.98 147.02 57.21 146.42 58.35C145.82 59.43 145.22 60.51 144.62 61.59C144.02 62.67 143.48 63.81 143 65.01C142.52 66.15 142.19 67.38 142.01 68.7C142.01 69.36 141.98 69.96 141.92 70.5C141.92 71.04 141.83 71.64 141.65 72.3C141.71 73.08 141.74 73.89 141.74 74.73C141.74 75.51 141.65 76.29 141.47 77.07C141.47 78.15 141.5 79.26 141.56 80.4C141.68 81.54 141.86 82.62 142.1 83.64C142.34 84.66 142.67 85.62 143.09 86.52C143.57 87.48 144.17 88.26 144.89 88.86C143.81 88.74 142.91 88.38 142.19 87.78C141.47 87.24 140.9 86.58 140.48 85.8C140 85.02 139.64 84.15 139.4 83.19C139.16 82.23 138.95 81.27 138.77 80.31C138.65 79.29 138.56 78.12 138.5 76.8C138.38 75.54 138.38 74.34 138.5 73.2C138.62 73.2 138.68 73.26 138.68 73.38C138.68 73.5 138.74 73.53 138.86 73.47C138.86 73.11 138.86 72.72 138.86 72.3C138.8 71.88 138.86 71.55 139.04 71.31C138.74 71.43 138.62 71.61 138.68 71.85C138.74 72.09 138.71 72.3 138.59 72.48C138.59 71.64 138.59 70.86 138.59 70.14C138.59 69.42 138.77 68.73 139.13 68.07C139.07 67.41 139.04 66.75 139.04 66.09C139.04 65.37 138.83 64.74 138.41 64.2C138.65 63.9 138.86 63.6 139.04 63.3C139.16 63 139.37 62.73 139.67 62.49C140.03 59.91 140.42 57.48 140.84 55.2C141.26 52.92 141.71 50.7 142.19 48.54C142.67 46.38 143.18 44.22 143.72 42.06C144.32 39.84 144.95 37.53 145.61 35.13C144.83 35.01 144.02 35.04 143.18 35.22C142.34 35.4 141.53 35.58 140.75 35.76C139.91 35.94 139.1 36.06 138.32 36.12C137.48 36.18 136.73 35.97 136.07 35.49C135.95 35.01 135.89 34.53 135.89 34.05C135.89 33.51 135.98 33.06 136.16 32.7C136.34 32.34 136.61 32.07 136.97 31.89C137.33 31.71 137.78 31.68 138.32 31.8C139.52 31.5 140.84 31.32 142.28 31.26C143.78 31.14 145.31 30.96 146.87 30.72C147.59 28.44 148.34 25.92 149.12 23.16C149.9 20.4 150.71 17.73 151.55 15.15C151.97 13.83 152.36 12.48 152.72 11.1C153.14 9.72 153.59 8.4 154.07 7.14C154.55 5.88 155.09 4.71 155.69 3.63C156.35 2.55 157.19 1.62 158.21 0.839995C159.11 0.899997 159.8 1.17 160.28 1.64999C160.82 2.13 161.18 2.73 161.36 3.45C161.6 4.17 161.69 4.98 161.63 5.88C161.63 6.78 161.51 7.65 161.27 8.49C161.51 8.73 161.6 9.09 161.54 9.56999C161.66 9.56999 161.69 9.51 161.63 9.39C161.63 9.27 161.66 9.18 161.72 9.12C161.96 9.66 161.9 10.17 161.54 10.65C161.18 11.07 161.06 11.52 161.18 12C161.12 12 161.09 12 161.09 12C161.09 11.94 161.03 11.91 160.91 11.91C160.85 12.03 160.82 12.18 160.82 12.36C160.88 12.48 160.94 12.45 161 12.27H161.09ZM156.59 10.02C156.47 9.71999 156.38 9.69 156.32 9.93C156.26 10.17 156.35 10.2 156.59 10.02C156.47 10.26 156.38 10.38 156.32 10.38C156.32 10.26 156.29 10.2 156.23 10.2C156.23 10.2 156.23 10.26 156.23 10.38H156.14C155.96 10.56 155.93 10.8 156.05 11.1C155.93 11.1 155.87 11.13 155.87 11.19C155.93 11.19 155.93 11.22 155.87 11.28H155.78C155.84 11.58 155.78 11.85 155.6 12.09C155.42 12.27 155.42 12.48 155.6 12.72C155.66 12.42 155.72 12.18 155.78 12C155.9 11.82 155.93 11.58 155.87 11.28C155.99 11.28 156.02 11.28 155.96 11.28C155.96 11.22 155.99 11.16 156.05 11.1H156.14C156.14 10.92 156.17 10.83 156.23 10.83C155.39 13.89 154.43 17.16 153.35 20.64C152.27 24.06 151.28 27.39 150.38 30.63C150.86 30.75 151.22 30.78 151.46 30.72C151.7 30.6 152.06 30.57 152.54 30.63C153.14 28.41 153.77 26.22 154.43 24.06C155.15 21.84 155.81 19.68 156.41 17.58C157.07 15.42 157.61 13.29 158.03 11.19C158.51 9.02999 158.81 6.83999 158.93 4.61999C158.45 5.39999 158 6.24 157.58 7.14C157.22 8.04 156.89 9 156.59 10.02ZM160.46 5.52C160.28 5.7 160.28 5.79 160.46 5.79C160.64 5.79 160.64 5.7 160.46 5.52ZM154.7 30.36C154.58 30.42 154.55 30.51 154.61 30.63C154.73 30.69 154.76 30.6 154.7 30.36C154.94 30.18 155 30.03 154.88 29.91C154.76 29.79 154.67 29.64 154.61 29.46C154.73 29.16 154.85 28.92 154.97 28.74C155.15 28.5 155.21 28.2 155.15 27.84C155.27 27.72 155.36 27.69 155.42 27.75C155.54 27.75 155.66 27.69 155.78 27.57V26.94C155.6 26.94 155.51 26.91 155.51 26.85C155.63 26.55 155.69 26.22 155.69 25.86C155.75 25.5 155.9 25.26 156.14 25.14C156.14 25.26 156.17 25.32 156.23 25.32C156.29 25.08 156.41 24.87 156.59 24.69C156.77 24.45 156.77 24.18 156.59 23.88C156.47 24 156.41 24.18 156.41 24.42C156.41 24.6 156.35 24.72 156.23 24.78C156.11 24.48 156.11 24.21 156.23 23.97C156.41 23.67 156.56 23.4 156.68 23.16C156.8 23.16 156.83 23.22 156.77 23.34C156.71 23.46 156.74 23.52 156.86 23.52C157.1 22.86 157.31 22.29 157.49 21.81C157.67 21.33 157.82 20.67 157.94 19.83C157.64 20.19 157.43 20.76 157.31 21.54C157.19 22.26 156.98 22.68 156.68 22.8C157.34 20.34 158.06 17.88 158.84 15.42C159.62 12.9 160.16 10.32 160.46 7.68C160.52 7.68 160.55 7.65 160.55 7.59C160.55 7.53 160.52 7.49999 160.46 7.49999C160.34 7.26 160.34 7.11 160.46 7.05C160.58 6.99 160.67 6.9 160.73 6.78C160.43 6.66 160.37 6.51 160.55 6.33C160.25 7.11 160.04 7.95 159.92 8.85C159.8 9.69 159.68 10.5 159.56 11.28C159.44 11.34 159.35 11.34 159.29 11.28C159.29 11.22 159.23 11.19 159.11 11.19C159.11 11.31 159.14 11.43 159.2 11.55C159.26 11.61 159.29 11.7 159.29 11.82C158.99 12.06 158.72 12.54 158.48 13.26C158.24 13.98 158.27 14.58 158.57 15.06C158.45 15.18 158.33 15.21 158.21 15.15C158.15 15.03 158.06 15.03 157.94 15.15C157.46 17.79 156.71 20.46 155.69 23.16C154.73 25.86 154.01 28.38 153.53 30.72C153.83 30.78 154.04 30.72 154.16 30.54C154.34 30.36 154.49 30.21 154.61 30.09C154.61 30.21 154.61 30.27 154.61 30.27C154.67 30.27 154.7 30.3 154.7 30.36ZM156.95 8.4C157.19 8.28 157.22 8.22 157.04 8.22C156.86 8.16 156.83 8.22 156.95 8.4ZM154.97 9.12C155.21 9.18 155.27 9.15 155.15 9.03C155.03 8.91 154.97 8.94 154.97 9.12ZM159.47 9.56999C159.71 9.63 159.77 9.6 159.65 9.48C159.53 9.36 159.47 9.39 159.47 9.56999ZM159.38 10.29C159.44 10.53 159.47 10.53 159.47 10.29C159.47 10.05 159.44 10.05 159.38 10.29ZM160.91 10.65C160.79 10.95 160.82 11.04 161 10.92C161.18 10.74 161.15 10.65 160.91 10.65ZM160.73 11.91C160.85 11.85 160.91 11.73 160.91 11.55C160.91 11.37 160.85 11.25 160.73 11.19C160.73 11.37 160.67 11.52 160.55 11.64C160.49 11.7 160.55 11.79 160.73 11.91ZM155.15 13.44C155.33 13.56 155.42 13.5 155.42 13.26C155.42 13.02 155.36 12.9 155.24 12.9C155.3 13.02 155.3 13.11 155.24 13.17C155.18 13.23 155.15 13.32 155.15 13.44ZM153.53 13.53C153.47 13.53 153.44 13.62 153.44 13.8C153.26 13.86 153.23 13.95 153.35 14.07C153.47 14.19 153.5 14.1 153.44 13.8C153.5 13.8 153.53 13.71 153.53 13.53C153.71 13.53 153.74 13.47 153.62 13.35C153.5 13.23 153.47 13.29 153.53 13.53ZM159.47 13.62H159.65V13.44H159.47V13.62ZM155.06 14.34C155.06 14.22 155.12 14.07 155.24 13.89C155.36 13.71 155.3 13.62 155.06 13.62C155.12 13.8 155.09 13.95 154.97 14.07C154.85 14.13 154.88 14.22 155.06 14.34ZM152.45 14.16V14.43C152.57 14.55 152.63 14.52 152.63 14.34C152.69 14.16 152.66 14.07 152.54 14.07C152.54 14.19 152.51 14.22 152.45 14.16ZM153.17 14.43C153.29 14.67 153.35 14.67 153.35 14.43C153.35 14.19 153.29 14.19 153.17 14.43ZM160.37 14.88C160.37 14.82 160.4 14.73 160.46 14.61C160.52 14.43 160.49 14.34 160.37 14.34C160.31 14.34 160.25 14.43 160.19 14.61C160.19 14.73 160.25 14.82 160.37 14.88ZM152.27 15.24C152.15 15.3 152.12 15.36 152.18 15.42C152.24 15.42 152.27 15.36 152.27 15.24C152.39 15.18 152.45 15.09 152.45 14.97C152.45 14.85 152.48 14.73 152.54 14.61C152.36 14.61 152.27 14.82 152.27 15.24ZM154.7 15.42C154.76 15.3 154.82 15.15 154.88 14.97C154.94 14.79 154.91 14.67 154.79 14.61C154.79 14.73 154.73 14.88 154.61 15.06C154.55 15.24 154.58 15.36 154.7 15.42ZM159.29 14.7C159.35 14.94 159.38 14.97 159.38 14.79C159.38 14.55 159.35 14.52 159.29 14.7ZM152.99 15.15C152.99 15.09 153.02 15.06 153.08 15.06C153.08 14.88 153.02 14.82 152.9 14.88C152.9 15.06 152.93 15.15 152.99 15.15ZM152.81 16.14C152.69 15.96 152.69 15.81 152.81 15.69C152.99 15.51 152.93 15.42 152.63 15.42C152.69 15.54 152.69 15.69 152.63 15.87C152.63 16.05 152.69 16.14 152.81 16.14ZM158.93 15.51V15.69C159.05 15.81 159.11 15.78 159.11 15.6C159.17 15.42 159.14 15.36 159.02 15.42C159.02 15.48 158.99 15.51 158.93 15.51ZM152 16.05H152.09C152.03 15.87 152.03 15.78 152.09 15.78C152.21 15.72 152.27 15.63 152.27 15.51C152.09 15.45 152 15.51 152 15.69C152.06 15.81 152.06 15.93 152 16.05ZM154.52 16.14C154.52 16.08 154.55 15.99 154.61 15.87C154.67 15.75 154.64 15.69 154.52 15.69C154.52 15.75 154.49 15.84 154.43 15.96C154.37 16.08 154.4 16.14 154.52 16.14ZM158.93 16.32C158.99 16.26 159.02 16.2 159.02 16.14C159.02 16.02 158.99 15.96 158.93 15.96C158.87 16.02 158.84 16.08 158.84 16.14C158.84 16.26 158.87 16.32 158.93 16.32ZM151.91 16.68C151.85 16.56 151.88 16.47 152 16.41C152.12 16.35 152.09 16.29 151.91 16.23C151.91 16.29 151.88 16.38 151.82 16.5C151.76 16.62 151.79 16.68 151.91 16.68ZM154.16 16.59C154.4 16.65 154.46 16.62 154.34 16.5C154.22 16.38 154.16 16.41 154.16 16.59ZM158.39 17.58C158.63 17.64 158.72 17.58 158.66 17.4C158.6 17.16 158.69 17.07 158.93 17.13C158.81 17.01 158.81 16.89 158.93 16.77C159.05 16.59 158.99 16.5 158.75 16.5C158.69 16.68 158.63 16.86 158.57 17.04C158.51 17.16 158.45 17.34 158.39 17.58ZM152.36 17.31C152.36 17.19 152.39 17.04 152.45 16.86C152.57 16.62 152.54 16.53 152.36 16.59C152.42 16.71 152.39 16.83 152.27 16.95C152.15 17.07 152.18 17.19 152.36 17.31ZM159.38 17.04C159.38 16.92 159.41 16.86 159.47 16.86C159.47 16.74 159.41 16.68 159.29 16.68C159.29 16.92 159.32 17.04 159.38 17.04ZM151.37 18.12C151.19 18.24 151.19 18.3 151.37 18.3C151.55 18.3 151.55 18.24 151.37 18.12H151.46C151.52 17.94 151.61 17.73 151.73 17.49C151.85 17.25 151.85 17.04 151.73 16.86C151.61 17.22 151.49 17.64 151.37 18.12ZM153.98 17.13C154.16 17.31 154.22 17.31 154.16 17.13C154.16 16.95 154.1 16.95 153.98 17.13ZM153.98 17.85C153.92 17.73 153.92 17.64 153.98 17.58C154.1 17.52 154.1 17.46 153.98 17.4C153.98 17.46 153.95 17.55 153.89 17.67C153.83 17.79 153.86 17.85 153.98 17.85ZM152 18.12C151.82 18.24 151.82 18.3 152 18.3C152.18 18.3 152.18 18.24 152 18.12C152.18 18 152.21 17.91 152.09 17.85C151.97 17.73 151.94 17.82 152 18.12ZM158.39 17.85C158.45 18.09 158.48 18.09 158.48 17.85C158.48 17.61 158.45 17.61 158.39 17.85ZM151.73 18.93C151.91 18.99 152 18.84 152 18.48C151.82 18.42 151.76 18.48 151.82 18.66C151.88 18.78 151.85 18.87 151.73 18.93ZM150.83 19.74C151.25 19.44 151.37 19.11 151.19 18.75C151.13 18.93 151.07 19.08 151.01 19.2C150.95 19.32 150.89 19.5 150.83 19.74ZM158.93 19.02H159.11V18.84H158.93V19.02ZM153.53 19.2C153.41 19.2 153.38 19.23 153.44 19.29C153.5 19.29 153.53 19.26 153.53 19.2C153.65 19.14 153.68 19.11 153.62 19.11C153.56 19.05 153.53 19.08 153.53 19.2ZM151.55 19.47C151.67 19.71 151.73 19.71 151.73 19.47C151.73 19.23 151.67 19.23 151.55 19.47ZM151.37 19.83V20.01C151.49 20.13 151.55 20.1 151.55 19.92C151.61 19.74 151.58 19.68 151.46 19.74C151.46 19.8 151.43 19.83 151.37 19.83ZM150.65 21C150.59 20.82 150.65 20.61 150.83 20.37C151.07 20.13 151.04 19.95 150.74 19.83C150.86 20.13 150.83 20.37 150.65 20.55C150.47 20.73 150.47 20.88 150.65 21ZM158.48 20.37C158.42 20.67 158.42 20.7 158.48 20.46C158.54 20.16 158.54 20.13 158.48 20.37ZM151.28 20.46C151.22 20.58 151.19 20.64 151.19 20.64C151.19 20.58 151.19 20.52 151.19 20.46C151.25 20.4 151.28 20.37 151.28 20.37C151.34 20.31 151.34 20.34 151.28 20.46ZM151.19 21.18C151.19 21.12 151.22 21.09 151.28 21.09C151.28 20.91 151.19 20.85 151.01 20.91C151.07 20.97 151.07 21.03 151.01 21.09C151.01 21.15 151.07 21.18 151.19 21.18ZM150.2 21.9C150.32 21.9 150.41 21.81 150.47 21.63C150.53 21.45 150.5 21.3 150.38 21.18C150.32 21.3 150.29 21.42 150.29 21.54C150.35 21.66 150.32 21.78 150.2 21.9ZM152.81 21.36C152.75 21.66 152.72 21.69 152.72 21.45C152.78 21.15 152.81 21.12 152.81 21.36ZM150.74 22.8C150.8 22.68 150.86 22.5 150.92 22.26C150.98 22.02 150.95 21.84 150.83 21.72C150.89 21.96 150.86 22.17 150.74 22.35C150.62 22.53 150.62 22.68 150.74 22.8ZM149.39 24.42C149.09 25.32 148.76 26.4 148.4 27.66C148.04 28.86 147.8 29.88 147.68 30.72C147.86 30.3 148.04 29.82 148.22 29.28C148.4 28.68 148.58 28.11 148.76 27.57C148.94 26.97 149.09 26.4 149.21 25.86C149.33 25.26 149.39 24.78 149.39 24.42C149.57 24.12 149.75 23.76 149.93 23.34C150.17 22.86 150.26 22.41 150.2 21.99C149.96 22.23 149.78 22.62 149.66 23.16C149.6 23.64 149.51 24.06 149.39 24.42ZM152.54 22.26C152.42 22.44 152.42 22.47 152.54 22.35C152.72 22.17 152.72 22.14 152.54 22.26ZM150.47 23.16H150.38C150.26 23.7 150.14 24.15 150.02 24.51C149.9 24.81 149.81 25.23 149.75 25.77C149.93 25.53 150.08 25.17 150.2 24.69C150.38 24.15 150.47 23.64 150.47 23.16C150.59 23.1 150.62 23.07 150.56 23.07C150.5 23.07 150.47 23.1 150.47 23.16ZM150.92 23.16C150.86 23.46 150.86 23.49 150.92 23.25C150.98 22.95 150.98 22.92 150.92 23.16ZM152.27 23.88C152.21 23.82 152.18 23.76 152.18 23.7C152.24 23.58 152.21 23.52 152.09 23.52C152.03 23.58 152 23.67 152 23.79C152.06 23.85 152.15 23.88 152.27 23.88ZM156.14 25.68C156.08 25.56 156.02 25.53 155.96 25.59C155.96 25.65 156.02 25.68 156.14 25.68ZM148.31 30.72C148.67 29.94 148.94 29.16 149.12 28.38C149.3 27.6 149.54 26.79 149.84 25.95H149.57C149.39 26.91 149.15 27.75 148.85 28.47C148.61 29.19 148.43 29.94 148.31 30.72ZM151.28 26.49C151.46 26.55 151.52 26.52 151.46 26.4C151.46 26.22 151.49 26.1 151.55 26.04C151.43 25.98 151.37 26.04 151.37 26.22C151.43 26.34 151.4 26.43 151.28 26.49ZM150.92 27.93C150.98 27.93 151.07 27.78 151.19 27.48C151.01 27.42 150.92 27.45 150.92 27.57C150.98 27.69 150.98 27.81 150.92 27.93ZM150.65 29.19C150.71 29.07 150.74 28.98 150.74 28.92C150.74 28.8 150.71 28.71 150.65 28.65C150.71 28.77 150.68 28.89 150.56 29.01C150.44 29.07 150.47 29.13 150.65 29.19ZM155.06 29.46C154.94 29.64 154.94 29.67 155.06 29.55C155.24 29.37 155.24 29.34 155.06 29.46ZM150.38 29.64C150.32 29.94 150.32 29.97 150.38 29.73C150.44 29.43 150.44 29.4 150.38 29.64ZM153.89 31.98C153.89 32.1 153.89 32.13 153.89 32.07C153.95 32.01 153.95 31.98 153.89 31.98C153.89 31.86 153.95 31.8 154.07 31.8C154.19 31.74 154.22 31.62 154.16 31.44C154.04 31.44 153.86 31.44 153.62 31.44C153.38 31.38 153.2 31.44 153.08 31.62C153.32 31.74 153.32 31.8 153.08 31.8C152.84 31.8 152.81 32.01 152.99 32.43C153.11 32.43 153.2 32.37 153.26 32.25C153.32 32.13 153.47 32.13 153.71 32.25C153.71 32.19 153.77 32.1 153.89 31.98ZM151.37 31.98C151.37 31.86 151.25 31.74 151.01 31.62C150.77 31.74 150.59 31.8 150.47 31.8C150.35 31.74 150.23 31.77 150.11 31.89C150.35 31.83 150.47 31.92 150.47 32.16C150.53 32.34 150.71 32.4 151.01 32.34C151.13 32.22 151.13 32.13 151.01 32.07C150.89 31.95 150.89 31.86 151.01 31.8C151.07 31.92 151.1 32.01 151.1 32.07C151.16 32.07 151.19 32.13 151.19 32.25C151.37 32.37 151.58 32.37 151.82 32.25C152.12 32.07 152.18 31.86 152 31.62C152 31.92 151.94 32.01 151.82 31.89C151.7 31.71 151.55 31.56 151.37 31.44C151.25 31.56 151.25 31.68 151.37 31.8C151.55 31.86 151.55 31.92 151.37 31.98ZM160.46 32.79C160.64 32.97 160.7 32.97 160.64 32.79C160.64 32.61 160.58 32.61 160.46 32.79ZM153.35 32.97C153.41 32.97 153.44 33 153.44 33.06C153.44 33.06 153.47 33.06 153.53 33.06C153.53 32.82 153.47 32.73 153.35 32.79V32.97ZM172.43 33.6C172.43 33.42 172.37 33.33 172.25 33.33C172.25 33.57 172.31 33.66 172.43 33.6ZM171.8 33.6H171.98V33.42H171.8V33.6ZM165.59 33.87C165.65 33.75 165.62 33.69 165.5 33.69C165.44 33.69 165.38 33.63 165.32 33.51C165.32 33.75 165.41 33.87 165.59 33.87ZM166.4 33.78C166.46 33.96 166.49 33.96 166.49 33.78C166.49 33.54 166.46 33.54 166.4 33.78ZM151.19 41.7C151.31 41.64 151.34 41.58 151.28 41.52C151.28 41.4 151.34 41.28 151.46 41.16C151.28 41.34 151.19 41.31 151.19 41.07C151.37 40.77 151.55 40.47 151.73 40.17C151.97 39.81 152 39.39 151.82 38.91C151.94 38.85 152.03 38.85 152.09 38.91C152.15 38.91 152.24 38.85 152.36 38.73C152.42 38.31 152.48 37.89 152.54 37.47C152.66 37.05 152.81 36.72 152.99 36.48C152.87 36.42 152.78 36.24 152.72 35.94C152.72 35.64 152.84 35.46 153.08 35.4V35.58C152.96 35.58 152.93 35.64 152.99 35.76C153.11 35.88 153.14 35.82 153.08 35.58C153.2 35.46 153.26 35.25 153.26 34.95C153.26 34.65 153.2 34.44 153.08 34.32C152.96 34.38 152.84 34.41 152.72 34.41C152.6 34.35 152.45 34.35 152.27 34.41C152.03 35.67 151.67 36.81 151.19 37.83C150.71 38.79 150.41 39.78 150.29 40.8C149.99 41.4 149.69 42.06 149.39 42.78C149.09 43.5 148.88 44.28 148.76 45.12L148.49 44.85C148.37 45.09 148.37 45.33 148.49 45.57C148.61 45.81 148.61 45.96 148.49 46.02C148.37 46.08 148.31 46.02 148.31 45.84C148.37 45.66 148.31 45.63 148.13 45.75C147.95 46.83 147.65 47.79 147.23 48.63C146.81 49.47 146.45 50.4 146.15 51.42C146.39 51.3 146.51 51.24 146.51 51.24C146.51 51.24 146.63 51.3 146.87 51.42C147.23 50.28 147.68 49.17 148.22 48.09C148.76 47.01 149.21 45.96 149.57 44.94C149.69 44.94 149.72 45.03 149.66 45.21C149.6 45.39 149.63 45.45 149.75 45.39C149.75 45.21 149.81 45.12 149.93 45.12C149.99 44.88 149.93 44.76 149.75 44.76C149.63 44.76 149.6 44.64 149.66 44.4C149.78 44.46 149.87 44.52 149.93 44.58C149.99 44.58 150.08 44.52 150.2 44.4C150.08 44.22 150.02 44.01 150.02 43.77C150.02 43.47 150.17 43.44 150.47 43.68C150.65 43.38 150.62 43.23 150.38 43.23C150.2 43.17 150.14 42.99 150.2 42.69C150.32 42.69 150.38 42.75 150.38 42.87C150.38 42.93 150.41 42.96 150.47 42.96C150.65 42.78 150.65 42.66 150.47 42.6C150.35 42.48 150.35 42.36 150.47 42.24C150.59 42.3 150.65 42.36 150.65 42.42C150.71 42.42 150.8 42.45 150.92 42.51C150.92 42.33 150.95 42.21 151.01 42.15C151.07 42.03 151.13 41.88 151.19 41.7ZM149.21 34.59C148.43 37.11 147.8 39.6 147.32 42.06C146.84 44.46 146.18 46.86 145.34 49.26C145.52 49.68 145.46 50.07 145.16 50.43C144.92 50.79 144.95 51.09 145.25 51.33C146.33 48.51 147.38 45.69 148.4 42.87C149.48 39.99 150.44 37.2 151.28 34.5C150.8 34.38 150.41 34.38 150.11 34.5C149.81 34.62 149.51 34.65 149.21 34.59ZM144.89 40.8C144.59 41.28 144.32 41.85 144.08 42.51C143.9 43.11 143.93 43.65 144.17 44.13C144.65 42.69 145.04 41.13 145.34 39.45C145.7 37.77 146.09 36.27 146.51 34.95H146.15C145.91 36.15 145.64 37.14 145.34 37.92C145.1 38.64 144.95 39.6 144.89 40.8ZM146.6 36.21C146.78 36.15 146.93 35.97 147.05 35.67C147.17 35.31 147.14 35.1 146.96 35.04C146.84 35.28 146.75 35.52 146.69 35.76C146.69 35.94 146.66 36.09 146.6 36.21ZM146.15 38.73C146.21 38.25 146.36 37.8 146.6 37.38C146.84 36.9 146.81 36.54 146.51 36.3C146.57 36.78 146.45 37.23 146.15 37.65C145.91 38.01 145.91 38.37 146.15 38.73ZM145.79 39.18C146.03 39.24 146.09 39.21 145.97 39.09C145.85 38.97 145.79 39 145.79 39.18ZM145.79 39.72C145.91 39.78 145.97 39.72 145.97 39.54C145.97 39.3 145.91 39.24 145.79 39.36V39.72ZM145.79 40.08C145.85 40.32 145.88 40.35 145.88 40.17C145.88 39.93 145.85 39.9 145.79 40.08ZM145.25 42.42C145.13 42.42 145.1 42.45 145.16 42.51C145.22 42.51 145.25 42.48 145.25 42.42H145.34C145.46 42.18 145.52 41.94 145.52 41.7C145.52 41.4 145.55 41.13 145.61 40.89C145.43 41.01 145.31 41.25 145.25 41.61C145.19 41.91 145.19 42.18 145.25 42.42ZM144.89 44.13C144.83 43.83 144.86 43.59 144.98 43.41C145.16 43.17 145.16 42.93 144.98 42.69C144.92 42.87 144.83 43.14 144.71 43.5C144.65 43.8 144.71 44.01 144.89 44.13ZM144.53 45.12C144.53 44.94 144.59 44.76 144.71 44.58C144.83 44.4 144.77 44.28 144.53 44.22C144.53 44.34 144.5 44.49 144.44 44.67C144.38 44.79 144.41 44.94 144.53 45.12ZM142.28 51.6C142.22 51.66 142.19 51.72 142.19 51.78C142.25 51.84 142.22 51.87 142.1 51.87C141.98 51.57 141.89 51.54 141.83 51.78C141.83 52.02 141.92 52.05 142.1 51.87C142.22 52.23 142.19 52.38 142.01 52.32C141.83 52.2 141.71 52.2 141.65 52.32C141.71 52.38 141.77 52.41 141.83 52.41C141.89 52.41 141.95 52.44 142.01 52.5C141.71 53.22 141.44 53.91 141.2 54.57C141.02 55.23 140.99 55.89 141.11 56.55C140.93 56.67 140.84 56.82 140.84 57C140.84 57.18 140.81 57.45 140.75 57.81C140.63 57.93 140.57 58.14 140.57 58.44C140.51 58.68 140.54 58.92 140.66 59.16C140.54 59.04 140.45 59.01 140.39 59.07C140.33 59.13 140.33 59.22 140.39 59.34C140.57 59.34 140.66 59.37 140.66 59.43C140.66 59.61 140.6 59.76 140.48 59.88C140.3 59.94 140.18 60.06 140.12 60.24C140.18 60.3 140.27 60.33 140.39 60.33C140.45 60.27 140.48 60.3 140.48 60.42C140.3 60.42 140.18 60.51 140.12 60.69C140.06 60.81 140.15 60.9 140.39 60.96C140.27 61.08 140.15 61.26 140.03 61.5C139.85 61.68 139.88 61.83 140.12 61.95C140 61.65 140.06 61.47 140.3 61.41C140.54 61.29 140.57 61.14 140.39 60.96C140.39 60.84 140.42 60.81 140.48 60.87C140.48 60.87 140.51 60.87 140.57 60.87C140.87 58.83 141.17 57.15 141.47 55.83C141.77 54.51 142.04 53.1 142.28 51.6C142.58 50.22 142.91 48.99 143.27 47.91C143.69 46.83 143.87 45.63 143.81 44.31C143.63 44.61 143.51 45.06 143.45 45.66C143.39 46.2 143.27 46.62 143.09 46.92C143.33 47.16 143.3 47.4 143 47.64C142.7 47.88 142.67 48.15 142.91 48.45C142.79 48.51 142.7 48.48 142.64 48.36C142.64 48.24 142.64 48.3 142.64 48.54C142.76 48.72 142.79 48.96 142.73 49.26C142.67 49.5 142.58 49.77 142.46 50.07C142.34 50.37 142.22 50.67 142.1 50.97C141.98 51.21 141.95 51.42 142.01 51.6H142.28ZM143.99 46.92C144.11 46.62 144.2 46.41 144.26 46.29C144.32 46.17 144.29 45.99 144.17 45.75C144.23 45.99 144.17 46.2 143.99 46.38C143.87 46.56 143.87 46.74 143.99 46.92ZM149.39 46.02C149.51 45.9 149.51 45.81 149.39 45.75C149.39 45.81 149.36 45.87 149.3 45.93C149.24 45.99 149.27 46.02 149.39 46.02ZM149.12 46.83C149 47.01 149 47.04 149.12 46.92C149.3 46.74 149.3 46.71 149.12 46.83ZM143.72 47.91C143.84 47.91 143.9 47.85 143.9 47.73C143.9 47.61 143.93 47.49 143.99 47.37C143.81 47.31 143.72 47.49 143.72 47.91ZM143.63 48.18C143.87 48.3 143.93 48.3 143.81 48.18C143.69 48.06 143.63 48.06 143.63 48.18ZM143.18 50.25H143.09C143.09 50.55 143.03 50.79 142.91 50.97C142.79 51.09 142.79 51.3 142.91 51.6C142.67 51.78 142.55 52.08 142.55 52.5C142.55 52.86 142.49 53.19 142.37 53.49C142.67 53.25 142.79 52.95 142.73 52.59C142.73 52.23 142.79 51.9 142.91 51.6C143.09 51.48 143.15 51.3 143.09 51.06C143.09 50.82 143.12 50.55 143.18 50.25C143.36 50.13 143.45 49.89 143.45 49.53C143.51 49.17 143.51 48.87 143.45 48.63C143.39 48.93 143.33 49.26 143.27 49.62C143.21 49.92 143.18 50.13 143.18 50.25ZM145.97 51.96C145.97 51.9 146 51.87 146.06 51.87C146.12 51.81 146.09 51.75 145.97 51.69C145.97 51.75 145.94 51.81 145.88 51.87C145.82 51.93 145.85 51.96 145.97 51.96ZM145.88 52.77C145.94 53.01 145.97 53.01 145.97 52.77C145.97 52.53 145.94 52.53 145.88 52.77ZM142.28 54.3C142.4 54.48 142.46 54.48 142.46 54.3C142.46 54.06 142.4 54.06 142.28 54.3ZM141.83 56.82C141.83 56.58 141.92 56.28 142.1 55.92C142.28 55.56 142.31 55.23 142.19 54.93C142.13 55.23 142.01 55.56 141.83 55.92C141.71 56.22 141.71 56.52 141.83 56.82ZM141.47 58.98C141.53 58.68 141.62 58.38 141.74 58.08C141.92 57.78 141.89 57.48 141.65 57.18C141.59 57.54 141.5 57.87 141.38 58.17C141.32 58.41 141.35 58.68 141.47 58.98ZM138.95 68.34C138.89 68.64 138.95 68.73 139.13 68.61C139.25 68.43 139.19 68.34 138.95 68.34ZM139.04 69.6C139.1 69.48 139.16 69.39 139.22 69.33C139.22 69.21 139.13 69.12 138.95 69.06C139.01 69.18 139.01 69.3 138.95 69.42C138.89 69.54 138.92 69.6 139.04 69.6ZM139.85 69.6C140.09 69.66 140.15 69.63 140.03 69.51C139.91 69.39 139.85 69.42 139.85 69.6ZM138.95 70.05C138.95 69.93 138.98 69.87 139.04 69.87C139.1 69.81 139.07 69.75 138.95 69.69C138.95 69.81 138.92 69.9 138.86 69.96C138.8 69.96 138.83 69.99 138.95 70.05ZM139.85 70.05C139.97 70.29 140.03 70.32 140.03 70.14C139.97 69.9 139.91 69.87 139.85 70.05ZM139.67 70.77C139.85 70.89 139.97 70.86 140.03 70.68C140.03 70.44 139.97 70.32 139.85 70.32C139.85 70.44 139.82 70.53 139.76 70.59C139.7 70.59 139.67 70.65 139.67 70.77ZM138.86 71.13C139.16 71.13 139.31 70.98 139.31 70.68C139.01 70.68 138.86 70.83 138.86 71.13ZM139.67 72.84C139.61 73.14 139.61 73.17 139.67 72.93C139.73 72.63 139.73 72.6 139.67 72.84ZM139.58 73.29C139.7 73.47 139.76 73.47 139.76 73.29C139.76 73.05 139.7 73.05 139.58 73.29ZM138.86 74.1C138.8 74.04 138.8 73.95 138.86 73.83C138.92 73.65 138.89 73.56 138.77 73.56C138.71 73.68 138.68 73.8 138.68 73.92C138.62 74.04 138.68 74.1 138.86 74.1ZM139.67 74.64C139.67 74.52 139.7 74.37 139.76 74.19C139.76 74.01 139.67 73.95 139.49 74.01C139.55 74.13 139.58 74.25 139.58 74.37C139.52 74.49 139.55 74.58 139.67 74.64ZM139.04 74.82C138.98 74.58 139.01 74.43 139.13 74.37C139.19 74.25 139.13 74.16 138.95 74.1C139.01 74.28 139.01 74.43 138.95 74.55C138.83 74.67 138.86 74.76 139.04 74.82ZM139.58 75.9C139.7 75.48 139.7 75.15 139.58 74.91C139.52 74.97 139.49 75.12 139.49 75.36C139.43 75.6 139.46 75.78 139.58 75.9ZM138.95 75.09C139.01 75.33 139.04 75.33 139.04 75.09C139.04 74.85 139.01 74.85 138.95 75.09ZM138.95 75.9C138.89 76.14 138.92 76.2 139.04 76.08C139.16 75.96 139.13 75.9 138.95 75.9C138.89 75.78 138.92 75.69 139.04 75.63C139.16 75.57 139.13 75.51 138.95 75.45C138.95 75.51 138.92 75.54 138.86 75.54C138.8 75.54 138.77 75.57 138.77 75.63C138.83 75.69 138.86 75.75 138.86 75.81C138.8 75.87 138.83 75.9 138.95 75.9ZM139.58 77.7C139.52 77.4 139.52 77.1 139.58 76.8C139.64 76.5 139.61 76.26 139.49 76.08C139.55 76.44 139.55 76.74 139.49 76.98C139.37 77.22 139.4 77.46 139.58 77.7ZM139.04 76.8C139.04 76.74 139.07 76.62 139.13 76.44C139.13 76.32 139.07 76.26 138.95 76.26C138.83 76.38 138.8 76.5 138.86 76.62C138.86 76.74 138.92 76.8 139.04 76.8ZM138.86 77.34C138.8 77.7 138.8 77.73 138.86 77.43C138.92 77.19 138.92 77.16 138.86 77.34ZM139.49 77.88C139.37 78.42 139.4 78.69 139.58 78.69C139.7 78.75 139.67 78.48 139.49 77.88ZM161.99 4.97999C161.99 4.8 161.96 4.86 161.9 5.16C161.9 5.4 161.93 5.34 161.99 4.97999ZM161.81 5.79C161.93 5.61 161.99 5.61 161.99 5.79C162.05 5.97 161.99 5.97 161.81 5.79ZM160.46 7.49999V7.68C160.4 7.68 160.34 7.65 160.28 7.59C160.28 7.53 160.34 7.49999 160.46 7.49999ZM161.63 8.13C161.57 7.71 161.6 7.56 161.72 7.68C161.84 7.8 161.81 7.95 161.63 8.13ZM161.63 8.13C161.63 8.25 161.6 8.30999 161.54 8.30999C161.48 8.25 161.51 8.19 161.63 8.13ZM156.23 10.38H156.32C156.32 10.68 156.29 10.83 156.23 10.83V10.38ZM161.09 12.27C161.09 12.15 161.12 12.12 161.18 12.18C161.24 12.18 161.21 12.21 161.09 12.27ZM158.93 12.81C159.05 12.63 159.11 12.63 159.11 12.81C159.17 12.99 159.11 12.99 158.93 12.81ZM158.84 13.08C159.02 13.32 159.02 13.47 158.84 13.53C158.72 13.53 158.72 13.38 158.84 13.08ZM158.57 13.8C158.75 13.8 158.84 13.89 158.84 14.07C158.72 14.13 158.66 14.13 158.66 14.07C158.66 14.01 158.63 13.92 158.57 13.8ZM158.21 15.69C158.21 15.57 158.27 15.57 158.39 15.69C158.51 15.75 158.45 15.75 158.21 15.69ZM157.94 16.68C157.88 16.44 157.91 16.38 158.03 16.5C158.15 16.62 158.12 16.68 157.94 16.68ZM157.94 16.68C158 16.92 157.97 16.98 157.85 16.86C157.79 16.74 157.82 16.68 157.94 16.68ZM156.95 20.01C157.07 19.77 157.13 19.77 157.13 20.01C157.13 20.25 157.07 20.25 156.95 20.01ZM156.41 21.18H156.68V21.63H156.41V21.18ZM155.24 27.3H155.51V27.48C155.45 27.48 155.42 27.51 155.42 27.57C155.42 27.57 155.39 27.57 155.33 27.57H155.15V27.39C155.21 27.33 155.24 27.3 155.24 27.3ZM159.56 31.8C159.2 31.98 159.02 32.01 159.02 31.89C159.08 31.71 159.26 31.68 159.56 31.8ZM161.63 32.7C161.45 32.58 161.3 32.31 161.18 31.89C161.36 32.01 161.51 32.28 161.63 32.7ZM164.51 31.98C164.63 31.8 164.69 31.8 164.69 31.98C164.75 32.16 164.69 32.16 164.51 31.98ZM165.23 31.98C165.71 32.1 165.98 32.28 166.04 32.52C165.8 32.52 165.65 32.46 165.59 32.34C165.53 32.16 165.44 32.22 165.32 32.52C165.14 32.64 165.05 32.61 165.05 32.43C165.11 32.19 165.17 32.04 165.23 31.98ZM168.74 32.16C168.92 32.1 168.98 32.16 168.92 32.34C168.92 32.46 168.98 32.52 169.1 32.52C168.98 32.7 168.89 32.7 168.83 32.52C168.83 32.34 168.8 32.22 168.74 32.16ZM163.25 32.25C163.37 32.25 163.43 32.28 163.43 32.34C163.49 32.34 163.58 32.34 163.7 32.34C163.7 32.46 163.58 32.52 163.34 32.52C163.16 32.46 163.13 32.37 163.25 32.25ZM170.09 32.34C170.09 32.28 170.18 32.25 170.36 32.25V32.52C170.3 32.52 170.24 32.49 170.18 32.43C170.18 32.37 170.15 32.34 170.09 32.34ZM170.72 32.25C170.84 32.25 170.9 32.31 170.9 32.43C170.96 32.55 170.93 32.67 170.81 32.79C170.69 32.79 170.66 32.73 170.72 32.61C170.78 32.49 170.78 32.37 170.72 32.25ZM164.24 32.43C164.36 32.25 164.42 32.25 164.42 32.43C164.48 32.61 164.42 32.61 164.24 32.43ZM164.69 32.43C164.75 32.19 164.78 32.19 164.78 32.43C164.78 32.67 164.75 32.67 164.69 32.43ZM166.4 32.43C166.46 32.19 166.49 32.19 166.49 32.43C166.49 32.67 166.46 32.67 166.4 32.43ZM169.37 32.34C169.43 32.4 169.55 32.43 169.73 32.43C169.73 32.55 169.67 32.61 169.55 32.61C169.43 32.61 169.37 32.67 169.37 32.79C169.25 32.73 169.25 32.67 169.37 32.61C169.49 32.55 169.49 32.46 169.37 32.34ZM168.56 32.52C168.44 32.58 168.38 32.58 168.38 32.52C168.44 32.46 168.5 32.46 168.56 32.52ZM168.56 32.52C168.62 32.52 168.65 32.55 168.65 32.61C168.65 32.67 168.62 32.64 168.56 32.52ZM171.89 32.7C172.01 32.52 172.07 32.52 172.07 32.7C172.07 32.88 172.01 32.88 171.89 32.7ZM173.51 32.7C173.75 32.7 173.81 32.82 173.69 33.06C173.57 33.06 173.51 32.94 173.51 32.7ZM173.96 32.7C174.08 32.7 174.14 32.82 174.14 33.06C174.02 33.06 173.96 32.94 173.96 32.7ZM178.73 33.42C178.79 33.18 178.82 33.18 178.82 33.42C178.82 33.66 178.79 33.66 178.73 33.42ZM176.12 33.87C176.18 33.63 176.21 33.63 176.21 33.87C176.21 34.11 176.18 34.11 176.12 33.87ZM175.58 34.05C175.58 33.93 175.64 33.93 175.76 34.05C175.88 34.11 175.82 34.11 175.58 34.05ZM151.91 38.28C152.03 38.16 152.06 38.25 152 38.55C151.94 38.85 151.91 38.76 151.91 38.28ZM150.83 39.72C150.83 39.54 150.89 39.51 151.01 39.63C151.13 39.75 151.07 39.78 150.83 39.72ZM151.19 41.7C151.07 41.7 150.98 41.67 150.92 41.61C150.92 41.55 150.95 41.52 151.01 41.52C151.13 41.52 151.19 41.58 151.19 41.7ZM141.11 56.01C141.17 55.77 141.2 55.77 141.2 56.01C141.2 56.25 141.17 56.25 141.11 56.01ZM140.75 57.81C140.87 57.81 140.93 57.84 140.93 57.9C140.87 57.96 140.81 57.93 140.75 57.81ZM138.77 80.31V80.58C138.59 80.58 138.5 80.49 138.5 80.31H138.77ZM170.849 64.11C170.849 64.29 170.909 64.38 171.029 64.38C171.089 64.38 171.119 64.38 171.119 64.38C171.119 64.32 171.149 64.29 171.209 64.29C171.269 64.17 171.149 64.11 170.849 64.11C172.049 62.97 173.279 61.92 174.539 60.96C175.859 60 177.119 58.98 178.319 57.9C178.439 58.14 178.589 58.26 178.769 58.26C178.529 59.04 178.229 59.73 177.869 60.33C177.569 60.87 177.089 61.29 176.429 61.59C176.309 61.77 176.309 61.86 176.429 61.86C176.549 61.8 176.669 61.77 176.789 61.77C176.609 62.07 176.399 62.37 176.159 62.67C175.919 62.91 175.679 62.97 175.439 62.85C175.319 62.91 175.289 62.97 175.349 63.03C175.469 63.09 175.499 63.18 175.439 63.3C174.959 63.48 174.569 63.69 174.269 63.93C173.969 64.11 173.699 64.44 173.459 64.92C172.799 64.98 172.199 65.25 171.659 65.73C171.179 66.21 170.669 66.6 170.129 66.9C170.309 67.02 170.459 67.05 170.579 66.99C170.759 66.87 170.909 66.75 171.029 66.63C171.209 66.45 171.389 66.3 171.569 66.18C171.749 66 171.989 65.91 172.289 65.91C172.349 66.03 172.319 66.12 172.199 66.18C172.139 66.18 172.109 66.24 172.109 66.36C172.229 66.36 172.319 66.3 172.379 66.18C172.439 66.06 172.589 66.03 172.829 66.09C172.829 65.91 172.769 65.79 172.649 65.73C172.589 65.67 172.619 65.55 172.739 65.37C173.159 65.55 173.459 65.49 173.639 65.19C173.879 64.83 174.209 64.65 174.629 64.65V65.28C174.329 65.28 174.089 65.4 173.909 65.64C173.729 65.82 173.519 65.85 173.279 65.73C173.279 65.97 173.339 66.09 173.459 66.09C172.439 67.17 171.209 68.16 169.769 69.06C168.389 69.9 167.129 70.77 165.989 71.67C166.049 71.67 165.989 71.58 165.809 71.4C164.069 73.02 162.149 74.46 160.049 75.72C158.009 77.04 156.149 78.57 154.469 80.31C154.529 81.33 154.649 82.35 154.829 83.37C155.069 84.45 155.279 85.53 155.459 86.61C155.639 87.69 155.759 88.8 155.819 89.94C155.939 91.08 155.909 92.22 155.729 93.36C155.549 94.14 155.249 94.95 154.829 95.79C154.409 96.69 153.959 97.53 153.479 98.31C152.999 98.73 152.459 99.15 151.859 99.57C151.259 99.99 150.599 100.35 149.879 100.65C149.159 100.95 148.409 101.13 147.629 101.19C146.849 101.31 146.039 101.22 145.199 100.92C143.999 100.2 143.069 99.21 142.409 97.95C141.749 96.69 141.209 95.31 140.789 93.81C140.669 93.15 140.609 92.58 140.609 92.1C140.549 91.62 140.609 91.11 140.789 90.57C141.809 87.87 143.249 85.5 145.109 83.46C146.969 81.42 148.889 79.41 150.869 77.43C150.929 76.95 150.929 76.47 150.869 75.99C150.749 75.51 150.719 75 150.779 74.46H151.139C150.899 72.9 150.869 71.28 151.049 69.6C151.229 67.86 151.349 65.94 151.409 63.84C151.769 63.06 152.099 62.31 152.399 61.59C152.699 60.81 153.029 60.09 153.389 59.43C153.689 58.71 154.049 58.05 154.469 57.45C154.949 56.85 155.519 56.31 156.179 55.83C157.019 56.19 157.799 56.64 158.519 57.18C159.299 57.72 159.539 58.5 159.239 59.52C158.639 59.46 158.189 59.55 157.889 59.79C157.589 59.97 157.289 60.18 156.989 60.42C155.669 63.06 154.799 65.52 154.379 67.8C154.019 70.08 153.989 72.69 154.289 75.63C156.089 74.43 157.889 73.17 159.689 71.85C161.549 70.47 163.379 69.27 165.179 68.25C165.179 68.13 165.149 68.07 165.089 68.07C165.029 68.07 165.029 68.01 165.089 67.89C165.629 67.71 166.049 67.44 166.349 67.08C166.649 66.66 167.159 66.42 167.879 66.36C167.879 66.24 167.849 66.18 167.789 66.18C167.729 66.12 167.759 66.06 167.879 66C168.059 66 168.089 66.03 167.969 66.09C167.909 66.15 167.909 66.24 167.969 66.36C168.509 65.94 168.929 65.52 169.229 65.1C169.589 64.68 170.129 64.35 170.849 64.11ZM177.059 59.88C176.999 59.7 176.999 59.61 177.059 59.61C177.179 59.55 177.239 59.46 177.239 59.34C177.059 59.28 176.939 59.34 176.879 59.52C176.819 59.7 176.879 59.82 177.059 59.88ZM176.429 60.06C176.309 60.24 176.309 60.27 176.429 60.15C176.609 59.97 176.609 59.94 176.429 60.06ZM175.979 60.42C175.859 60.48 175.829 60.51 175.889 60.51C175.949 60.51 175.979 60.48 175.979 60.42C176.039 60.36 176.039 60.33 175.979 60.33C175.979 60.27 175.979 60.3 175.979 60.42ZM176.699 60.69C176.819 60.75 176.909 60.72 176.969 60.6C177.089 60.48 177.089 60.42 176.969 60.42C176.909 60.54 176.819 60.6 176.699 60.6C176.639 60.54 176.639 60.57 176.699 60.69ZM175.979 61.14C175.979 61.32 176.009 61.44 176.069 61.5C175.769 61.62 175.529 61.74 175.349 61.86C175.229 61.98 175.079 62.19 174.899 62.49C175.379 62.37 175.739 62.13 175.979 61.77C176.219 61.41 176.399 61.17 176.519 61.05C176.459 60.93 176.369 60.93 176.249 61.05C176.189 61.11 176.099 61.14 175.979 61.14ZM174.449 61.59C174.209 61.71 173.969 61.86 173.729 62.04C173.549 62.16 173.399 62.34 173.279 62.58C173.519 62.46 173.729 62.34 173.909 62.22C174.149 62.04 174.329 61.83 174.449 61.59C174.569 61.65 174.659 61.62 174.719 61.5C174.779 61.38 174.749 61.29 174.629 61.23C174.629 61.35 174.599 61.41 174.539 61.41C174.479 61.41 174.449 61.47 174.449 61.59ZM174.629 62.67C174.749 62.91 174.809 62.91 174.809 62.67C174.809 62.43 174.749 62.43 174.629 62.67ZM173.549 63.66C173.669 63.54 173.789 63.54 173.909 63.66C174.029 63.72 174.179 63.72 174.359 63.66C174.179 63.42 174.119 63.27 174.179 63.21C174.299 63.15 174.389 63 174.449 62.76C174.269 62.88 174.029 63 173.729 63.12C173.489 63.24 173.429 63.42 173.549 63.66ZM171.659 63.75C171.539 63.81 171.509 63.84 171.569 63.84C171.629 63.84 171.659 63.81 171.659 63.75C171.839 63.69 171.989 63.63 172.109 63.57C172.229 63.45 172.349 63.33 172.469 63.21C172.349 63.09 172.199 63.12 172.019 63.3C171.839 63.48 171.719 63.63 171.659 63.75ZM172.739 63.93C172.859 63.99 172.919 64.08 172.919 64.2C172.979 64.32 173.099 64.35 173.279 64.29C173.279 64.11 173.219 64.02 173.099 64.02C173.039 63.96 172.949 63.87 172.829 63.75C172.829 63.81 172.799 63.84 172.739 63.84C172.739 63.84 172.739 63.87 172.739 63.93ZM171.209 65.19C171.569 65.25 171.839 65.13 172.019 64.83C172.199 64.47 172.439 64.44 172.739 64.74C172.739 64.38 172.679 64.17 172.559 64.11C172.439 64.05 172.289 64.08 172.109 64.2C171.929 64.32 171.749 64.5 171.569 64.74C171.389 64.92 171.269 65.07 171.209 65.19ZM170.129 64.83C170.249 64.83 170.369 64.77 170.489 64.65C170.249 64.65 170.129 64.71 170.129 64.83ZM169.769 65.01C169.589 64.89 169.499 64.92 169.499 65.1C169.559 65.28 169.649 65.25 169.769 65.01ZM170.309 65.91C169.889 65.91 169.619 66.12 169.499 66.54C168.899 66.6 168.419 66.78 168.059 67.08C167.699 67.32 167.369 67.59 167.069 67.89C167.249 68.01 167.369 68.04 167.429 67.98C167.549 67.92 167.669 67.95 167.789 68.07C167.969 67.41 168.509 66.99 169.409 66.81C169.169 67.29 168.869 67.71 168.509 68.07C168.209 68.37 167.849 68.67 167.429 68.97C167.009 69.21 166.589 69.48 166.169 69.78C165.809 70.02 165.479 70.35 165.179 70.77C165.839 70.35 166.499 69.96 167.159 69.6C167.879 69.18 168.509 68.67 169.049 68.07C168.929 67.95 168.839 67.98 168.779 68.16C168.719 68.34 168.659 68.34 168.599 68.16C168.779 67.98 169.079 67.86 169.499 67.8C169.979 67.68 170.159 67.47 170.039 67.17C169.979 67.41 169.889 67.47 169.769 67.35C169.649 67.23 169.589 67.11 169.589 66.99C169.709 66.87 169.889 66.72 170.129 66.54C170.369 66.36 170.429 66.15 170.309 65.91C170.549 65.91 170.729 65.82 170.849 65.64C170.969 65.46 171.089 65.43 171.209 65.55C171.149 65.25 170.999 65.16 170.759 65.28C170.519 65.4 170.339 65.49 170.219 65.55C170.219 65.67 170.219 65.73 170.219 65.73C170.279 65.73 170.309 65.79 170.309 65.91ZM170.669 66C170.729 66.24 170.759 66.24 170.759 66C170.759 65.76 170.729 65.76 170.669 66ZM172.919 66C173.039 66.24 173.099 66.24 173.099 66C173.099 65.76 173.039 65.76 172.919 66ZM166.259 67.53C166.439 67.53 166.559 67.47 166.619 67.35C166.679 67.23 166.769 67.11 166.889 66.99C166.469 67.11 166.259 67.29 166.259 67.53ZM168.419 67.62H168.599V67.44H168.419V67.62ZM165.449 67.98C165.689 68.04 165.749 68.01 165.629 67.89C165.569 67.77 165.509 67.8 165.449 67.98ZM166.439 68.43C166.859 68.43 167.039 68.28 166.979 67.98C166.619 67.98 166.439 68.13 166.439 68.43ZM167.339 68.25C167.399 68.43 167.429 68.43 167.429 68.25C167.489 68.07 167.459 68.07 167.339 68.25ZM157.619 75.99C157.919 75.93 158.099 75.78 158.159 75.54C158.219 75.3 158.369 75.12 158.609 75C158.669 75.12 158.639 75.21 158.519 75.27C158.399 75.33 158.429 75.39 158.609 75.45C158.609 75.33 158.669 75.27 158.789 75.27C158.909 75.27 158.939 75.18 158.879 75H158.609C158.729 74.82 158.699 74.64 158.519 74.46C158.399 74.28 158.519 74.16 158.879 74.1C158.999 74.22 159.029 74.31 158.969 74.37C158.909 74.43 158.849 74.52 158.789 74.64C159.149 74.46 159.269 74.55 159.149 74.91C159.629 74.67 160.019 74.4 160.319 74.1C160.679 73.74 161.099 73.47 161.579 73.29C161.579 73.11 161.489 73.02 161.309 73.02C161.129 72.96 161.009 72.87 160.949 72.75C161.189 72.39 161.429 72.21 161.669 72.21C161.729 72.33 161.669 72.45 161.489 72.57C161.309 72.63 161.309 72.72 161.489 72.84C162.089 72.96 162.539 72.81 162.839 72.39C163.139 71.91 163.559 71.61 164.099 71.49C163.979 71.31 163.979 71.16 164.099 71.04C164.279 70.86 164.369 70.62 164.369 70.32C164.669 70.26 165.029 70.05 165.449 69.69C165.929 69.33 166.229 69.03 166.349 68.79C166.349 68.91 166.289 68.97 166.169 68.97C166.109 68.97 166.049 68.91 165.989 68.79C165.989 68.67 166.049 68.61 166.169 68.61C166.349 68.61 166.409 68.55 166.349 68.43C165.989 68.61 165.629 68.79 165.269 68.97C164.909 69.09 164.669 69.33 164.549 69.69C164.549 69.81 164.579 69.84 164.639 69.78C164.759 69.72 164.819 69.75 164.819 69.87C164.699 69.93 164.609 69.99 164.549 70.05C164.489 70.11 164.369 70.14 164.189 70.14C163.889 69.9 163.409 70.02 162.749 70.5C162.149 70.92 161.729 71.31 161.489 71.67C161.609 71.67 161.729 71.67 161.849 71.67C161.969 71.61 162.029 71.64 162.029 71.76C161.909 71.76 161.849 71.79 161.849 71.85C161.849 71.91 161.789 71.94 161.669 71.94C161.549 71.88 161.429 71.82 161.309 71.76C161.249 71.7 161.129 71.7 160.949 71.76C160.829 71.88 160.709 72.09 160.589 72.39C160.529 72.63 160.439 72.69 160.319 72.57C160.319 72.45 160.349 72.39 160.409 72.39C160.529 72.39 160.559 72.33 160.499 72.21C160.079 72.45 159.539 72.78 158.879 73.2C158.279 73.56 158.099 73.95 158.339 74.37C157.619 74.07 157.079 74.22 156.719 74.82C156.359 75.36 156.179 75.96 156.179 76.62C156.419 76.68 156.509 76.59 156.449 76.35C156.449 76.17 156.569 76.11 156.809 76.17C156.809 76.29 156.779 76.38 156.719 76.44C156.719 76.5 156.809 76.56 156.989 76.62C157.109 76.5 157.199 76.38 157.259 76.26C157.319 76.2 157.439 76.17 157.619 76.17V75.99ZM166.709 68.61C166.589 68.79 166.589 68.82 166.709 68.7C166.889 68.52 166.889 68.49 166.709 68.61ZM167.429 68.7C167.309 68.88 167.309 68.91 167.429 68.79C167.609 68.61 167.609 68.58 167.429 68.7ZM164.639 70.95C164.519 71.13 164.519 71.16 164.639 71.04C164.819 70.86 164.819 70.83 164.639 70.95ZM151.229 77.25C151.289 76.95 151.319 76.59 151.319 76.17C151.259 75.81 151.169 75.48 151.049 75.18C151.109 75.6 151.139 75.96 151.139 76.26C151.079 76.62 151.109 76.95 151.229 77.25ZM155.459 75.81H155.639V75.63H155.459V75.81ZM154.469 76.26C154.409 76.68 154.469 76.95 154.649 77.07C154.889 77.19 154.859 77.4 154.559 77.7C154.799 77.64 154.919 77.73 154.919 77.97C155.219 77.85 155.549 77.64 155.909 77.34C156.269 77.1 156.479 76.86 156.539 76.62C156.419 76.74 156.329 76.83 156.269 76.89C156.209 76.95 156.119 77.01 155.999 77.07C155.999 76.59 155.909 76.26 155.729 76.08C155.609 76.2 155.579 76.29 155.639 76.35C155.759 76.47 155.759 76.59 155.639 76.71C155.579 76.71 155.519 76.65 155.459 76.53C155.459 76.41 155.429 76.44 155.369 76.62C155.489 76.68 155.489 76.8 155.369 76.98C155.309 77.16 155.219 77.25 155.099 77.25C155.099 77.13 155.039 77.01 154.919 76.89C154.859 76.83 154.829 76.74 154.829 76.62C154.949 76.56 155.039 76.44 155.099 76.26C155.159 76.08 155.249 75.93 155.369 75.81C155.129 75.87 154.949 75.93 154.829 75.99C154.769 76.11 154.649 76.2 154.469 76.26ZM150.149 79.23C149.969 79.17 149.819 79.26 149.699 79.5C149.819 79.5 149.969 79.41 150.149 79.23C150.329 79.23 150.479 79.11 150.599 78.87C150.419 78.87 150.269 78.99 150.149 79.23ZM149.249 80.13C149.249 80.07 149.309 80.04 149.429 80.04C149.489 80.04 149.519 79.98 149.519 79.86H149.159C149.159 80.04 149.189 80.13 149.249 80.13ZM147.539 81.39V81.57H147.899V81.21H147.629C147.629 81.33 147.599 81.39 147.539 81.39ZM146.369 83.1H146.549C146.549 83.16 146.609 83.19 146.729 83.19C146.669 82.89 146.729 82.68 146.909 82.56C147.089 82.5 147.209 82.35 147.269 82.11C146.729 82.35 146.429 82.68 146.369 83.1ZM144.029 96.6C144.449 96.9 144.899 97.05 145.379 97.05C145.859 97.11 146.369 97.05 146.909 96.87C147.389 96.75 147.899 96.57 148.439 96.33C148.919 96.09 149.339 95.88 149.699 95.7C150.539 95.1 151.229 94.26 151.769 93.18C152.249 92.16 152.579 91.02 152.759 89.76C152.939 88.56 152.999 87.3 152.939 85.98C152.819 84.66 152.609 83.43 152.309 82.29C152.309 82.23 152.279 82.2 152.219 82.2C151.319 83.1 150.419 84.03 149.519 84.99C148.559 85.95 147.689 87 146.909 88.14C146.069 89.28 145.379 90.54 144.839 91.92C144.299 93.3 144.029 94.86 144.029 96.6ZM146.279 83.28C146.159 83.46 146.189 83.46 146.369 83.28C146.489 83.16 146.459 83.16 146.279 83.28ZM144.839 84.9C145.139 84.78 145.439 84.57 145.739 84.27C145.979 83.97 146.039 83.67 145.919 83.37C145.799 83.67 145.619 83.91 145.379 84.09C145.139 84.27 144.959 84.54 144.839 84.9ZM143.669 86.61C143.969 86.55 144.179 86.28 144.299 85.8C144.059 85.8 143.939 85.89 143.939 86.07C143.879 86.31 143.789 86.49 143.669 86.61ZM143.219 86.97C143.519 87.09 143.579 87.15 143.399 87.15C143.219 87.21 143.129 87.33 143.129 87.51C143.369 87.51 143.519 87.42 143.579 87.24C143.579 87.12 143.609 86.97 143.669 86.79C143.369 86.67 143.219 86.73 143.219 86.97ZM142.949 87.96C143.129 87.96 143.219 87.87 143.219 87.69C143.099 87.75 143.009 87.78 142.949 87.78C142.889 87.78 142.889 87.84 142.949 87.96ZM142.409 88.95C142.529 89.01 142.619 88.92 142.679 88.68C142.679 88.44 142.619 88.35 142.499 88.41C142.559 88.53 142.559 88.62 142.499 88.68C142.379 88.74 142.349 88.83 142.409 88.95ZM177.059 62.67C176.999 62.85 176.909 62.97 176.789 63.03C176.669 63.09 176.549 63.18 176.429 63.3C176.309 63 176.339 62.85 176.519 62.85C176.759 62.85 176.939 62.79 177.059 62.67ZM176.429 63.57C176.309 63.93 176.099 64.2 175.799 64.38C175.559 64.5 175.259 64.62 174.899 64.74C174.719 64.32 174.839 64.05 175.259 63.93C175.679 63.81 176.069 63.69 176.429 63.57ZM165.269 69.33C165.449 69.21 165.449 69.24 165.269 69.42C165.149 69.54 165.149 69.51 165.269 69.33ZM164.189 70.68C164.189 70.86 164.039 70.98 163.739 71.04C163.439 71.1 163.379 71.22 163.559 71.4C163.559 71.52 163.469 71.58 163.289 71.58C163.109 71.52 163.079 71.58 163.199 71.76C162.899 71.52 162.929 71.31 163.289 71.13C163.649 70.95 163.949 70.8 164.189 70.68ZM162.749 70.95C162.869 70.77 162.929 70.77 162.929 70.95C162.929 71.13 162.869 71.13 162.749 70.95ZM160.949 71.94H161.129V72.21H160.949V71.94ZM159.869 72.93C159.749 73.23 159.569 73.47 159.329 73.65C159.149 73.77 158.939 73.89 158.699 74.01C158.939 73.59 159.329 73.23 159.869 72.93ZM160.229 73.83C160.109 73.95 159.989 74.01 159.869 74.01C159.809 73.89 159.929 73.83 160.229 73.83ZM157.349 74.73C157.469 74.61 157.529 74.58 157.529 74.64C157.529 74.64 157.499 74.67 157.439 74.73C157.379 74.79 157.319 74.85 157.259 74.91C157.199 74.91 157.229 74.85 157.349 74.73ZM157.889 74.91C157.889 74.91 157.949 74.94 158.069 75V75.18C157.949 75.06 157.859 75.03 157.799 75.09C157.799 75.21 157.739 75.21 157.619 75.09C157.619 74.97 157.649 74.94 157.709 75C157.829 75.06 157.889 75.03 157.889 74.91ZM156.629 75.54V75.18C156.869 75.18 156.929 75.33 156.809 75.63C156.749 75.63 156.719 75.6 156.719 75.54C156.719 75.54 156.689 75.54 156.629 75.54ZM157.619 75.99C157.499 75.93 157.349 75.81 157.169 75.63C157.049 75.51 157.079 75.39 157.259 75.27C157.499 75.33 157.619 75.57 157.619 75.99ZM156.629 75.54C156.629 75.6 156.599 75.63 156.539 75.63C156.539 75.69 156.539 75.75 156.539 75.81C156.419 75.87 156.359 75.81 156.359 75.63C156.419 75.45 156.509 75.42 156.629 75.54Z" fill="#590C28"/>
</svg>
