<svg width="1600" height="17" viewBox="0 0 1600 17" fill="none" xmlns="http://www.w3.org/2000/svg">
<path fill-rule="evenodd" clip-rule="evenodd" d="M49.6644 17H-15L20.0266 0.581299L52.3588 15.737L84.691 0.581299L117.023 15.737L149.355 0.581299L181.688 15.737L214.02 0.581299L246.352 15.7371L278.685 0.581299L311.017 15.737L343.349 0.581299L375.681 15.737L408.013 0.581299L440.345 15.7371L472.678 0.581299L505.01 15.737L537.342 0.581299L569.674 15.737L602.007 0.581299L634.339 15.7371L666.671 0.581299L699.003 15.7371L731.336 0.581299L763.668 15.737L796 0.581299L828.332 15.7371L860.664 0.581299L892.997 15.7371L925.329 0.581299L957.661 15.7371L989.994 0.581299L1022.33 15.737L1054.66 0.581299L1086.99 15.7371L1119.32 0.581299L1151.65 15.7371L1183.99 0.581299L1216.32 15.737L1248.65 0.581299L1280.98 15.7371L1313.32 0.581299L1345.65 15.7371L1377.98 0.581299L1410.31 15.7371L1442.64 0.581299L1474.98 15.737L1507.31 0.581299L1539.64 15.7371L1571.97 0.581299L1607 17H1542.34H1536.95H1477.67H1472.28H1413.01H1407.62H1348.34H1342.95H1283.68H1278.29H1219.01H1213.62H1154.35H1148.96H1089.68H1084.3H1025.02H1019.63H960.356H954.967H895.691H890.302H831.026H825.638H766.362H760.973H701.698H696.309H637.033H631.645H572.369H566.98H507.704H502.316H443.04H437.651H378.375H372.987H313.711H308.322H249.046H243.658H184.382H178.993H119.718H114.329H55.0532H49.6644Z" fill="#FFF8ED"/>
</svg>
