<svg width="167" height="190" viewBox="0 0 167 190" fill="none" xmlns="http://www.w3.org/2000/svg">
<path d="M146.697 53.2279C146.274 50.605 145.159 49.1779 144.236 48.0208C143.813 47.5194 143.467 47.0565 143.236 46.5937C142.429 44.9737 142.236 43.8551 142.083 43.0837C141.967 42.4666 141.89 42.0809 141.621 41.6952L142.813 40.8852C143.275 41.5409 143.39 42.1195 143.505 42.8137C143.659 43.5852 143.813 44.5109 144.544 45.9765C144.697 46.3237 145.005 46.7094 145.39 47.1722C146.351 48.4065 147.658 50.0651 148.158 53.035L146.697 53.2279ZM157.118 50.5279C155.541 47.4808 155.156 44.7809 154.964 42.9295C154.887 42.2737 154.81 41.6566 154.695 41.1166C154.08 38.2238 153.426 36.6038 152.734 36.3338C151.926 35.9867 150.888 35.9481 150.888 35.9481H150.773L150.658 35.9096C150.658 35.9096 149.927 35.601 149.158 35.4467C147.927 35.2153 147.235 35.6396 147.197 35.6396L146.851 35.8324C146.735 35.7553 145.774 35.2153 144.697 35.1381C143.582 35.061 140.775 34.9839 138.776 36.6038L137.314 35.9867C139.814 33.3639 143.621 33.5953 144.813 33.6724C145.889 33.7496 146.543 33.981 146.928 34.1739C147.427 33.981 148.312 33.7882 149.465 34.0196C150.196 34.1739 150.85 34.4053 151.119 34.4824C151.465 34.521 152.465 34.5981 153.349 34.9453C154.618 35.4467 155.426 37.1438 156.195 40.7695C156.31 41.3866 156.387 42.0423 156.464 42.7366C156.656 44.588 157.118 46.9408 158.54 49.7179L157.118 50.5279Z" fill="#EDEBEE"/>
<path d="M141.66 39.4194C94.4398 14.9269 68.0228 1.54283 67.5229 1.31141L68.1766 0C68.7919 0.308567 109.359 21.0211 142.313 38.108L141.66 39.4194Z" fill="#EDEBEE"/>
<path d="M70.0225 115.288H68.5613C68.5997 109.194 69.0996 104.874 70.3301 99.9758L71.7144 100.323C70.5224 105.106 70.0225 109.31 70.0225 115.288Z" fill="#EDEBEE"/>
<path d="M33.8 115.906C33.6846 115.906 33.5308 115.867 33.4154 115.828C32.7617 115.558 32.4926 114.671 32.0696 113.128C31.5313 111.239 30.7622 108.423 28.9549 106.263C27.4937 104.527 25.8403 104.103 24.7251 103.794C23.9561 103.601 23.3408 103.409 23.187 102.791C22.9179 101.673 23.6869 100.747 44.759 91.7217C46.9123 90.796 48.6427 90.0631 49.5271 89.6388C52.3726 88.3274 55.3335 86.1675 59.1018 83.4289C60.7553 82.2332 62.6395 80.8447 64.639 79.4176C66.7155 77.9904 68.1382 76.8333 69.2918 75.9076C71.5605 74.0562 72.9448 72.9762 76.2133 72.0891C79.9816 71.0862 82.2503 71.3948 84.8267 71.742C85.8264 71.8577 86.8262 72.0119 88.0567 72.0891C89.9793 72.1277 90.9022 71.5877 91.1714 71.0863C91.3636 70.7005 91.2098 70.1605 90.7099 69.6206C90.1331 68.9649 89.5179 68.6177 88.9411 68.2706C88.0182 67.7306 87.0185 67.1906 86.8262 65.5706C86.5186 63.4106 87.6337 62.6778 88.3259 62.1764C88.6719 61.945 88.9026 61.7907 88.9796 61.5592C89.018 61.4435 88.9796 61.3278 88.8642 61.0193C88.7104 60.7107 88.4797 60.2478 88.6719 59.7078C88.7873 59.3221 88.7873 59.1293 88.7104 58.2036V58.0493C88.6719 57.5864 88.7104 57.2393 88.9411 57.0079C88.9411 56.8922 88.9026 56.6993 88.7873 56.275C88.2105 54.0765 90.8637 52.9965 92.9786 52.148C93.1709 52.0708 93.4016 51.9937 93.5939 51.9165C93.863 51.8008 93.9784 51.7237 94.0169 51.6851C94.0169 51.608 93.9784 51.5308 93.9399 51.4537C93.8246 51.1065 93.6708 50.528 93.7477 49.7951C93.9015 47.9052 98.9004 43.8167 100.438 42.621C101.284 41.9267 101.246 41.271 101.092 39.8824C100.938 38.4939 100.746 36.5653 102.053 34.1739C103.015 32.4768 104.899 32.6311 106.399 32.7468C107.014 32.7854 107.552 32.8625 107.975 32.7854C109.667 32.554 113.166 32.6311 115.512 34.4825C116.589 35.3311 116.819 35.3696 117.819 35.6011C118.588 35.7553 119.703 35.9868 121.78 36.681C125.164 37.7996 126.009 38.9182 127.009 40.191C127.509 40.8081 128.009 41.4638 128.893 42.1967C130.701 43.7009 130.624 45.7066 130.585 47.3266C130.547 48.4452 130.508 49.448 131.085 50.0266C132.508 51.4923 132.008 53.8065 131.585 55.8893C131.393 56.8536 131.201 57.7793 131.201 58.435C131.239 59.7464 131.008 60.4793 130.739 61.2507C130.508 61.9064 130.278 62.5621 130.201 63.7964C130.047 66.0335 129.278 67.0363 128.201 68.3863C127.855 68.8491 127.432 69.3506 127.009 70.0063C126.548 70.662 126.202 71.742 125.856 72.7834C125.279 74.5191 124.741 76.0233 123.702 76.4476L123.164 75.0976C123.587 74.9048 124.125 73.3619 124.51 72.3205C124.894 71.1634 125.279 70.0063 125.856 69.1963C126.317 68.5406 126.74 68.0006 127.125 67.4992C128.124 66.2263 128.701 65.4935 128.817 63.6806C128.932 62.2535 129.201 61.4821 129.432 60.7493C129.662 60.055 129.855 59.515 129.816 58.4736C129.778 57.625 130.009 56.6222 130.201 55.5422C130.585 53.7679 130.97 51.9165 130.085 50.9908C129.086 49.988 129.163 48.5994 129.201 47.2495C129.24 45.7452 129.278 44.3181 128.009 43.2767C127.009 42.4281 126.432 41.6953 125.933 41.0781C125.01 39.921 124.356 39.0724 121.395 38.0696C119.396 37.4139 118.319 37.1825 117.588 37.0282C116.435 36.7968 115.935 36.6425 114.666 35.6396C112.666 34.0968 109.59 34.0582 108.206 34.2511C107.629 34.3282 106.937 34.2897 106.283 34.2125C104.745 34.0968 103.745 34.0582 103.322 34.9068C102.207 36.9125 102.4 38.4167 102.553 39.7667C102.707 41.1553 102.861 42.5438 101.4 43.7781C98.4774 46.0923 95.3242 49.1394 95.2473 49.9494C95.2089 50.4508 95.3242 50.798 95.4012 51.1065C95.6703 52.0708 95.555 52.7265 94.1707 53.3051C93.9784 53.3822 93.7477 53.4594 93.5554 53.5751C91.9404 54.2308 89.9409 55.0408 90.21 56.005C90.4408 56.9693 90.5177 57.4707 90.1716 57.895C90.1716 57.9336 90.1716 57.9722 90.1716 58.0107V58.165C90.2485 59.1293 90.3254 59.5536 90.0947 60.2478C90.0947 60.325 90.1716 60.4407 90.21 60.5178C90.3639 60.865 90.6715 61.4435 90.4023 62.1764C90.1716 62.8321 89.6717 63.1792 89.2103 63.4492C88.5566 63.9121 88.1336 64.1821 88.3259 65.4549C88.4412 66.3035 88.8257 66.5735 89.7486 67.0749C90.3638 67.422 91.1329 67.8849 91.8635 68.6949C92.7479 69.6591 92.9786 70.7777 92.5557 71.7034C91.9789 72.9376 90.3639 73.6319 88.0951 73.5548H88.0567C86.7878 73.4776 85.6726 73.3234 84.7113 73.2076C82.1734 72.8605 80.1739 72.5905 76.6362 73.5162C73.6369 74.2876 72.5218 75.2133 70.2531 77.0647C69.0995 77.9904 67.6383 79.1861 65.5234 80.6518C63.5239 82.0404 61.7166 83.3518 59.9862 84.6246C56.1794 87.4403 53.1417 89.6388 50.1808 90.9888C49.2579 91.4131 47.566 92.1459 45.3742 93.0716C39.9524 95.3859 27.9552 100.554 25.1097 102.406C25.1097 102.406 25.1097 102.406 25.1481 102.406C26.3401 102.714 28.3397 103.293 30.1085 105.337C32.108 107.729 32.954 110.737 33.4923 112.743C33.6462 113.283 33.8384 113.938 33.9922 114.324C39.9908 110.969 52.5649 106.186 56.6793 104.797C62.8702 102.753 71.1375 99.4744 74.2137 96.9673L75.1366 98.0859C71.0222 101.442 59.4479 105.414 57.1792 106.147C53.1801 107.497 40.1062 112.473 34.4152 115.751C34.146 115.867 33.9538 115.906 33.8 115.906Z" fill="#EDEBEE"/>
<path d="M134.392 77.4117C133.623 77.4117 132.739 77.1417 131.431 76.4474H131.393C130.508 75.9074 129.585 75.6374 128.778 75.7146C127.586 75.7917 126.509 75.9846 125.433 76.1774C125.317 76.216 125.24 76.216 125.125 76.216C119.319 76.8331 117.204 75.7917 114.781 74.596C112.858 73.6703 110.705 72.6289 106.091 72.0889C104.091 71.8575 100.631 72.2046 98.7463 72.6289L98.4387 71.2018C100.477 70.739 104.091 70.3918 106.245 70.6618C111.09 71.2018 113.358 72.3204 115.396 73.2846C117.742 74.4032 119.549 75.3289 124.971 74.7503C125.01 74.7503 125.048 74.7503 125.086 74.7117H125.125C126.163 74.5189 127.355 74.2875 128.624 74.2103C129.739 74.1332 130.931 74.4417 132.046 75.136C134.007 76.216 134.546 76.0232 135.815 75.5217C136.545 75.2517 137.468 74.9046 138.853 74.7117C141.16 74.3646 143.082 73.9018 144.543 73.3232C144.543 73.3232 144.543 73.3232 146.235 72.7446L146.428 72.6675C148.543 71.8961 149.773 73.2075 151.85 75.5603L150.773 76.5246C148.504 73.9403 147.966 73.6703 146.928 74.056L146.697 74.1332C146.235 74.2875 145.197 74.6732 145.043 74.7117C143.467 75.3289 141.467 75.8303 139.045 76.1774C137.776 76.3703 137.007 76.6403 136.276 76.9103C135.699 77.2188 135.084 77.4117 134.392 77.4117Z" fill="#EDEBEE"/>
<path d="M126.355 158.218L126.163 156.791C126.394 156.752 127.893 156.019 128.547 154.091C129.316 151.931 129.085 149.192 128.893 146.762C128.663 144.024 128.47 141.825 129.778 140.938C130.47 140.436 132.585 138.431 134.469 136.695C136.007 135.268 137.43 133.918 138.199 133.301L139.122 134.419C138.391 134.998 136.968 136.348 135.469 137.775C133.469 139.665 131.393 141.594 130.624 142.134C130.008 142.558 130.201 144.756 130.354 146.685C130.547 149.231 130.816 152.162 129.931 154.592C129.047 157.099 127.009 158.141 126.355 158.218Z" fill="#EDEBEE"/>
<path d="M107.36 190C102.63 190 95.8239 188.727 87.4028 183.713C77.059 177.503 72.4063 180.319 68.6763 182.556C66.7537 183.713 64.908 184.831 62.7162 184.368C61.4472 184.098 60.5628 183.52 60.0629 182.594C58.9094 180.434 60.2937 176.963 61.7933 173.299C62.7162 171.062 63.639 168.709 64.0236 166.664L65.4463 166.934C65.0618 169.133 64.062 171.524 63.1392 173.877C61.8318 177.079 60.5244 180.396 61.3319 181.938C61.6011 182.44 62.1394 182.787 62.9854 182.98C64.6388 183.327 66.1 182.44 67.9073 181.321C71.7526 179.007 77.059 175.844 88.1334 182.478C101.746 190.656 110.936 188.534 113.435 187.686C115.819 186.876 117.511 185.564 118.088 184.06C118.896 182.054 118.511 181.398 116.973 178.583C116.319 177.426 115.55 175.999 114.589 174.07C112.897 170.599 112.628 165.584 112.628 165.392L114.051 165.314C114.051 165.353 114.32 170.252 115.896 173.453C116.819 175.381 117.588 176.77 118.242 177.889C119.857 180.781 120.511 181.938 119.434 184.6C118.665 186.528 116.704 188.11 113.897 189.074C112.858 189.421 110.59 190 107.36 190Z" fill="#EDEBEE"/>
<path d="M116.627 99.8213C114.627 98.8571 106.821 96.9285 95.0549 99.667L94.7473 98.2399C109.398 94.8071 117.204 98.4713 117.281 98.5099L116.627 99.8213Z" fill="#EDEBEE"/>
<path d="M113.205 104.72C110.013 102.328 104.976 101.48 97.8236 102.058L97.7083 100.631C105.245 100.014 110.59 100.978 114.089 103.563L113.205 104.72Z" fill="#EDEBEE"/>
<path d="M21.1105 121.19C20.9567 121.19 20.8029 121.19 20.6491 121.151C19.457 120.92 19.1109 120.534 18.8418 119.994C18.7264 119.801 18.6495 119.647 18.3803 119.454C18.265 119.377 18.0343 119.261 17.8036 119.184C16.996 118.837 15.804 118.335 15.1503 117.101C14.9581 116.754 14.8427 116.638 13.7276 116.137C12.997 115.828 11.728 115.057 11.4973 113.36C11.4589 113.128 11.4589 113.128 11.1897 112.974C10.6514 112.704 10.113 112.318 9.76694 111.161C9.38242 109.734 10.1899 108.384 12.2279 107.111L12.3048 107.073L16.6884 105.028C19.6493 103.987 23.2254 102.753 24.8019 102.483L25.0327 103.91C23.4176 104.18 18.9187 105.761 17.2268 106.378L12.997 108.384C11.6127 109.271 10.9974 110.081 11.2281 110.814C11.4204 111.47 11.6127 111.547 11.8818 111.701C12.2664 111.894 12.8047 112.164 12.9585 113.167C13.0739 114.092 13.766 114.594 14.3044 114.825C15.4964 115.327 15.9963 115.635 16.4193 116.445C16.8422 117.255 17.6882 117.602 18.3803 117.911C18.7264 118.065 18.9956 118.181 19.2263 118.335C19.7646 118.721 19.9954 119.107 20.1107 119.377C20.2261 119.608 20.303 119.685 20.9182 119.801C21.4181 119.878 21.918 119.685 22.8793 118.335L25.994 114.208C26.3785 113.822 26.9168 113.475 27.8782 112.858C28.7626 112.28 29.9931 111.47 31.685 110.235L32.5309 111.393C30.839 112.627 29.5701 113.437 28.6857 114.054C27.8782 114.555 27.3783 114.902 27.1091 115.172L24.1098 119.184C23.2254 120.225 22.341 121.19 21.1105 121.19Z" fill="#EDEBEE"/>
<path d="M40.3368 109.695C40.2599 108.307 38.9525 103.871 37.5682 102.097C34.9534 98.7798 32.4924 98.6641 32.4155 98.6255L32.454 97.1599C32.5693 97.1599 35.6455 97.237 38.7218 101.171C40.3368 103.215 41.6826 107.535 41.7595 109.155L40.3368 109.695Z" fill="#EDEBEE"/>
<path d="M35.0305 111.585L34.5691 110.158L38.1067 108.77L38.6451 110.081L35.0305 111.585Z" fill="#EDEBEE"/>
<path d="M159.233 56.9691L158.348 53.1892L159.579 52.3792L160.463 56.3134L159.233 56.9691Z" fill="#EDEBEE"/>
<path d="M150.888 61.6748C149.043 61.6748 147.735 61.4819 147.581 61.4819L147.812 60.0548C147.889 60.0548 156.041 60.9419 160.809 57.702L161.117 59.2448C157.964 61.3662 153.734 61.6748 150.888 61.6748Z" fill="#EDEBEE"/>
<path d="M11.2664 108.77C11.1511 108.654 8.80546 106.224 7.49807 104.604C6.03687 102.83 5.65234 100.168 5.65234 100.053L7.07509 99.8599C7.07509 99.8985 7.42117 102.251 8.6132 103.717C9.92059 105.298 12.3047 107.805 12.3431 107.805L11.2664 108.77Z" fill="#EDEBEE"/>
<path d="M17.2267 106.263L16.3039 105.144C16.3808 105.067 16.4192 105.028 16.4192 105.028C16.4192 105.028 16.3423 104.797 15.7271 104.373C15.4964 104.218 15.2272 104.026 14.9196 103.871C13.3815 102.868 11.2281 101.518 10.1899 99.6284C9.84383 99.0113 9.42085 98.3942 8.95942 97.8156L5.96011 101.441C5.92166 101.518 5.84475 101.557 5.8063 101.596C5.38332 101.866 4.38355 102.058 2.1533 100.323C-0.461485 98.2785 0.0383999 96.3113 0.0768526 96.2342C0.115305 96.1571 0.153758 96.0414 0.192211 95.9642C0.230663 95.9256 1.11507 94.7685 1.73032 94.1128C2.49937 93.3028 3.49914 92.9557 4.61427 93.11C7.15215 93.4185 9.95919 96.2728 11.4588 98.8956C12.3433 100.477 14.3043 101.711 15.7271 102.637C16.0347 102.83 16.3039 103.023 16.5731 103.177C17.419 103.756 17.842 104.334 17.8804 104.951C17.8804 105.337 17.7651 105.8 17.2267 106.263ZM1.4227 96.7356C1.4227 97.0442 1.4996 98.047 2.99926 99.2042C4.11438 100.091 4.72963 100.284 4.9988 100.323L7.84429 96.8899L8.84406 97.6999C7.53667 96.1185 5.84475 94.7685 4.42201 94.5757C3.76831 94.4985 3.19152 94.6914 2.76854 95.1542C2.30711 95.6556 1.69187 96.4271 1.4227 96.7356Z" fill="#EDEBEE"/>
<path d="M7.47772 103.669L5.29712 106.463L6.44781 107.367L8.62842 104.572L7.47772 103.669Z" fill="#EDEBEE"/>
<path d="M11.8229 94.3552L9.64233 97.1497L10.793 98.0532L12.9736 95.2587L11.8229 94.3552Z" fill="#EDEBEE"/>
<path d="M14.8691 98.0772L12.6885 100.872L13.8392 101.775L16.0198 98.9807L14.8691 98.0772Z" fill="#EDEBEE"/>
<path d="M61.2935 149.269L59.9861 148.266L62.101 141.169L63.4468 142.172L61.2935 149.269Z" fill="#EDEBEE"/>
<path d="M72.791 173.299C71.4067 173.299 69.7532 172.797 67.869 171.409L68.715 170.252C71.099 172.026 73.1755 172.335 75.0597 171.216C80.1354 168.246 82.4041 156.096 81.712 150.658C81.0198 145.412 78.9818 141.092 75.5596 137.814C73.4831 135.808 71.522 134.844 70.8683 134.535C67.6768 135.924 64.8697 135.962 62.601 134.612C58.4097 132.144 57.7175 126.05 57.7175 125.972C57.6406 125.78 56.8716 125.394 56.2563 125.047C54.9489 124.352 53.1416 123.427 51.2575 121.575C48.7196 119.107 45.8741 116.253 41.1829 116.985L40.9521 115.558C46.3355 114.71 49.7578 118.104 52.2572 120.534C53.9876 122.231 55.6795 123.118 56.91 123.774C58.1789 124.43 59.0634 124.892 59.1403 125.857C59.1403 125.895 59.794 131.295 63.3316 133.378C65.2542 134.497 67.6768 134.419 70.5607 133.108C70.753 133.031 70.9452 133.031 71.099 133.108C71.522 133.262 81.4428 137.158 83.1732 150.542C83.9038 156.173 81.5966 169.172 75.8287 172.566C75.0212 172.913 74.0215 173.299 72.791 173.299Z" fill="#EDEBEE"/>
<path d="M73.7138 174.147C73.4062 174.147 73.0985 174.147 72.8294 174.109C69.5994 173.8 66.9077 170.56 64.7543 167.937C63.8315 166.819 62.947 165.777 62.4087 165.43C60.7937 164.427 60.6399 163.116 60.4861 161.689C60.3707 160.763 60.2554 159.722 59.717 158.41C58.7173 155.942 56.5639 151.661 53.2185 150.889C51.9111 150.581 50.9883 150.966 50.7575 151.159C49.3348 152.432 48.5657 151.661 47.143 150.311C46.9507 150.118 46.72 149.886 46.4508 149.655C45.8356 149.076 44.9896 148.498 44.0283 147.803C41.875 146.338 39.2217 144.486 36.953 141.246C33.4923 136.348 33.1078 131.218 33.3769 127.747L34.7997 127.862C34.569 131.102 34.915 135.885 38.1066 140.436C40.2215 143.445 42.7594 145.219 44.8358 146.608C45.8356 147.302 46.72 147.919 47.4506 148.575C47.7198 148.806 47.9505 149.038 48.1428 149.231C48.6811 149.771 49.2579 150.311 49.4502 150.349C49.4502 150.349 49.5271 150.311 49.7962 150.079C50.4499 149.501 51.8727 149.076 53.5646 149.462C55.641 149.963 58.6403 151.776 61.1013 157.832C61.6781 159.298 61.8319 160.493 61.9473 161.458C62.1011 162.769 62.178 163.502 63.2162 164.119C63.9853 164.582 64.8312 165.623 65.9079 166.935C67.7921 169.21 70.4069 172.334 73.0216 172.604C77.213 173.029 84.6728 170.059 87.4029 162.422C90.2869 154.399 90.1715 147.572 87.0569 141.555C84.7497 137.081 82.0965 135.268 78.0589 132.607L77.9436 132.529C75.4442 130.871 75.175 130.755 74.329 131.102C73.9445 131.334 70.6376 133.031 67.3307 132.067C65.4465 131.527 63.9468 130.215 62.8701 128.171C61.6781 125.934 61.4858 124.622 61.3705 123.735C61.2551 122.964 61.2167 122.771 60.7168 122.385C60.4861 122.192 60.2554 122.115 59.9862 121.961C59.2171 121.575 58.102 121.035 54.9873 118.451L54.3336 117.911C50.5653 114.787 49.1425 113.591 44.6051 115.404L44.5282 115.443C40.9137 116.87 40.1446 117.178 38.0682 119.531C37.4529 120.187 36.9146 120.92 36.4532 121.652L35.2227 120.881C35.7226 120.071 36.3378 119.3 36.953 118.567C39.2602 115.944 40.26 115.558 43.9899 114.093L44.0668 114.054C49.4117 111.933 51.4881 113.668 55.2565 116.792L55.9102 117.332C58.8711 119.801 59.9477 120.302 60.6399 120.65C60.9475 120.804 61.2167 120.958 61.5627 121.19C62.601 121.922 62.6779 122.655 62.7932 123.504C62.9086 124.314 63.0624 125.471 64.1391 127.477C65.0235 129.135 66.2155 130.215 67.7152 130.639C70.5607 131.488 73.5984 129.791 73.6369 129.791L73.7138 129.752C75.3673 129.019 76.2901 129.637 78.7511 131.295L78.8665 131.372C82.904 134.072 85.8264 136.039 88.3258 140.861C91.6327 147.225 91.7481 154.438 88.7488 162.885C85.9033 170.83 78.4819 174.147 73.7138 174.147Z" fill="#EDEBEE"/>
<path d="M51.142 142.172C51.0266 142.172 50.8728 142.134 50.7574 142.057C47.5659 140.051 30.6082 126.242 25.4556 122.038L26.3784 120.92C36.0301 128.827 47.066 137.698 50.719 140.282L52.334 134.767C49.6039 132.992 39.1447 125.278 28.9163 117.371L29.8007 116.214C40.6059 124.584 52.0648 132.992 53.526 133.802C53.8337 133.957 53.949 134.304 53.8721 134.651L51.8341 141.632C51.7572 141.864 51.6034 142.018 51.4111 142.095C51.3342 142.172 51.2189 142.172 51.142 142.172Z" fill="#EDEBEE"/>
<path d="M106.36 49.3319C103.245 48.9848 101.938 47.172 102.053 44.5491L103.515 44.5877C103.438 46.4391 104.514 47.7505 106.245 47.8662L106.36 49.3319Z" fill="#EDEBEE"/>
<path d="M109.936 51.9935C107.475 51.8007 105.783 49.8336 105.899 47.2108L107.36 47.2493C107.283 49.1007 108.36 50.4121 110.09 50.5278L109.936 51.9935Z" fill="#EDEBEE"/>
<path d="M114.204 68.0391C112.551 67.4991 111.82 65.9948 112.32 64.2206L110.936 63.8349C110.244 66.3805 111.436 68.6562 113.781 69.4276C114.281 69.5819 115.012 69.5434 115.012 69.5434L114.204 68.0391Z" fill="#EDEBEE"/>
<path d="M117.204 72.2817C114.858 71.5103 113.666 69.2346 114.358 66.689L115.743 67.0747C115.243 68.8875 116.012 70.3918 117.627 70.8932L117.204 72.2817Z" fill="#EDEBEE"/>
<path d="M106.86 51.955C106.783 53.8064 107.86 55.1178 109.59 55.2335C113.666 55.5421 116.358 57.3163 117.858 60.5949L116.55 61.1734C115.281 58.3578 113.051 56.9306 109.513 56.6606C107.052 56.4678 105.36 54.5007 105.476 51.8779C105.514 51.2607 105.783 50.6436 105.783 50.6436C105.783 50.6436 105.976 50.9907 106.322 51.3764C106.476 51.685 106.86 51.955 106.86 51.955Z" fill="#EDEBEE"/>
<path d="M98.8234 64.3363C96.4393 64.1434 95.9779 63.2948 95.5934 62.1377C95.4395 61.7134 95.3242 61.3277 95.0166 60.942C93.8245 59.5149 92.6325 59.2063 90.979 58.8206C90.5176 58.7049 90.0177 58.5892 89.5178 58.4735L89.9023 57.0849C90.3638 57.2392 90.8252 57.3164 91.2866 57.4321C93.017 57.8178 94.632 58.2035 96.0932 60.0163C96.5931 60.6335 96.7854 61.212 96.9392 61.6749C97.2084 62.4463 97.2853 62.7548 98.9003 62.9091L98.8234 64.3363Z" fill="#EDEBEE"/>
<path d="M91.7482 61.6749C92.4788 62.2149 92.7864 63.0635 93.094 63.9506C93.5939 65.3777 94.2476 67.1134 96.9008 67.1134C97.0546 67.1134 97.2469 67.1134 97.4007 67.0748L97.2853 65.6477C95.2858 65.802 94.9782 64.9149 94.4399 63.4492C94.0169 62.3306 93.5939 61.0578 92.2481 60.2478C91.7482 59.9778 91.479 59.9778 91.479 59.9778L91.5559 61.5206L91.7482 61.6749Z" fill="#EDEBEE"/>
<path d="M91.7097 139.626L90.8638 138.199C96.5163 135.576 101.977 135.114 105.399 134.689C108.321 134.342 110.628 134.072 112.551 132.954C113.897 132.182 113.82 131.141 113.628 129.328C113.512 128.364 113.359 127.284 113.628 126.204C114.474 122.887 115.743 120.225 117.358 118.258C121.741 112.897 125.663 106.417 128.278 102.097C128.778 101.287 129.201 100.593 129.547 99.9756L129.586 99.8984L129.663 99.8213C131.047 98.587 133.239 97.6999 136.892 96.2342C139.314 95.2699 142.352 94.0357 146.236 92.3C159.656 86.2829 161.078 85.1258 163.924 82.8116C165.808 81.3073 165.962 78.5302 164.654 71.0474C163.847 66.3804 162.616 59.7076 161.694 54.8477C161.271 52.4949 160.925 50.6435 160.732 49.6792C160.463 49.8335 160.117 50.0649 159.809 50.2963C158.156 51.4149 155.426 53.2663 151.773 54.0377C150.042 54.4234 148.697 54.2691 147.658 54.192C147.043 54.1148 146.466 54.0763 146.274 54.192C146.236 54.2306 146.197 54.2306 146.197 54.2306C146.12 54.4234 146.466 55.3105 146.697 56.0048C147.197 57.3162 147.889 59.1291 148.312 61.7133C149.158 66.4961 148.966 68.7718 148.85 70.276C148.812 70.6232 148.812 70.8932 148.812 71.1632C148.774 71.626 148.697 71.9732 148.658 72.2431C148.658 72.2817 148.658 72.3203 148.62 72.3589C148.735 72.3589 148.927 72.3589 149.196 72.3589C150.465 72.3203 153.657 72.436 155.849 73.9403L155.041 75.136C153.772 74.2488 151.581 73.786 149.235 73.8245C148.312 73.8245 147.735 73.786 147.389 73.3231C147.043 72.8989 147.159 72.3974 147.235 71.9346C147.274 71.7032 147.351 71.4332 147.351 71.1246C147.351 70.8546 147.389 70.5075 147.428 70.1989C147.543 68.6946 147.697 66.6118 146.889 61.9833C146.466 59.5148 145.813 57.7791 145.313 56.5062C144.698 54.9248 144.236 53.652 145.505 52.9191C146.12 52.572 146.851 52.6491 147.735 52.7263C148.697 52.8034 149.889 52.9191 151.388 52.6106C154.734 51.8777 157.272 50.2192 158.925 49.1006C160.156 48.2521 160.809 47.8278 161.424 48.1364C161.617 48.2135 161.924 48.4064 162.001 48.9078C162.078 49.4863 162.501 51.762 163.039 54.6163C163.962 59.4762 165.193 66.1875 166 70.816C167.577 79.8802 166.846 82.2716 164.731 83.9687C161.578 86.5144 159.809 87.7486 146.736 93.65C142.813 95.4242 139.776 96.6199 137.353 97.6228C133.931 99.0113 131.816 99.8599 130.624 100.901C130.278 101.48 129.855 102.174 129.393 102.907C126.779 107.227 122.779 113.784 118.357 119.222C116.858 121.035 115.704 123.542 114.897 126.628C114.704 127.438 114.82 128.325 114.935 129.212C115.166 130.987 115.397 132.992 113.166 134.265C110.975 135.499 108.398 135.808 105.476 136.155C102.246 136.541 97.2085 136.926 91.7097 139.626Z" fill="#EDEBEE"/>
<path d="M136.815 88.1729L135.43 87.7872C137.507 80.4201 132.585 77.0645 130.624 76.0616L131.624 75.0974C132.931 75.7531 139.276 79.533 136.815 88.1729Z" fill="#EDEBEE"/>
<path d="M126.471 148.922C121.433 147.919 115.435 145.605 113.897 136.695L115.319 136.425C116.742 144.409 121.895 146.492 126.778 147.456L126.471 148.922Z" fill="#EDEBEE"/>
<path d="M119.973 167.513C116.358 167.513 111.398 166.086 106.629 159.992C102.592 154.823 96.824 153.512 94.2092 153.512V152.046H94.2477C97.2085 152.046 103.284 153.203 107.745 159.066C110.129 162.19 115.204 167.166 122.318 165.816C127.048 164.89 130.778 160.84 132.47 154.669C133.277 151.815 133.277 149.539 133.277 147.842C133.277 145.991 133.277 144.641 134.392 143.946C135.661 143.175 136.815 143.946 137.968 144.718C139.929 146.068 142.39 147.688 147.466 144.718C155.733 139.819 157.541 134.998 158.31 132.954C158.541 132.375 158.233 131.835 157.579 130.678C156.656 129.097 155.234 126.667 154.772 122.115C154.272 116.947 151.888 112.203 150.004 110.968C149.696 110.775 149.466 110.698 149.273 110.737C148.697 110.93 148.235 111.47 147.543 112.203C146.466 113.36 145.005 114.98 142.083 116.484C139.776 117.68 137.622 118.065 135.738 118.412C133.7 118.798 132.085 119.107 131.201 120.264C131.124 120.38 131.124 120.457 131.124 120.534C131.278 121.382 133.393 122.771 135.43 124.121C138.276 126.011 141.814 128.364 143.621 131.295C147.197 137.158 145.351 140.552 143.929 142.095L142.89 141.092C144.851 138.971 144.659 135.769 142.39 132.067C140.775 129.405 137.392 127.168 134.661 125.355C131.931 123.542 129.97 122.27 129.739 120.804C129.663 120.302 129.778 119.84 130.086 119.415C131.316 117.795 133.277 117.448 135.507 117.024C137.315 116.677 139.353 116.33 141.468 115.211C144.159 113.823 145.467 112.395 146.543 111.238C147.351 110.39 147.966 109.695 148.889 109.387C149.312 109.233 150.004 109.194 150.85 109.773C153.042 111.2 155.695 116.175 156.272 122C156.695 126.242 157.964 128.402 158.887 129.984C159.617 131.257 160.194 132.221 159.733 133.494C158.925 135.692 156.964 140.822 148.274 145.991C142.429 149.462 139.314 147.341 137.238 145.952C136.123 145.219 135.661 144.949 135.238 145.219C134.815 145.489 134.815 146.492 134.815 147.881C134.815 149.655 134.815 152.085 133.969 155.093C132.085 161.805 127.971 166.24 122.703 167.282C121.857 167.397 120.972 167.513 119.973 167.513Z" fill="#EDEBEE"/>
<path d="M81.4812 89.1757L80.0969 88.7515C81.8273 82.9658 79.7893 78.453 77.3668 76.1774C75.9825 74.9045 74.3674 74.2874 73.4061 74.6345L72.9062 73.2845C74.4444 72.706 76.5208 73.4003 78.3665 75.0974C81.0967 77.7202 83.3654 82.773 81.4812 89.1757Z" fill="#EDEBEE"/>
<path d="M88.5949 133.725L87.4797 132.452C90.902 131.064 93.9013 130.64 96.3623 130.215C98.631 129.83 100.707 129.444 102.938 128.441C104.553 127.708 106.245 126.667 108.129 125.008L109.09 126.088C107.091 127.862 105.283 128.981 103.553 129.752C101.169 130.832 98.9386 131.218 96.6315 131.604C94.209 132.067 91.5173 132.53 88.5949 133.725Z" fill="#EDEBEE"/>
</svg>
