<svg xmlns="http://www.w3.org/2000/svg" fill="none" viewBox="0 0 14 14">
  <defs />
  <path fill="currentColor" d="M7.045 2.188h.077c.72.002 4.364.028 5.347.293a1.76 1.76 0 011.238 1.242c.088.333.15.773.192 1.227l.01.09.018.228.007.091c.057.8.064 1.55.065 1.713v.065c0 .17-.009.97-.072 1.803l-.007.092-.008.09c-.043.501-.108.998-.205 1.364a1.756 1.756 0 01-1.238 1.242c-1.015.274-4.873.293-5.408.294h-.124c-.27 0-1.389-.006-2.561-.046l-.149-.005-.076-.004-.15-.006-.15-.006c-.97-.043-1.895-.112-2.321-.227A1.756 1.756 0 01.29 10.486C.194 10.121.13 9.623.086 9.123L.079 9.03.072 8.94A27.475 27.475 0 010 7.158v-.106c.002-.188.009-.839.056-1.556l.006-.09.003-.046.007-.09.019-.228L.1 4.95c.042-.454.104-.895.192-1.227A1.756 1.756 0 011.53 2.481c.426-.113 1.351-.183 2.323-.227L4 2.248l.15-.005.076-.003.15-.006a87.3 87.3 0 012.499-.046h.169zM5.6 4.995v4.216l3.637-2.107L5.6 4.996z" />
</svg>
