<svg xmlns="http://www.w3.org/2000/svg" fill="none" viewBox="0 0 14 14">
  <defs />
  <g clip-path="url(#clip0)">
    <path fill="currentColor" d="M14 7.043c0-3.89-3.134-7.044-7-7.044-3.868 0-7.002 3.154-7.002 7.045 0 3.515 2.56 6.428 5.906 6.957V9.079H4.128V7.044h1.778V5.49c0-1.765 1.046-2.74 2.644-2.74.767 0 1.567.137 1.567.137V4.62h-.882c-.87 0-1.14.543-1.14 1.1v1.322h1.94l-.31 2.035H8.094V14C11.44 13.47 14 10.558 14 7.043z" />
  </g>
  <defs>
    <clipPath id="clip0">
      <path fill="#fff" d="M0 0h14v14H0z" />
    </clipPath>
  </defs>
</svg>
