<svg width="14" height="14" viewBox="0 0 14 14" fill="none" xmlns="http://www.w3.org/2000/svg">
<g clip-path="url(#clip0)">
<path d="M13.9998 7.04277C13.9998 3.15252 10.8655 -0.000976562 6.9998 -0.000976562C3.1323 -0.000101562 -0.00195312 3.15252 -0.00195312 7.04365C-0.00195312 10.5585 2.5583 13.4723 5.9043 14.0008V9.0789H4.12805V7.04365H5.90605V5.49052C5.90605 3.72565 6.95167 2.7509 8.5503 2.7509C9.3168 2.7509 10.1174 2.88827 10.1174 2.88827V4.62077H9.23455C8.36567 4.62077 8.09442 5.16415 8.09442 5.72152V7.04277H10.0352L9.72542 9.07802H8.09355V13.9999C11.4395 13.4714 13.9998 10.5576 13.9998 7.04277Z" fill="#EDEBEE"/>
</g>
<defs>
<clipPath id="clip0">
<rect width="14" height="14" fill="white"/>
</clipPath>
</defs>
</svg>
