<svg xmlns="http://www.w3.org/2000/svg" fill="none" viewBox="0 0 14 14">
  <defs />
  <path fill="currentColor" d="M7 0C5.1 0 4.862.009 4.115.042c-.746.035-1.255.152-1.7.326-.467.175-.89.45-1.24.807-.356.35-.632.773-.808 1.24-.173.445-.29.954-.325 1.697C.009 4.861 0 5.1 0 7.002c0 1.9.009 2.138.042 2.885.035.745.152 1.254.326 1.699.179.46.418.85.807 1.24.389.39.779.629 1.24.808.445.173.953.29 1.698.325C4.861 13.991 5.1 14 7 14s2.139-.009 2.886-.042c.744-.035 1.255-.152 1.7-.325.467-.176.89-.452 1.239-.808.39-.39.628-.78.808-1.24.172-.445.29-.954.325-1.7C13.991 9.14 14 8.902 14 7c0-1.901-.009-2.14-.042-2.887-.035-.744-.153-1.254-.325-1.698a3.434 3.434 0 00-.808-1.24 3.423 3.423 0 00-1.24-.808c-.446-.173-.956-.29-1.7-.325C9.138.009 8.9 0 6.998 0h.003H7zm-.627 1.262H7c1.869 0 2.09.006 2.828.04.682.03 1.053.145 1.3.24.327.127.56.28.805.525s.397.478.523.805c.097.246.21.617.241 1.3.034.737.041.958.041 2.826s-.007 2.09-.041 2.828c-.03.683-.145 1.053-.24 1.3a2.16 2.16 0 01-.525.804 2.163 2.163 0 01-.805.523c-.245.096-.616.21-1.3.242-.737.033-.958.04-2.827.04-1.87 0-2.091-.007-2.829-.04-.682-.032-1.053-.146-1.3-.242a2.169 2.169 0 01-.804-.523 2.17 2.17 0 01-.525-.805c-.096-.246-.21-.617-.241-1.3-.033-.737-.04-.959-.04-2.828 0-1.87.007-2.09.04-2.828.031-.682.145-1.053.242-1.3.126-.326.279-.56.524-.805s.477-.396.805-.523c.246-.096.616-.21 1.299-.242.646-.03.896-.038 2.2-.039v.002zm4.364 1.162a.84.84 0 100 1.68.84.84 0 000-1.68zm-3.736.982a3.595 3.595 0 10-.112 7.19A3.595 3.595 0 007 3.405zm0 1.26a2.334 2.334 0 110 4.668 2.334 2.334 0 010-4.668z" />
</svg>
