<svg xmlns="http://www.w3.org/2000/svg" fill="none" viewBox="0 0 317 58">
  <defs />
  <g fill="currentColor" clip-path="url(#clip0)">
    <path d="M109.209 24.678c.174-1.633-.937-2.67-2.121-2.852-2.985-.46-5.564 4.805-5.885 6.215-.427 1.867.321 3.176 1.416 3.849-.795 2.063-1.69 3.722-2.427 4.577-.158.182-.458.131-.526-.096-.542-1.892-.832-5.902-.627-9.644l.132-2.387h-4.527l-.569 1.481c-1.59 4.152-3.884 8.259-5.563 10.2-.274.32-.816.167-.858-.242-.127-1.189-.19-2.64-.227-3.61-.168-4.082-.32-6.125-1.921-7.233-.579-.4-1.295-.536-2.005-.47-.859.081-2.59.612-6.365 5.442l1.08-5.422h-4.612l-.673 1.163c-3.185 5.482-7.486 10.681-9.496 11.627-.28-1.725.252-6.079 1.273-10.008l.753-2.903-4.474.121-3.927 2.923c-3-2.078-8.49-5.087-11.68-1.967-2.427 2.372-.537 5.613 1.131 8.47.537.921 1.432 2.459 1.732 3.41.095.298-.195.586-.51.51-1.022-.243-2.727-1.4-3.843-2.559l-1.753-1.83-1.742 1.84c-.016.015-1.185 1.234-3.311 2.554-.348.218-.795-.076-.721-.465.031-.157.057-.314.09-.455.704-3.702 1.373-7.202-.18-9.25-1.321-1.74-3.864-2.771-6.97-2.832-2.447-.05-5.605.582-7.163 2.478-.59.718-.88 1.674-.964 2.726-2.358 4.111-5.227 7.105-6.79 7.717a.496.496 0 01-.505-.09c-2.4-2.155-7.775-13.837-8.975-23.354-.68-5.391.51-6.464.563-6.509C7.911 5.74 15.907 10.23 20.734 14.27l3.1-3.419C21.393 8.804 8.88-1.123 2.349 4.394-3.59 9.411 3.506 27.83 4.332 29.913c1.232 3.095 4.97 12.496 9.543 12.496h.027c2.632-.02 5.348-1.856 8.306-5.619l.08-.106c.415 1.234.789 2.074.8 2.099.752 1.643 1.863 3.55 3.8 3.691 1.574.112 3.026-.682 4.3-1.951 0 1.264.31 2.23 1.195 2.912a2.94 2.94 0 001.79.602c.39 0 .831-.076 1.316-.268a27.101 27.101 0 006.659-3.869c2.147 1.69 5.853 3.798 9.048 1.563 3.643-2.549 1.11-6.888-.563-9.76-.416-.713-1.01-1.735-1.369-2.529-.11-.242.121-.505.39-.435 1.379.37 3.774 1.604 5.911 3.293l1.458 1.153 1.953-1.457c-.474 3.267-.584 6.827.7 8.648a3.651 3.651 0 002.548 1.552c2.874.375 6.032-2.18 8.77-5.355l-1.085 5.426 4.664-.02.684-1.097c2.153-3.444 4.822-7.257 6.806-9.654.195-.233.585-.107.6.192.016.328.027.647.043.93.19 4.612.368 8.971 3.905 9.33 3.106.32 5.88-2.725 8.049-6.265.353 2.109.974 4.005 2.042 5.067.758.754 1.727 1.168 2.774 1.138 3.632-.066 6.243-4.395 7.859-8.956 3.638-.066 7.37-1.037 7.917-1.189l.321-4.96c-1.626.555-4.99 1.36-6.927 1.532a32.04 32.04 0 00.563-3.369zm-77.515 5.806c-1.148 2.837-2.685 5.573-3.796 6.817-.116.127-.326.106-.4-.045-.868-1.77-1.632-4.88-1.653-6.474-.005-.475.306-.89.769-1.046.616-.213 1.558-.4 2.748-.354a7.301 7.301 0 011.947.308c.337.106.516.47.385.794z" />
    <path d="M76.342 13.578l-2.274-3.974c-4.143 2.184-10.16 6.473-12.918 8.683l3.022 3.484c2.721-2.18 8.47-6.24 12.17-8.193zM282.548 13.578l-2.274-3.974c-4.142 2.184-10.159 6.473-12.917 8.683l3.021 3.484c2.722-2.18 8.47-6.24 12.17-8.193zM176.265 13.973l-2.005-4.107c-4.553 2.053-10.996 5.3-14.07 7.09l2.447 3.88c2.953-1.72 9.196-4.866 13.628-6.863z" />
    <path d="M313.194 32.492c-.963 1.264-2.716 3.236-3.901 4.116a.507.507 0 01-.616-.005c-.447-.354-1.036-.925-1.468-1.35-.432-.42-.89-.87-1.395-1.32 1.19-1.461 2.311-2.974 3.342-4.4l.379-.526c.769-1.051.869-2.28.264-3.287-.453-.753-1.506-2.528-9.191-1.896-3.364.278-5.153 1.456-9.801 5.042-.585.45-1.169.875-1.748 1.284.242-.93.484-1.84.711-2.7 1.753-6.64 3.19-14.018 3.205-14.094l.522-2.68h-4.696l-.626 1.34c-.032.065-3.206 6.837-6.954 12.789-3.569 5.67-8.017 8.951-11.664 11.323-.216.142-.501-.015-.49-.263.084-2.225.49-5.538 1.105-8.703l.527-2.686h-4.575l-.652 1.26c-.995 1.916-5.301 8.84-9.875 11.247-.348.182-.779-.02-.848-.395a13.388 13.388 0 01-.184-1.81 177.59 177.59 0 01-.1-3.43c-.089-3.949-.132-5.749-2.011-6.624-1.768-.824-3.432.384-4.327 1.037-1.173.855-3.037 2.781-4.921 4.88-.121.131-.342.015-.295-.157.526-1.775.868-3.04.9-3.166l.763-2.837h-4.506l-.694.678c-.027.025-1.864 1.891-5.412 3.56-.152.071-.326-.066-.279-.222.6-2.058 1.043-3.97-.826-4.936-2.211-1.148-4.459.976-5.806 2.245-1.1 1.037-2.211 2.438-3.253 3.935.042-.329.084-.622.121-.87.268-1.795-.948-2.57-1.327-2.761-1.884-.966-3.326.288-6.822 3.312-3.084 2.67-7.311 6.332-11.08 7.935-.626.268-.916.146-1.158 0-.579-.344-1.116-1.093-1.579-2.043 3.221-1.77 5.906-3.389 7.796-4.83 1.695-1.29 1.716-2.877 1.168-3.93-1.463-2.831-7.238-2.74-10.001-2.063-3.29.805-5.19 2.817-5.08 5.376.042.95.185 2.094.453 3.292-1.532.81-3.153 1.649-4.843 2.514-.273.141-.61-.015-.663-.304l-1.732-9.219h-2.979l.958-1.249c-4.401-2.812-8.549-1.203-12.939.496-1.679.647-3.516 1.365-5.606 1.957.437-1.512.653-2.726.632-3.353-.037-1.052-.716-1.937-1.737-2.256-1.563-.49-3.411.577-5.496 3.156-2.463 3.05-2.105 5.012-1.368 6.124.274.415.61.734.984.976-.853 1.588-1.826 3.025-2.837 3.894-.337.294-.884.157-1.011-.268-.552-1.87-.873-5.517-.721-8.95l.121-2.833-2.9.5c-.037.006-3.832.643-11.407.547-1.311-.015-2.516-.05-3.648-.096 9.08-8.537 15.46-15.035 16.36-19.86.306-1.618-.268-3.059-1.568-3.96-5.259-3.635-23.572 3.885-28.02 6.226l2.274 3.975c6.512-3.434 17.539-6.751 21.687-6.73.469 0 .769.474.585.89-2.017 4.46-10.344 12.222-16.571 18.028-.326.303-.627.586-.937.875-2.237-.34-3.953-.825-5.343-1.487l-2.095 4.066a19.96 19.96 0 003.416 1.224c-4.611 4.455-6.516 6.756-6.669 8.647-.089 1.098.421 2.13 1.406 2.832 1.358.971 3.995 1.462 7.853 1.462 1.174 0 2.458-.046 3.859-.137 4.984-.323 9.938-1.178 12.622-2.174l-1.705-4.228c-4.132 1.537-13.328 2.29-17.692 1.891a.563.563 0 01-.395-.93c1.469-1.684 3.969-4.102 6.412-6.398 2.295.228 4.953.36 8.106.4 4.285.06 7.443-.111 9.485-.288.037 3.924.585 9.452 3.232 11.282.685.47 1.458.713 2.264.713.51 0 1.032-.096 1.553-.288 3.111-1.153 5.611-4.739 7.322-8.35.226-.04.421-.085.573-.116 2.401-.51 4.464-1.178 6.317-1.856-1.405 2.984-2.327 6.15-1.316 8.183.595 1.188 1.716 1.937 3.158 2.099 4.185.475 7.98-3.379 10.475-6.792l.795 4.227c-6.695 3.98-12.333 11.834-12.449 16.006-.058 1.978 1.027 2.903 1.679 3.277.606.35 1.253.48 1.895.48 1.611 0 3.164-.839 3.79-1.178 6.696-3.615 10.449-9.7 10.207-16.122a601.803 601.803 0 006.185-3.196c.795 1.538 1.853 2.883 3.206 3.692 1.679 1.006 3.658 1.108 5.569.293 4.216-1.8 8.522-5.426 11.791-8.248.095-.08.242-.005.226.116-.326 2.969-.626 5.953-.647 6.16l-.248 2.483h4.506l.632-1.32c.884-1.84 3.274-6.387 5.659-9.543.126-.166.394-.075.384.132-.048 1.163.195 2.18 1.121 2.903.405.318 1.527.99 3.164.333a28.683 28.683 0 004.211-2.129c-.711 2.226-1.543 4.628-2.337 6.453l-1.369 3.146h5.995l.711-.875c2.469-3.05 6.111-7.207 8.585-9.66.1-.095.269-.035.274.102.09 1.613.611 8.142 3.022 9.887.931.672 2.11.814 3.268.47 3.359-.996 6.391-3.651 8.781-6.397-.137 4.865 1.137 5.674 1.795 6.094 1.058.672 2.4.627 3.584-.132l.785-.5c3.658-2.317 9.022-5.71 13.491-11.935.158-.223.516-.071.447.192-.379 1.441-.763 2.923-1.137 4.354a44.558 44.558 0 01-3.4 1.492l.131 4.81c.616-.218 1.216-.44 1.806-.673-.337 1.304-.595 2.305-.727 2.801h4.864c.321-1.244.827-3.186 1.4-5.396a49.585 49.585 0 006.391-4.207c4.595-3.545 5.422-3.91 7.248-4.061.648-.05 1.248-.081 1.795-.096.637-.015 1.016.677.637 1.168a66.768 66.768 0 01-1.811 2.27c-1.826-.166-3.811.607-5.664 2.266-.458.41-4.416 4.086-2.637 6.721.416.622 1.221 1.178 2.316 1.178.442 0 .937-.09 1.469-.308 1.879-.759 3.79-2.286 5.632-4.152.374.344.737.698 1.095 1.047 1.732 1.689 4.106 4.005 7.08 2.538 2.511-1.233 5.501-5.047 6.074-5.8l-3.821-2.665zm-136.134 3.57c-.332.132-.705-.121-.679-.465.116-1.806 1.269-4.36 3.669-7.485 1.458-.354 2.495-.227 3.564.658-2.327 4.035-4.801 6.604-6.554 7.292zm2.979 16.284c-.236.147-.526-.096-.4-.339 1.148-2.19 3.422-5.32 6.459-7.853.184-.152.463.02.4.247-.8 2.837-2.769 5.7-6.459 7.945z" />
  </g>
  <defs>
    <clipPath id="clip0">
      <path fill="#fff" d="M0 0h317v58H0z" />
    </clipPath>
  </defs>
</svg>
