<svg xmlns="http://www.w3.org/2000/svg" fill="none" viewBox="0 0 106 38">
  <defs />
  <g fill="currentColor" clip-path="url(#clip0)">
    <path d="M2.5 15.35V.29h3.334v7.125h6.609V.29h3.334v15.06h-3.305V8.4H5.834v6.95H2.5zM26.463 15.582c-4.614 0-7.74-3.186-7.74-7.791 0-4.576 3.126-7.762 7.74-7.762 4.584 0 7.74 3.186 7.74 7.762 0 4.605-3.156 7.791-7.74 7.791zm0-14.597c-2.59 0-4.108 2.577-4.108 6.806s1.518 6.806 4.108 6.806 4.108-2.548 4.108-6.806c0-4.2-1.518-6.806-4.108-6.806zM40.245.29v9.702c0 3.012 1.072 4.287 3.632 4.287 2.38 0 3.78-1.535 3.78-4.113 0-.666-.03-1.564-.06-2.288L47.27.29h1.965l-.387 9.557c-.15 3.679-1.995 5.735-5.745 5.735-4.257 0-6.192-1.68-6.192-5.358V.29h3.334zM61.766.782v2.114c-1.756-1.303-3.125-1.882-4.494-1.882-1.4 0-2.382.84-2.382 2.027 0 1.332.715 1.94 3.81 3.447 2.828 1.36 3.96 2.664 3.96 4.547 0 2.81-2.144 4.547-5.627 4.547-1.815 0-3.542-.318-4.762-.84v-2.085c1.548 1.158 3.453 1.94 4.822 1.94 1.637 0 2.768-.84 2.768-2.085 0-1.42-.863-2.26-3.78-3.65-2.828-1.332-3.84-2.548-3.84-4.489 0-2.606 2.173-4.344 5.388-4.344 1.34 0 2.887.26 4.137.753zM65.487.29l3.334.144L75.608.29v1.477l-6.787-.522V7.27l5.299-.348V8.4l-5.299-.26v6.227l6.906-.493v1.478l-6.906-.145-3.334.145V.29zM81.353 14.337C77.662 12.28 76.83 8.226 79.21 4.229 81.59.232 85.61-1.101 89.3.985c3.692 2.056 4.525 6.11 2.144 10.137-2.381 3.968-6.4 5.271-10.09 3.215zm7.59-12.773c-2.678-1.506-5.804-.087-8.007 3.62-2.202 3.708-1.875 7.038.804 8.545 2.709 1.506 5.805.087 8.007-3.592 2.173-3.707 1.876-7.038-.803-8.573zM95.611.406l1.846.086 7.442-.086v1.071l-7.442-.376v6.69l5.983-.26v1.071L97.457 8.4v6.952H95.61V.406zM10.716 21.346v2.375c-1.965-1.448-3.483-2.114-5.06-2.114-1.578 0-2.68.926-2.68 2.259 0 1.477.804 2.2 4.287 3.88 3.155 1.536 4.435 3.013 4.435 5.127 0 3.157-2.41 5.127-6.31 5.127-2.054 0-3.989-.348-5.328-.927v-2.346c1.726 1.274 3.87 2.172 5.417 2.172 1.846 0 3.096-.956 3.096-2.346 0-1.593-.953-2.549-4.257-4.113C1.131 28.905 0 27.573 0 25.4c0-2.924 2.44-4.865 6.043-4.865 1.548 0 3.274.29 4.673.81zM27.415 22.736l-5.358-.753V37.71h-3.75V21.983l-5.388.753v-1.94l7.263.145 7.263-.145v1.94h-.03zM30.005 20.796h5.477c4.465 0 7.263 1.824 7.263 4.981 0 2.23-1.34 3.766-3.691 4.519l4.882 7.414H39.53l-4.316-6.864h-1.459v6.864h-3.75V20.796zm5.21 1.1l-1.46-.145v8.14l1.46-.146c2.232-.231 3.452-1.709 3.452-3.939 0-2.2-1.22-3.678-3.453-3.91zM61.23 37.71h-4.286l-1.816-4.055-6.667.203-1.489 3.852H44.71l6.013-12.888 1.667-4.258h.714l8.127 17.146zm-12.234-5.155l5.716.145-3.126-7.039-2.59 6.894zM66.886 20.796v10.89c0 3.389 1.22 4.808 4.078 4.808 2.68 0 4.257-1.738 4.257-4.605 0-.753-.03-1.767-.06-2.578l-.357-8.515h2.203L76.56 31.54C76.412 35.683 74.298 38 70.101 38c-4.763 0-6.965-1.883-6.965-6.024v-11.18h3.75zM91.057 21.346v2.375c-1.965-1.448-3.483-2.114-5.06-2.114-1.578 0-2.68.926-2.68 2.259 0 1.477.804 2.2 4.287 3.88 3.155 1.536 4.435 3.013 4.435 5.127 0 3.157-2.41 5.127-6.31 5.127-2.054 0-3.99-.348-5.329-.927v-2.346c1.727 1.274 3.87 2.172 5.418 2.172 1.846 0 3.096-.956 3.096-2.346 0-1.593-.953-2.549-4.257-4.113-3.185-1.506-4.316-2.838-4.316-5.04 0-2.924 2.44-4.865 6.043-4.865 1.547 0 3.274.29 4.673.81zM105.018 21.346v2.375c-1.965-1.448-3.483-2.114-5.06-2.114-1.578 0-2.68.926-2.68 2.259 0 1.477.804 2.2 4.287 3.88C104.72 29.283 106 30.76 106 32.874 106 36.03 103.589 38 99.69 38c-2.055 0-3.99-.348-5.329-.927v-2.346c1.727 1.274 3.87 2.172 5.418 2.172 1.845 0 3.095-.956 3.095-2.346 0-1.593-.952-2.549-4.256-4.113-3.185-1.506-4.316-2.838-4.316-5.04 0-2.924 2.44-4.865 6.042-4.865 1.518 0 3.275.29 4.674.81z" />
  </g>
  <defs>
    <clipPath id="clip0">
      <path fill="#fff" d="M0 0h106v38H0z" />
    </clipPath>
  </defs>
</svg>
