<svg width="140" height="26" viewBox="0 0 140 26" fill="none" xmlns="http://www.w3.org/2000/svg">
<path d="M0.949688 25H3.36169L5.26969 7.54L13.2257 23.776H14.2337L21.5417 7.468L24.8177 25H28.7417L24.0257 0.7H23.0177L20.9657 5.848L14.6657 18.736L5.84569 0.7H4.87369L4.29769 5.848L0.949688 25ZM37.5288 6.856H34.0008V19.096C34.0008 23.128 35.9448 25.36 39.6888 25.36C42.1008 25.36 44.1528 24.136 45.9888 21.868L46.3128 25H49.8408L49.4808 21.4V6.856H45.9528V20.608C44.1528 22.192 42.7488 22.876 41.1288 22.876C38.7888 22.876 37.5288 21.22 37.5288 18.52V6.856ZM60.7373 25.36C64.7693 25.36 67.6133 23.056 67.6133 19.924C67.6133 17.476 66.1373 15.892 62.6453 14.56C58.5413 12.976 57.7853 12.112 57.7853 10.42C57.7853 8.944 59.1533 7.792 61.0613 7.792C62.7533 7.792 64.3373 8.512 66.3533 10.24V7.648C64.7333 6.892 62.8973 6.496 61.0613 6.496C57.4613 6.496 54.7613 8.728 54.7613 11.716C54.7613 14.164 56.3453 15.928 59.8373 17.26C63.7613 18.736 64.7693 19.672 64.7693 21.292C64.7693 22.876 63.2213 24.064 60.7733 24.064C58.9373 24.064 56.8133 23.128 54.7253 21.436V24.028C56.4173 24.82 58.6493 25.36 60.7373 25.36ZM79.2449 25.36C81.6929 25.36 84.1769 24.424 85.7249 22.984V22.228C84.4289 22.876 82.7729 23.272 81.1889 23.272C77.0849 23.272 74.4929 20.572 74.3489 15.712H86.1929V14.596C86.1929 9.592 83.4209 6.496 78.9209 6.496C74.1689 6.496 70.6049 10.492 70.6049 15.856C70.6049 21.4 74.2409 25.36 79.2449 25.36ZM78.8849 7.792C81.3329 7.792 82.7369 10.06 82.7369 14.128L74.3489 14.632C74.5649 10.528 76.3649 7.792 78.8849 7.792ZM93.8843 6.856H90.3563V19.096C90.3563 23.128 92.3003 25.36 96.0443 25.36C98.4563 25.36 100.508 24.136 102.344 21.868L102.668 25H106.196L105.836 21.4V6.856H102.308V20.608C100.508 22.192 99.1043 22.876 97.4843 22.876C95.1443 22.876 93.8843 21.22 93.8843 18.52V6.856ZM112.413 25H115.941V11.212C117.777 9.664 119.253 8.944 120.873 8.944C123.105 8.944 124.329 10.672 124.329 13.264V25H127.857V12.652C127.857 12.112 127.785 11.608 127.713 11.14C129.549 9.592 131.061 8.944 132.753 8.944C135.021 8.944 136.209 10.672 136.209 13.264V25H139.737V12.652C139.737 8.764 137.901 6.496 134.157 6.496C131.745 6.496 129.441 7.72 127.497 10.06C126.813 7.756 125.085 6.496 122.277 6.496C119.901 6.496 117.741 7.72 115.905 9.952L115.581 6.856H112.053L112.413 10.42V25Z" fill="#EDEBEE"/>
</svg>
