<svg width="129" height="23" viewBox="0 0 129 23" fill="none" xmlns="http://www.w3.org/2000/svg">
<path d="M8.38 13.18C10.9 11.976 12.16 10.128 12.188 7.608C12.216 3.044 9.612 0.747998 4.376 0.747998H0.4V22H4.376V14.244L7.484 22H12.272L8.38 13.18ZM4.404 4.696C5.692 4.668 6.616 4.948 7.176 5.48C7.68 5.956 7.932 6.516 7.932 7.216C7.932 7.888 7.68 8.448 7.204 8.896C6.7 9.4 5.776 9.624 4.404 9.596V4.696ZM14.0992 22H22.5832V18.024H18.0752V13.348H22.5832V9.372H18.0752V4.696H22.5832V0.719999H14.0992V22ZM34.2787 2.792C33.0187 1.448 31.5627 0.776 29.9107 0.776C28.3707 0.776 27.0827 1.364 26.0467 2.54C24.9547 3.52 24.4507 5.144 24.5347 7.356C24.5907 8.364 25.1787 9.428 26.2707 10.52L30.4147 14.664C30.9467 15.308 31.2267 15.924 31.1987 16.54C31.0867 17.576 30.5267 18.136 29.5187 18.164C28.7067 18.164 28.0347 17.716 27.4467 16.792L25.4027 19.928C26.5787 21.328 27.9787 22.028 29.6027 22.028C31.5347 22 33.0187 21.412 34.0547 20.264C35.0907 19.116 35.5947 17.772 35.5947 16.26C35.5947 14.888 35.0067 13.6 33.8587 12.452L29.7147 8.308C29.2667 7.86 29.0427 7.328 29.0427 6.74C29.0427 5.816 29.6867 5.032 30.4987 5.032C31.2547 5.032 31.9547 5.396 32.5987 6.152L34.2787 2.792ZM35.8145 0.719999V4.696H39.2585V22H43.2625V4.696H46.7065V0.719999H35.8145ZM46.9981 22H51.0021L51.3941 20.348H56.6021L56.9381 22H60.9421L55.4821 0.607998H51.4501L46.9981 22ZM52.2061 16.344L53.7181 9.036L55.5661 16.344H52.2061ZM62.3511 16.26C62.3511 20.068 64.0311 21.972 67.3911 22C69.2391 22.028 70.6671 21.44 71.6471 20.236C72.5431 19.144 72.9911 17.744 72.9911 16.008V0.719999H69.0151V16.176C69.0151 17.352 68.5111 17.912 67.5031 17.856C66.6351 17.828 66.2431 17.268 66.3271 16.176V0.719999H62.3511V16.26ZM83.3566 13.18C85.8766 11.976 87.1366 10.128 87.1646 7.608C87.1926 3.044 84.5886 0.747998 79.3526 0.747998H75.3766V22H79.3526V14.244L82.4606 22H87.2486L83.3566 13.18ZM79.3806 4.696C80.6686 4.668 81.5926 4.948 82.1526 5.48C82.6566 5.956 82.9086 6.516 82.9086 7.216C82.9086 7.888 82.6566 8.448 82.1806 8.896C81.6766 9.4 80.7526 9.624 79.3806 9.596V4.696ZM88.0958 22H92.0998L92.4918 20.348H97.6998L98.0358 22H102.04L96.5798 0.607998H92.5478L88.0958 22ZM93.3038 16.344L94.8158 9.036L96.6638 16.344H93.3038ZM111.541 11.052L107.845 0.719999H103.869V22H107.845V12.144L111.541 22H115.517V0.719999H111.541V11.052ZM117.326 0.719999V4.696H120.77V22H124.774V4.696H128.218V0.719999H117.326Z" fill="#EDEBEE"/>
</svg>
